<svg width="253" height="35" viewBox="0 0 253 35" fill="none" xmlns="http://www.w3.org/2000/svg">
<path d="M49.4554 1.80634V26.7994H42.3279V16.5971H33.6489V26.7994H26.5215V0.732422H32.5822C33.1641 0.732422 33.6489 1.22057 33.6489 1.80634V9.81192C33.6489 10.1048 33.8914 10.3977 34.2308 10.3977H42.3279V0.781236H48.3887C48.9705 0.732422 49.4554 1.22057 49.4554 1.80634Z" fill="#080C31"/>
<path d="M53.2373 20.2582V7.71289H59.1041C59.6859 7.71289 60.1708 8.20104 60.1708 8.78681V18.6473C60.1708 19.4772 60.3647 20.1118 60.7526 20.5511C61.1405 21.0392 61.6739 21.2345 62.3042 21.2345C62.6921 21.2345 63.0315 21.1857 63.4194 21.0881C63.8073 20.9904 64.1467 20.7952 64.5345 20.5511C64.9224 20.2582 65.2618 19.8677 65.6497 19.3796V7.71289H71.5165C72.0984 7.71289 72.5832 8.20104 72.5832 8.78681V19.0867C72.5832 19.7213 72.6802 20.1606 72.8741 20.4535C73.0681 20.6975 73.4075 20.844 73.8923 20.8928V26.7505C73.262 26.897 72.7287 26.9458 72.2438 27.0434C71.759 27.0922 71.3226 27.1411 70.9832 27.1411C69.8195 27.1411 68.8983 26.9458 68.2195 26.5065C67.5407 26.0671 67.1043 25.4326 66.9104 24.5051L66.7649 23.8217C65.8437 24.9932 64.777 25.8719 63.5163 26.36C62.2557 26.897 60.8496 27.1411 59.2496 27.1411C57.3586 27.1411 55.8555 26.5553 54.8373 25.3837C53.7706 24.2122 53.2373 22.5037 53.2373 20.2582Z" fill="#080C31"/>
<path d="M84.3657 27.1898C82.7172 27.1898 81.0202 26.8969 79.4201 26.36C77.8201 25.823 76.414 24.9932 75.2988 23.9681L77.6746 19.6724C78.8383 20.4534 80.002 21.088 81.1171 21.5274C82.2323 21.9667 83.2505 22.2108 84.1233 22.2108C84.6566 22.2108 84.996 22.1619 85.2385 22.0155C85.4809 21.9179 85.6264 21.7226 85.6264 21.4297C85.6264 21.2345 85.5294 21.0392 85.3839 20.8928C85.19 20.7463 84.9475 20.5999 84.5597 20.4534C84.1718 20.307 83.6869 20.1605 83.1051 19.9653C81.602 19.4283 80.3414 18.9402 79.3232 18.5009C78.305 18.0615 77.5777 17.4757 77.0443 16.8412C76.5595 16.1578 76.317 15.2791 76.317 14.2052C76.317 12.8872 76.6564 11.7645 77.2868 10.7882C77.9656 9.81187 78.8868 8.98203 80.0989 8.44507C81.3111 7.85929 82.8142 7.56641 84.5112 7.56641C85.8203 7.56641 87.0809 7.76166 88.3901 8.15218C89.6992 8.5427 90.9598 9.27491 92.172 10.3488L89.5537 14.5957C88.3416 13.8147 87.3234 13.2777 86.4506 12.9848C85.6263 12.6919 84.8506 12.4967 84.2203 12.4967C83.9293 12.4967 83.6384 12.5455 83.396 12.5943C83.1536 12.6431 82.9596 12.7896 82.8626 12.8872C82.7172 13.0336 82.6687 13.2289 82.6687 13.473C82.6687 13.717 82.7657 13.9123 82.9111 14.0587C83.1051 14.2052 83.3475 14.3516 83.6869 14.4981C84.0263 14.6445 84.5112 14.791 85.093 14.9374C86.7415 15.4255 88.0991 15.9137 89.1173 16.4018C90.184 16.89 90.9113 17.4758 91.4447 18.1592C91.9295 18.8426 92.172 19.77 92.172 20.8928C92.172 22.8942 91.4447 24.4074 90.0386 25.5301C88.7779 26.6041 86.8385 27.1898 84.3657 27.1898Z" fill="#080C31"/>
<path d="M114.233 26.7992H107.299V16.2064C107.299 15.2789 107.106 14.5955 106.669 14.1562C106.233 13.7169 105.699 13.5216 105.069 13.5216C104.778 13.5216 104.39 13.6192 104.002 13.8145C103.566 14.0098 103.178 14.3026 102.79 14.742C102.402 15.1325 102.111 15.6206 101.869 16.1576V26.7992H94.9355V0H100.802C101.384 0 101.869 0.488145 101.869 1.07392V10.6416C102.548 9.61646 103.421 8.83542 104.536 8.29846C105.651 7.76151 106.863 7.46862 108.221 7.46862C109.578 7.46862 110.645 7.66388 111.469 8.15202C112.294 8.59135 112.875 9.17713 113.263 9.86053C113.651 10.5439 113.942 11.2761 114.039 12.106C114.184 12.887 114.233 13.6681 114.233 14.3515V26.7992Z" fill="#080C31"/>
<path d="M134.209 5.6138C133.821 5.17447 133.433 4.83277 132.948 4.49107C132.463 4.14937 131.93 3.85648 131.3 3.61241C130.669 3.36834 130.039 3.17308 129.36 3.02664C128.682 2.88019 127.954 2.83138 127.179 2.83138C124.9 2.83138 123.251 3.27071 122.184 4.14937C121.118 5.02803 120.584 6.19958 120.584 7.66401C120.584 8.68912 120.827 9.47015 121.312 10.1047C121.797 10.6905 122.621 11.1787 123.688 11.5204C124.754 11.9109 126.112 12.2526 127.76 12.6431C129.603 13.0336 131.203 13.4729 132.512 14.0587C133.87 14.5957 134.888 15.3279 135.615 16.2554C136.342 17.1828 136.73 18.4032 136.73 19.9653C136.73 21.1368 136.488 22.2107 136.051 23.0894C135.615 23.9681 134.936 24.7003 134.112 25.286C133.288 25.8718 132.318 26.3112 131.154 26.604C129.991 26.8969 128.779 27.0434 127.421 27.0434C126.063 27.0434 124.803 26.8969 123.591 26.604C122.378 26.3112 121.215 25.9206 120.1 25.3349C118.984 24.7979 117.966 24.0657 117.045 23.2358L118.306 21.1368C118.742 21.625 119.324 22.0643 119.954 22.5036C120.584 22.943 121.312 23.3335 122.087 23.6752C122.863 24.0169 123.736 24.2609 124.657 24.4562C125.578 24.6515 126.5 24.7491 127.469 24.7491C129.554 24.7491 131.154 24.3586 132.318 23.6264C133.482 22.8453 134.064 21.7226 134.064 20.2582C134.064 19.1842 133.773 18.3056 133.191 17.671C132.609 17.0364 131.736 16.4994 130.573 16.0601C129.409 15.6208 127.954 15.2303 126.257 14.8397C124.463 14.4004 122.96 13.9611 121.7 13.4241C120.439 12.8872 119.518 12.2526 118.936 11.3739C118.306 10.5441 118.015 9.42134 118.015 8.00571C118.015 6.39484 118.403 5.02803 119.178 3.9053C119.954 2.78256 121.069 1.95272 122.427 1.36694C123.833 0.781168 125.385 0.488281 127.179 0.488281C128.342 0.488281 129.36 0.58591 130.379 0.829983C131.348 1.07406 132.27 1.41576 133.094 1.85509C133.918 2.29442 134.742 2.83138 135.47 3.51478L134.209 5.6138Z" fill="#080C31"/>
<path d="M148.949 27.1898C147.591 27.1898 146.33 26.9457 145.167 26.4088C144.003 25.8718 142.985 25.1884 142.161 24.2609C141.288 23.3335 140.657 22.3084 140.173 21.088C139.688 19.9165 139.445 18.5985 139.445 17.2317C139.445 15.4743 139.833 13.8146 140.657 12.3502C141.482 10.8858 142.597 9.6654 144.051 8.78674C145.458 7.90808 147.106 7.46875 148.949 7.46875C150.791 7.46875 152.44 7.90808 153.846 8.83556C155.252 9.76303 156.367 10.9346 157.143 12.399C157.918 13.8635 158.355 15.4743 158.355 17.2317V17.7686C158.355 17.9639 158.355 18.0615 158.306 18.2079H142.015C142.112 19.5747 142.5 20.7951 143.179 21.869C143.809 22.943 144.682 23.7728 145.7 24.4074C146.718 25.042 147.833 25.3349 149.094 25.3349C150.306 25.3349 151.518 25.042 152.585 24.4074C153.7 23.7728 154.476 22.943 154.912 21.9178L157.046 22.5036C156.658 23.4311 156.076 24.2121 155.252 24.9443C154.476 25.6766 153.506 26.2623 152.44 26.6529C151.324 26.9457 150.161 27.141 148.949 27.1898ZM141.918 16.4018H155.979C155.882 15.035 155.494 13.8146 154.864 12.7407C154.234 11.7156 153.361 10.8858 152.343 10.3C151.324 9.71422 150.161 9.42133 148.949 9.42133C147.688 9.42133 146.573 9.71422 145.555 10.3C144.536 10.8858 143.712 11.7156 143.033 12.7895C142.403 13.8146 142.015 15.035 141.918 16.4018Z" fill="#080C31"/>
<path d="M170.38 27.1898C168.974 27.1898 167.713 26.9458 166.549 26.4088C165.386 25.8718 164.368 25.1396 163.543 24.261C162.671 23.3335 161.992 22.2596 161.555 21.088C161.071 19.9165 160.828 18.6473 160.828 17.2805C160.828 15.4743 161.216 13.8635 162.04 12.3502C162.816 10.837 163.931 9.66542 165.386 8.83557C166.792 7.95691 168.489 7.51758 170.331 7.51758C172.125 7.51758 173.677 7.95691 175.035 8.73794C176.392 9.56779 177.41 10.6417 178.041 12.0573L175.616 12.8384C175.083 11.8621 174.307 11.081 173.386 10.5441C172.416 10.0071 171.35 9.71423 170.186 9.71423C168.925 9.71423 167.762 10.0559 166.695 10.6905C165.628 11.3739 164.804 12.2526 164.174 13.3753C163.543 14.4981 163.252 15.816 163.252 17.2805C163.252 18.7449 163.543 20.0141 164.174 21.1856C164.804 22.3572 165.628 23.2847 166.695 23.9681C167.762 24.6515 168.877 24.9932 170.186 24.9932C171.01 24.9932 171.834 24.8467 172.562 24.5538C173.338 24.261 173.968 23.8704 174.55 23.3823C175.131 22.8942 175.519 22.3084 175.713 21.7226L178.138 22.4548C177.798 23.3823 177.216 24.1633 176.441 24.8955C175.665 25.6278 174.744 26.1647 173.677 26.5552C172.707 26.9458 171.544 27.141 170.38 27.1898Z" fill="#080C31"/>
<path d="M181.968 18.9402V7.76172H184.441V18.5009C184.441 20.6487 184.828 22.3084 185.556 23.3824C186.283 24.4563 187.398 24.9932 188.853 24.9932C189.823 24.9932 190.744 24.798 191.665 24.3586C192.586 23.9193 193.362 23.3335 194.089 22.5525C194.768 21.7715 195.35 20.844 195.689 19.7701V7.76172H198.162V23.8217C198.162 24.1634 198.211 24.4075 198.356 24.5539C198.502 24.7003 198.744 24.798 199.035 24.8468V26.8482C198.744 26.897 198.502 26.897 198.356 26.897C198.162 26.897 198.017 26.897 197.871 26.897C197.386 26.8482 196.95 26.6529 196.611 26.3112C196.271 25.9695 196.077 25.5302 196.029 25.0909L195.98 22.5525C195.156 24.0169 194.041 25.1397 192.586 25.9695C191.18 26.7994 189.629 27.1899 187.98 27.1899C185.992 27.1899 184.489 26.5065 183.471 25.0909C182.453 23.6752 181.968 21.625 181.968 18.9402Z" fill="#080C31"/>
<path d="M213.29 9.8607C211.642 9.90952 210.187 10.3977 208.927 11.2763C207.666 12.155 206.793 13.3753 206.26 14.9374V26.8482H203.787V7.81049H206.114V12.3502C206.793 10.9834 207.666 9.90952 208.733 9.07967C209.799 8.24982 210.963 7.76168 212.175 7.66405C212.418 7.61523 212.612 7.61523 212.806 7.61523C212.999 7.61523 213.145 7.61523 213.242 7.66405V9.8607H213.29Z" fill="#080C31"/>
<path d="M216.636 3.66109V0H219.109V3.66109H216.636ZM216.636 26.7992V7.66388H219.109V26.7992H216.636Z" fill="#080C31"/>
<path d="M237.873 32.6571C238.212 32.7059 238.552 32.7059 238.843 32.7059C239.134 32.7059 239.376 32.7059 239.521 32.6571C239.812 32.6083 240.103 32.4619 240.346 32.1201C240.637 31.8273 240.927 31.2903 241.267 30.4605C241.655 29.6306 242.14 28.4102 242.818 26.7994L234.527 7.71289H237.146L244.128 24.2122L250.528 7.71289H253.001L243.158 32.3154C242.964 32.7547 242.721 33.1941 242.382 33.6334C242.043 34.0239 241.606 34.3656 241.121 34.5609C240.637 34.8049 240.006 34.9026 239.279 34.9514C239.085 35.0002 238.843 35.0002 238.6 34.9514C238.358 34.9514 238.115 34.9026 237.776 34.8538V32.6571H237.873Z" fill="#080C31"/>
<path fill-rule="evenodd" clip-rule="evenodd" d="M232.782 26.4573C233.218 26.2621 233.509 26.1156 233.703 26.0668L233.024 24.0654C232.927 24.1631 232.588 24.3095 232.006 24.5536C231.473 24.7976 230.842 24.8953 230.164 24.8953C229.582 24.8953 229.048 24.7 228.612 24.3583C228.176 24.0166 227.933 23.4797 227.885 22.7963V10.495H232.248V7.76139H231.23H227.885V1.31787H225.412V7.76139H223.715C223.085 7.71257 222.503 7.41968 222.066 7.07798C222.212 7.4685 222.309 7.85902 222.309 8.29835V9.86041C222.309 10.2021 222.6 10.495 222.939 10.495H225.363V23.5285C225.363 24.3095 225.557 24.9929 225.897 25.5787C226.236 26.1156 226.77 26.555 227.351 26.799C227.982 27.0919 228.661 27.1896 229.339 27.1896C230.018 27.1896 230.648 27.1407 231.23 26.9943C231.861 26.799 232.345 26.6526 232.782 26.4573Z" fill="#080C31"/>
<path d="M220.078 5.02791C219.447 4.49095 218.575 4.14925 217.702 4.14925H216.247C215.956 4.14925 215.714 3.90518 215.714 3.61229V0.0488281H219.253C219.544 0.0488281 219.787 0.292901 219.787 0.585788V3.51466C219.738 4.05162 219.835 4.53976 220.078 5.02791Z" fill="#00FFFF"/>
<path fill-rule="evenodd" clip-rule="evenodd" d="M6.78805 18.6471H10.9578C12.2185 18.6471 13.2367 19.6722 13.2367 20.9414V26.2621C13.2367 26.6527 13.5276 26.9456 13.9155 26.9456H20.5581C20.6066 26.9456 20.6066 26.8967 20.6066 26.8967V20.2091C20.6066 19.8186 20.3157 19.5257 19.9278 19.5257H14.2549C12.9943 19.5257 11.9761 18.5006 11.9761 17.2315V13.2287C11.9761 12.9358 11.7336 12.6917 11.4427 12.6917H7.51534C5.62438 12.6917 4.12131 11.1296 4.12131 9.2747V7.46856C4.12131 7.07804 3.8304 6.78516 3.44251 6.78516H0.048486C0 6.78516 0 6.83397 0 6.83397V10.251C0 10.6415 0.290916 10.9344 0.678805 10.9344H2.66673C4.55769 10.9344 6.06076 12.4476 6.06076 14.3514V18.1101C6.06076 18.403 6.30319 18.6471 6.5941 18.6471H6.78805Z" fill="#00FFFF"/>
<path fill-rule="evenodd" clip-rule="evenodd" d="M16.0002 11.9598C16.0002 12.3503 16.2911 12.6432 16.679 12.6432H20.5579C21.4791 12.692 22.3034 13.0337 22.9337 13.5707C22.4004 13.0337 22.0125 12.3015 21.867 11.5205V7.42003C21.867 7.02952 21.5761 6.73663 21.1882 6.73663H17.4548C15.5638 6.73663 14.0608 5.17457 14.0608 3.31962V1.51348C14.0608 1.12296 13.7698 0.830078 13.382 0.830078H9.98794C9.93945 0.830078 9.93945 0.878893 9.93945 0.878893V4.29591C9.93945 4.68642 10.2304 4.97931 10.6183 4.97931H12.6062C14.4971 4.97931 16.0002 6.54137 16.0002 8.39632V11.9598Z" fill="#00FFFF"/>
</svg>
