<svg width="476" height="432" viewBox="0 0 476 432" fill="none" xmlns="http://www.w3.org/2000/svg">
<g clip-path="url(#clip0_2107_49167)">
<path d="M157.7 380.5L0 395V366.2L144.5 369.2L157.7 380.5Z" fill="#FF3961"/>
<path d="M395.4 306.4L344.1 320.5C344.1 320.5 343.5 308.7 344 302.1L347.1 300.1L359.2 293.6L364.8 299.4C364.8 299.4 385 295.4 395.4 306.3V306.4Z" fill="#FF3961"/>
<path d="M303.4 209.7L277.3 201.9L226.4 181.3C226 182.9 225.6 184.6 225.2 186.3C215.8 222.8 189.9 279 173.4 312.9C164.9 330.3 158.9 341.9 158.9 341.9L158 341.7L142.6 338.1L140 337.5C140 337.5 144.9 324.7 151.6 305.3C165 266.5 185.7 201.3 188.6 160.4H190C190 160.5 239.7 153.1 239.7 153.1C267.1 160.6 305.5 171.7 319.5 188.5C335.7 207.9 362.1 290.8 362.1 290.8L347.2 300.2L344.1 302.2L336.7 306.9C336.7 306.9 311.8 241 303.5 209.8L303.4 209.7Z" fill="#FFCDD8"/>
<path d="M329.8 114.1L245.6 102.5V102.3C245.6 102.3 241.2 91.4 233.8 85.7C234.7 90.2 235.6 95.6 236.4 101.4C238 113.5 239.2 127.4 239.8 137.8H237.4L235.1 145.7L233.1 152.6C232.8 152.6 232.5 152.6 232.2 152.6L211.4 145.8L187.8 138L183.5 136.6C183.5 136.6 173.6 89.1 189.3 69.2C193.9 63.4 198.4 62.8 208.3 62C208.3 65.4 223.5 75.1 227.7 71.2C229.1 69.9 229.3 67.2 227.5 62.3C247.6 65.8 311.2 101.3 329.9 102.5V114.3L329.8 114.1Z" fill="white"/>
<path d="M277.2 201.8L225.6 186.3H225.1C225.6 184.4 226 182.8 226.3 181.1L277.2 201.7V201.8Z" fill="#FF3961"/>
<path d="M238.8 386C246.4 382.5 254.9 379.6 264.5 377.6L255 389.1V394.6L243.9 404.8V412.2L236 419.6L238.5 432.1H171.8C171.8 432.1 193.1 422.4 203.8 411C207.1 407.4 215.2 408 219.8 404.4C226.1 399.4 229.6 390.2 238.6 386.1L238.8 386Z" fill="#FF073A"/>
<path d="M245.7 102.4V102.6L237.1 101.4H236.4C235.6 95.7003 234.8 90.3003 233.8 85.8003C241.2 91.6003 245.7 102.4 245.7 102.4Z" fill="#FF3961"/>
<path d="M237.6 27.3999C238.3 29.9999 238.8 32.6999 238.9 35.3999C236 38.8999 225.8 39.2999 217.1 38.8999C217.8 37.1999 218.2 35.1999 218.4 33.1999C227.8 33.2999 237.6 32.2999 237.6 27.3999Z" fill="#FF3961"/>
<path d="M239 152.8C237.7 152.4 236.2 152.6 234.9 152.6C234.3 152.6 233.6 152.6 233 152.6L235 145.7L239.9 143.2C240.2 148.7 240.4 152.3 240.6 152.8L239.5 153C239.3 153 239.1 152.9 238.9 152.8H239Z" fill="white"/>
<path d="M233.6 19.4001C236.2 22.9001 234.3 25.5001 230.5 26.8001C226.6 28.1001 214.6 21.9001 217.5 25.1001C218.3 26.0001 218.7 29.5001 218.4 33.2001C217.4 33.2001 216.4 33.2001 215.5 33.1001C215 32.1001 214.5 31.3001 214 31.2001C211.8 29.9001 210.5 31.0001 210.2 32.8001C206 32.5001 202.7 32.1001 201.9 31.9001C200.9 24.8001 203.6 18.4001 207.5 15.6001C214.9 10.4001 225.6 12.3001 231.4 17.0001C232.2 17.7001 233 18.5001 233.7 19.3001L233.6 19.4001Z" fill="#FFCDD8"/>
<path d="M239.6 153L189.9 160.4H188.5C188.9 154 189 148.2 188.5 143.3H188.9L211.4 145.8L232.2 152.6L233 152.9V152.6C233.7 152.6 234.3 152.6 235 152.6C236.4 152.6 237.8 152.5 239.1 152.8C239.3 152.8 239.5 152.9 239.7 153H239.6Z" fill="white"/>
<path d="M223.4 59.4002L214.8 46.2002C214.9 46.4002 215.1 46.5002 215.3 46.7002C217.3 48.6002 220.4 51.1002 223.5 53.0002C223.5 53.2002 223.2 55.7002 223.7 59.4002H223.4Z" fill="#FF3961"/>
<path d="M218.4 33.2001C218.2 35.2001 217.8 37.2001 217.1 38.9001H217C217 37.6001 216.4 35.0001 215.5 33.1001C216.5 33.1001 217.5 33.1001 218.4 33.2001Z" fill="#FF3961"/>
<path d="M215.4 33.1003C216.3 34.9003 217 37.6003 216.9 38.9003C215.8 38.9003 214.7 38.8003 213.7 38.7003C213.1 38.7003 212.5 38.7003 211.9 38.6003C210.3 37.7003 209.7 34.9003 210.2 32.8003C211.8 32.9003 213.6 33.0003 215.5 33.1003H215.4Z" fill="#FF3961"/>
<path d="M211.4 145.7L188.9 143.2H188.5C188.3 141.4 188.1 139.6 187.7 137.9L211.3 145.7H211.4Z" fill="#FF3961"/>
<path d="M202.1 33.8002C202.1 33.8002 207.1 38.2002 211.8 38.5002C212 38.6002 212.3 38.7002 212.6 38.7002C212.6 38.9002 212.7 39.3002 212.7 40.0002C212.7 41.8002 212.5 44.9002 209.9 46.3002C205.5 42.4002 203 38.0002 202 33.7002L202.1 33.8002Z" fill="#FFCDD8"/>
<path d="M202.1 33.7999C201.9 33.1999 201.8 32.5999 201.7 31.8999C202.5 31.9999 205.8 32.3999 210 32.7999C209.5 34.7999 210.2 37.6999 211.7 38.5999C206.9 38.1999 202 33.8999 202 33.8999L202.1 33.7999Z" fill="#FF3961"/>
<path d="M201.4 32.1001C201.4 32.1001 201.4 32.1001 201.5 32.1001C201.3 33.3001 201.2 34.9001 201.5 36.8001C202.1 40.4001 203.9 42.8001 204.8 44.0001C203.4 44.2001 202 44.4001 200.5 44.6001C200.2 44.2001 197 40.1001 198.5 35.7001C199 34.4001 200.5 33.0001 201.2 32.3001L201.4 32.1001Z" fill="#FF3961"/>
<path d="M201.4 32.1001C200.4 32.8001 199.2 33.8001 198.1 35.2001C195.9 38.1001 195.3 41.0001 195.1 42.5001C194 41.6001 192.9 40.7001 191.8 39.8001C191.8 39.3001 192.7 34.1001 197 32.3001C198.3 31.7001 200.6 31.9001 201.6 32.0001L201.4 32.1001Z" fill="#FF3961"/>
<path d="M174.8 380.5H157.7L144.6 369.2L131.5 357.9C132.9 352.8 136.5 346.8 139.3 342.7L156 346.1L164.6 372.6C168.2 375.4 173.8 377.5 174.9 380.5H174.8Z" fill="#FF3961"/>
<path d="M158 341.6L158.9 341.8C158.9 341.8 164.9 330.3 173.4 312.8C209.3 326.8 242.7 347.3 264.5 377.5C254.9 379.5 246.3 382.5 238.8 385.9C229.8 390 226.3 399.2 220 404.2C215.4 407.8 207.4 407.3 204 410.8C193.3 422.2 172 431.9 172 431.9H0V394.9L157.7 380.4H174.8C173.6 377.4 168.1 375.4 164.5 372.5L155.9 346L158.1 341.5L158 341.6Z" fill="white"/>
<path d="M140 337.4L142.6 338C142.6 338 141.1 339.9 139.1 342.7C136.3 346.8 132.7 352.7 131.3 357.9L144.4 369.2L0 366.2V283.1C0 283.1 76.9 281.7 151.6 305.1C144.9 324.5 140 337.3 140 337.3V337.4Z" fill="white"/>
<path d="M228.1 172.3C227.7 175.1 227.1 178 226.4 181.2C226 182.8 225.6 184.5 225.2 186.2C215.8 222.7 189.9 278.9 173.4 312.8C164.9 330.2 158.9 341.8 158.9 341.8" stroke="#FF3961" stroke-width="2" stroke-linecap="round" stroke-linejoin="round"/>
<path d="M187.8 137.9C188.1 139.5 188.4 141.3 188.6 143.2C189.1 148.2 189.1 153.9 188.6 160.2C185.7 201.1 165 266.3 151.6 305.1C144.9 324.5 140 337.3 140 337.3" stroke="#FF3961" stroke-width="2" stroke-linecap="round" stroke-linejoin="round"/>
<path d="M159 341.8L158 341.6L142.6 338L140 337.4" stroke="#FF3961" stroke-width="2" stroke-linecap="round" stroke-linejoin="round"/>
<path d="M232.2 152.6C232.5 152.6 232.8 152.6 233.1 152.6C233.7 152.6 234.3 152.6 235 152.6C236.4 152.6 237.8 152.5 239.1 152.8C239.3 152.8 239.5 152.9 239.7 153C267.1 160.5 305.5 171.6 319.5 188.4C335.7 207.8 362.1 290.7 362.1 290.7" stroke="#FF3961" stroke-width="2" stroke-linecap="round" stroke-linejoin="round"/>
<path d="M225.7 186.4L277.2 201.8L303.4 209.7" stroke="#FF3961" stroke-width="2" stroke-linecap="round" stroke-linejoin="round"/>
<path d="M336.6 306.8C336.6 306.8 311.7 240.9 303.4 209.7V201.9" stroke="#FF3961" stroke-width="2" stroke-linecap="round" stroke-linejoin="round"/>
<path d="M344 302.1L336.6 306.8" stroke="#FF3961" stroke-width="2" stroke-linecap="round" stroke-linejoin="round"/>
<path d="M362.1 290.7L347.1 300.2" stroke="#FF3961" stroke-width="2" stroke-linecap="round" stroke-linejoin="round"/>
<path d="M240.8 152.8L239.6 153L189.9 160.4" stroke="#FF3961" stroke-width="2" stroke-linecap="round" stroke-linejoin="round"/>
<path d="M208.2 61.8999C198.3 62.6999 193.8 63.2999 189.2 69.0999C173.5 88.9999 183.4 136.5 183.4 136.5" stroke="#FF3961" stroke-width="2" stroke-linecap="round" stroke-linejoin="round"/>
<path d="M200.8 89.3003C200.8 89.3003 201.6 110.6 203.2 124.7C203.2 124.8 203.2 124.9 203.2 125" stroke="#FF3961" stroke-width="2" stroke-linecap="round" stroke-linejoin="round"/>
<path d="M199.4 123.2L203.2 124.7L237.3 137.8" stroke="#FF3961" stroke-width="2" stroke-linecap="round" stroke-linejoin="round"/>
<path d="M211.4 145.7L187.8 137.9L183.4 136.5" stroke="#FF3961" stroke-width="2" stroke-linecap="round" stroke-linejoin="round"/>
<path d="M233 152.8L232.2 152.6L211.4 145.7" stroke="#FF3961" stroke-width="2" stroke-linecap="round" stroke-linejoin="round"/>
<path d="M230.8 75.8003C231.9 77.8003 232.9 81.3003 233.8 85.8003C234.7 90.3003 235.6 95.7003 236.4 101.5C238 113.6 239.2 127.5 239.8 137.9" stroke="#FF3961" stroke-width="2" stroke-linecap="round" stroke-linejoin="round"/>
<path d="M240.8 152.8C240.6 152.3 240.4 148.7 240.1 143.2" stroke="#FF3961" stroke-width="2" stroke-linecap="round" stroke-linejoin="round"/>
<path d="M208.2 61.8999C208.2 65.2999 223.4 74.9999 227.6 71.0999C229 69.7999 229.2 67.0999 227.4 62.1999C227.4 62.1999 227.4 61.9999 227.3 61.8999" stroke="#FF3961" stroke-width="2" stroke-linecap="round" stroke-linejoin="round"/>
<path d="M237.3 137.8L235 145.7L233.1 152.5L233 152.8" stroke="#FF3961" stroke-width="2" stroke-linecap="round" stroke-linejoin="round"/>
<path d="M224.6 61.8999C225.4 61.8999 226.3 61.8999 227.4 62.1999C247.5 65.6999 311.1 101.2 329.8 102.4" stroke="#FF3961" stroke-width="2" stroke-linecap="round" stroke-linejoin="round"/>
<path d="M237 101.3L245.6 102.5L329.8 114.1" stroke="#FF3961" stroke-width="2" stroke-linecap="round" stroke-linejoin="round"/>
<path d="M329.8 102.4V112.3V114.1" stroke="#FF3961" stroke-width="2" stroke-linecap="round" stroke-linejoin="round"/>
<path d="M329.8 102.4L332.8 101.9" stroke="#FF3961" stroke-width="2" stroke-linecap="round" stroke-linejoin="round"/>
<path d="M350.7 84.3003L332.8 101.9" stroke="#FF3961" stroke-width="2" stroke-linecap="round" stroke-linejoin="round"/>
<path d="M344.8 101C341.8 99.9003 346.5 93.7003 349 89.2003C350.3 86.8003 351.8 84.5003 350.8 84.3003" stroke="#FF3961" stroke-width="2" stroke-linecap="round" stroke-linejoin="round"/>
<path d="M341.1 102.9C341.1 102.9 342.8 102.2 344.7 101C345.8 100.3 347 99.4002 347.9 98.4002C349.2 97.0002 351.2 96.3002 351.9 97.3002" stroke="#FF3961" stroke-width="2" stroke-linecap="round" stroke-linejoin="round"/>
<path d="M336.6 107.9C341.1 108.2 352 97.2002 352 97.2002" stroke="#FF3961" stroke-width="2" stroke-linecap="round" stroke-linejoin="round"/>
<path d="M336.6 107.9L329.8 112.3" stroke="#FF3961" stroke-width="2" stroke-linecap="round" stroke-linejoin="round"/>
<path d="M240.8 137.8C240.8 137.8 251.6 132.3 260.7 133.4" stroke="#FF3961" stroke-width="2" stroke-linecap="round" stroke-linejoin="round"/>
<path d="M260.6 133.4C260.6 135.1 251.7 136.7 251.7 136.7" stroke="#FF3961" stroke-width="2" stroke-linecap="round" stroke-linejoin="round"/>
<path d="M251.7 136.8L248.3 139.1" stroke="#FF3961" stroke-width="2" stroke-linecap="round" stroke-linejoin="round"/>
<path d="M248.3 139.1C248.3 139.1 256.2 137.6 256.2 139.6" stroke="#FF3961" stroke-width="2" stroke-linecap="round" stroke-linejoin="round"/>
<path d="M235.1 145.7L240 143.2L240.4 143C241.3 142.5 242.3 142.3 243.4 142.4H244.7C245.4 142.6 246.1 142.5 246.7 142.4L256.1 139.7" stroke="#FF3961" stroke-width="2" stroke-linecap="round" stroke-linejoin="round"/>
<path d="M240.8 137.8H239.8H237.3" stroke="#FF3961" stroke-width="2" stroke-linecap="round" stroke-linejoin="round"/>
<path d="M233.6 19.3999C235.4 21.6999 236.7 24.3999 237.6 27.3999C238.3 29.9999 238.8 32.6999 238.9 35.3999C239.4 44.3999 237 53.0999 233.2 54.8999C230.5 56.0999 226.9 54.8999 223.5 52.9999C220.3 51.1999 217.3 48.5999 215.3 46.6999C215.1 46.4999 215 46.3999 214.8 46.1999C214 45.2999 213.5 44.0999 213.3 42.8999L212.9 40.0999L212.7 38.7999" stroke="#FF3961" stroke-width="2" stroke-linecap="round" stroke-linejoin="round"/>
<path d="M208.2 61.9001C211.7 60.1001 210 50.5001 210 46.4001C205.6 42.5001 203.1 38.1001 202.1 33.8001C201.9 33.2001 201.8 32.6001 201.7 31.9001C200.7 24.8001 203.4 18.4001 207.3 15.6001C214.7 10.4001 225.4 12.3001 231.2 17.0001C232 17.7001 232.8 18.5001 233.5 19.3001" stroke="#FF3961" stroke-width="2" stroke-linecap="round" stroke-linejoin="round"/>
<path d="M223.5 52.8999C223.5 53.0999 223.2 55.6999 223.7 59.2999C223.8 60.0999 224 60.9999 224.2 61.8999C224.8 64.4999 225.7 67.4999 227.4 70.4999" stroke="#FF3961" stroke-width="2" stroke-linecap="round" stroke-linejoin="round"/>
<path d="M213.7 38.7C213.8 38.7 214 38.7 214.1 38.5" stroke="#FF3961" stroke-width="2" stroke-linecap="round" stroke-linejoin="round"/>
<path d="M214 31.2003C211.8 29.9003 210.5 31.0003 210.2 32.8003C209.7 34.8003 210.4 37.7003 211.9 38.6003C212.1 38.7003 212.4 38.8003 212.7 38.8003C213 38.8003 213.4 38.8003 213.8 38.7003" stroke="#FF3961" stroke-width="2" stroke-linecap="round" stroke-linejoin="round"/>
<path d="M212.7 38.8003C212.7 39.0003 212.8 39.4003 212.8 40.1003C212.8 41.9003 212.6 45.0003 210 46.4003" stroke="#FF3961" stroke-width="2" stroke-linecap="round" stroke-linejoin="round"/>
<path d="M216.9 39.2999C216.9 39.1999 217 38.9999 217.1 38.8999C217.8 37.1999 218.2 35.1999 218.4 33.1999C218.7 29.4999 218.4 25.9999 217.5 25.0999C214.6 21.8999 226.6 28.0999 230.5 26.7999C234.4 25.4999 236.3 22.7999 233.6 19.3999" stroke="#FF3961" stroke-width="2" stroke-linecap="round" stroke-linejoin="round"/>
<path d="M216.9 39.3003V39.5003C216.9 39.5003 216.9 39.4003 216.9 39.3003Z" stroke="#FF3961" stroke-width="2" stroke-linecap="round" stroke-linejoin="round"/>
<path d="M214 31.2002C214.5 31.4002 215 32.2002 215.5 33.1002C216.4 34.9002 217.1 37.6002 217 38.9002C217 39.1002 217 39.2002 217 39.3002" stroke="#FF3961" stroke-width="2" stroke-linecap="round" stroke-linejoin="round"/>
<path d="M223.4 59.4002L214.8 46.2002" stroke="#FF3961" stroke-width="2" stroke-linecap="round" stroke-linejoin="round"/>
<path d="M151.6 305.2C76.9 281.7 0 283.1 0 283.1V432H239" stroke="#FF3961" stroke-width="2" stroke-linecap="round" stroke-linejoin="round"/>
<path d="M264.5 377.5C242.7 347.3 209.2 326.8 173.4 312.8" stroke="#FF3961" stroke-width="2" stroke-linecap="round" stroke-linejoin="round"/>
<path d="M264.5 377.5C254.9 379.5 246.3 382.5 238.8 385.9C229.8 390 226.3 399.2 220 404.2C215.4 407.8 207.4 407.3 204 410.8C193.3 422.2 172 431.9 172 431.9" stroke="#FF3961" stroke-width="2" stroke-linecap="round" stroke-linejoin="round"/>
<path d="M238.7 432L236.1 419.5L244 412.1V404.8L255.1 394.6V389L264.5 377.5" stroke="#FF3961" stroke-width="2" stroke-linecap="round" stroke-linejoin="round"/>
<path d="M142.6 338C142.6 338 141.1 339.9 139.1 342.7C136.3 346.8 132.7 352.7 131.3 357.9" stroke="#FF3961" stroke-width="2" stroke-linecap="round" stroke-linejoin="round"/>
<path d="M139.1 342.7L155.9 346.1" stroke="#FF3961" stroke-width="2" stroke-linecap="round" stroke-linejoin="round"/>
<path d="M174.8 380.5C173.6 377.5 168.1 375.5 164.5 372.6" stroke="#FF3961" stroke-width="2" stroke-linecap="round" stroke-linejoin="round"/>
<path d="M144.5 369.2L131.4 357.9" stroke="#FF3961" stroke-width="2" stroke-linecap="round" stroke-linejoin="round"/>
<path d="M174.8 380.5H157.7L144.5 369.2" stroke="#FF3961" stroke-width="2" stroke-linecap="round" stroke-linejoin="round"/>
<path d="M164.4 372.7L155.9 346.1" stroke="#FF3961" stroke-width="2" stroke-linecap="round" stroke-linejoin="round"/>
<path d="M155.9 346.1L158 341.6" stroke="#FF3961" stroke-width="2" stroke-linecap="round" stroke-linejoin="round"/>
<path d="M237.6 27.3999C237.6 32.2999 227.8 33.2999 218.4 33.1999C217.4 33.1999 216.4 33.1999 215.5 33.0999C213.6 33.0999 211.8 32.8999 210.2 32.7999C206 32.4999 202.7 32.0999 201.9 31.8999C201.7 31.8999 201.7 31.8999 201.7 31.8999" stroke="#FF3961" stroke-width="2" stroke-linecap="round" stroke-linejoin="round"/>
<path d="M202.1 33.8003C202.1 33.8003 207.1 38.2003 211.8 38.5003C212.4 38.5003 213 38.5003 213.6 38.6003C214.6 38.6003 215.7 38.7003 216.8 38.8003H216.9C225.6 39.2003 235.9 38.8003 238.7 35.3003" stroke="#FF3961" stroke-width="2" stroke-linecap="round" stroke-linejoin="round"/>
<path d="M201.6 31.9003C201.6 31.9003 201.6 31.9003 201.6 32.0003C200.8 32.7003 199.3 34.2003 198.9 35.4003C197.4 39.8003 200.5 43.9003 200.9 44.3003C202.3 44.1003 203.7 43.9003 205.2 43.7003C204.2 42.5003 202.5 40.1003 201.9 36.5003C201.6 34.6003 201.7 33.0003 201.9 31.8003" stroke="#FF3961" stroke-width="2" stroke-linecap="round" stroke-linejoin="round"/>
<path d="M201.6 32C200.6 32 198.3 31.8 197 32.3C192.8 34.1 191.9 39.3 191.8 39.8C192.9 40.7 194 41.6 195.1 42.5C195.3 41 195.9 38 198.1 35.2C199.2 33.8 200.4 32.8 201.4 32.1C201.4 32.1 201.4 32.1 201.5 32.1" stroke="#FF3961" stroke-width="2" stroke-linecap="round" stroke-linejoin="round"/>
<path d="M233.8 85.8003C241.2 91.6003 245.7 102.4 245.7 102.4" stroke="#FF3961" stroke-width="2" stroke-linecap="round" stroke-linejoin="round"/>
<path d="M226.4 181.2L277.2 201.8" stroke="#FF3961" stroke-width="2" stroke-linecap="round" stroke-linejoin="round"/>
<path d="M211.4 145.7L188.9 143.2" stroke="#FF3961" stroke-width="2" stroke-linecap="round" stroke-linejoin="round"/>
<path d="M347.1 300.2L344 302.1" stroke="#FF3961" stroke-width="2" stroke-linecap="round" stroke-linejoin="round"/>
<path d="M344.1 320.5L395.4 306.4" stroke="#FF3961" stroke-width="2" stroke-linecap="round" stroke-linejoin="round"/>
<path d="M344 302.1C343.5 308.6 344.1 320.5 344.1 320.5" stroke="#FF3961" stroke-width="2" stroke-linecap="round" stroke-linejoin="round"/>
<path d="M395.4 306.4C385 295.4 364.8 299.5 364.8 299.5" stroke="#FF3961" stroke-width="2" stroke-linecap="round" stroke-linejoin="round"/>
<path d="M364.9 299.5L359.3 293.6" stroke="#FF3961" stroke-width="2" stroke-linecap="round" stroke-linejoin="round"/>
<path d="M359.3 293.6L347.1 300.2" stroke="#FF3961" stroke-width="2" stroke-linecap="round" stroke-linejoin="round"/>
<path d="M157.7 380.5L0 395" stroke="#FF3961" stroke-width="2" stroke-linecap="round" stroke-linejoin="round"/>
<path d="M144.5 369.2L0 366.2" stroke="#FF3961" stroke-width="2" stroke-linecap="round" stroke-linejoin="round"/>
</g>
<defs>
<clipPath id="clip0_2107_49167">
<rect width="476" height="432" fill="white"/>
</clipPath>
</defs>
</svg>
