<svg width="253" height="35" viewBox="0 0 253 35" fill="none" xmlns="http://www.w3.org/2000/svg">
<path d="M49.4554 1.80614V26.7992H42.3279V16.5969H33.6489V26.7992H26.5215V0.732216H32.5822C33.1641 0.732216 33.6489 1.22036 33.6489 1.80614V9.81171C33.6489 10.1046 33.8914 10.3975 34.2308 10.3975H42.3279V0.78103H48.3887C48.9705 0.732216 49.4554 1.22036 49.4554 1.80614Z" fill="white"/>
<path d="M53.2373 20.258V7.71269H59.1041C59.6859 7.71269 60.1708 8.20084 60.1708 8.78661V18.6471C60.1708 19.477 60.3647 20.1116 60.7526 20.5509C61.1405 21.039 61.6739 21.2343 62.3042 21.2343C62.6921 21.2343 63.0315 21.1855 63.4194 21.0879C63.8073 20.9902 64.1467 20.795 64.5345 20.5509C64.9224 20.258 65.2618 19.8675 65.6497 19.3794V7.71269H71.5165C72.0984 7.71269 72.5832 8.20084 72.5832 8.78661V19.0865C72.5832 19.7211 72.6802 20.1604 72.8741 20.4533C73.0681 20.6973 73.4075 20.8438 73.8923 20.8926V26.7503C73.262 26.8968 72.7287 26.9456 72.2438 27.0432C71.759 27.092 71.3226 27.1409 70.9832 27.1409C69.8195 27.1409 68.8983 26.9456 68.2195 26.5063C67.5407 26.0669 67.1043 25.4324 66.9104 24.5049L66.7649 23.8215C65.8437 24.993 64.777 25.8717 63.5163 26.3598C62.2557 26.8968 60.8496 27.1409 59.2496 27.1409C57.3586 27.1409 55.8555 26.5551 54.8373 25.3835C53.7706 24.212 53.2373 22.5035 53.2373 20.258Z" fill="white"/>
<path d="M84.3657 27.1897C82.7172 27.1897 81.0202 26.8968 79.4201 26.3598C77.8201 25.8229 76.414 24.993 75.2988 23.9679L77.6746 19.6722C78.8383 20.4533 80.002 21.0879 81.1171 21.5272C82.2323 21.9665 83.2505 22.2106 84.1233 22.2106C84.6566 22.2106 84.996 22.1618 85.2385 22.0153C85.4809 21.9177 85.6264 21.7225 85.6264 21.4296C85.6264 21.2343 85.5294 21.039 85.3839 20.8926C85.19 20.7462 84.9475 20.5997 84.5597 20.4533C84.1718 20.3068 83.6869 20.1604 83.1051 19.9651C81.602 19.4282 80.3414 18.94 79.3232 18.5007C78.305 18.0614 77.5777 17.4756 77.0443 16.841C76.5595 16.1576 76.317 15.2789 76.317 14.205C76.317 12.887 76.6564 11.7643 77.2868 10.788C77.9656 9.81171 78.8868 8.98187 80.0989 8.44491C81.3111 7.85913 82.8142 7.56625 84.5112 7.56625C85.8203 7.56625 87.0809 7.7615 88.3901 8.15202C89.6992 8.54254 90.9598 9.27475 92.172 10.3487L89.5537 14.5955C88.3416 13.8145 87.3234 13.2775 86.4506 12.9847C85.6263 12.6918 84.8506 12.4965 84.2203 12.4965C83.9293 12.4965 83.6384 12.5453 83.396 12.5941C83.1536 12.643 82.9596 12.7894 82.8626 12.887C82.7172 13.0335 82.6687 13.2287 82.6687 13.4728C82.6687 13.7169 82.7657 13.9121 82.9111 14.0586C83.1051 14.205 83.3475 14.3515 83.6869 14.4979C84.0263 14.6443 84.5112 14.7908 85.093 14.9372C86.7415 15.4254 88.0991 15.9135 89.1173 16.4017C90.184 16.8898 90.9113 17.4756 91.4447 18.159C91.9295 18.8424 92.172 19.7699 92.172 20.8926C92.172 22.894 91.4447 24.4072 90.0386 25.53C88.7779 26.6039 86.8385 27.1897 84.3657 27.1897Z" fill="white"/>
<path d="M114.233 26.7992H107.299V16.2064C107.299 15.2789 107.106 14.5955 106.669 14.1562C106.233 13.7169 105.699 13.5216 105.069 13.5216C104.778 13.5216 104.39 13.6192 104.002 13.8145C103.566 14.0098 103.178 14.3026 102.79 14.742C102.402 15.1325 102.111 15.6206 101.869 16.1576V26.7992H94.9355V0H100.802C101.384 0 101.869 0.488145 101.869 1.07392V10.6416C102.548 9.61646 103.421 8.83542 104.536 8.29846C105.651 7.76151 106.863 7.46862 108.221 7.46862C109.578 7.46862 110.645 7.66388 111.469 8.15202C112.294 8.59135 112.875 9.17713 113.263 9.86053C113.651 10.5439 113.942 11.2761 114.039 12.106C114.184 12.887 114.233 13.6681 114.233 14.3515V26.7992Z" fill="white"/>
<path d="M134.209 5.61367C133.821 5.17434 133.433 4.83263 132.948 4.49093C132.463 4.14923 131.93 3.85634 131.3 3.61227C130.669 3.3682 130.039 3.17294 129.36 3.0265C128.682 2.88005 127.954 2.83124 127.179 2.83124C124.9 2.83124 123.251 3.27057 122.184 4.14923C121.118 5.02789 120.584 6.19944 120.584 7.66388C120.584 8.68898 120.827 9.47001 121.312 10.1046C121.797 10.6904 122.621 11.1785 123.688 11.5202C124.754 11.9107 126.112 12.2524 127.76 12.643C129.603 13.0335 131.203 13.4728 132.512 14.0586C133.87 14.5955 134.888 15.3278 135.615 16.2552C136.342 17.1827 136.73 18.4031 136.73 19.9651C136.73 21.1367 136.488 22.2106 136.051 23.0893C135.615 23.9679 134.936 24.7001 134.112 25.2859C133.288 25.8717 132.318 26.311 131.154 26.6039C129.991 26.8968 128.779 27.0432 127.421 27.0432C126.063 27.0432 124.803 26.8968 123.591 26.6039C122.378 26.311 121.215 25.9205 120.1 25.3347C118.984 24.7978 117.966 24.0655 117.045 23.2357L118.306 21.1367C118.742 21.6248 119.324 22.0642 119.954 22.5035C120.584 22.9428 121.312 23.3333 122.087 23.675C122.863 24.0167 123.736 24.2608 124.657 24.4561C125.578 24.6513 126.5 24.749 127.469 24.749C129.554 24.749 131.154 24.3584 132.318 23.6262C133.482 22.8452 134.064 21.7225 134.064 20.258C134.064 19.1841 133.773 18.3054 133.191 17.6708C132.609 17.0363 131.736 16.4993 130.573 16.06C129.409 15.6206 127.954 15.2301 126.257 14.8396C124.463 14.4003 122.96 13.9609 121.7 13.424C120.439 12.887 119.518 12.2524 118.936 11.3738C118.306 10.5439 118.015 9.4212 118.015 8.00558C118.015 6.3947 118.403 5.02789 119.178 3.90516C119.954 2.78243 121.069 1.95258 122.427 1.3668C123.833 0.781031 125.385 0.488144 127.179 0.488144C128.342 0.488144 129.36 0.585773 130.379 0.829845C131.348 1.07392 132.27 1.41562 133.094 1.85495C133.918 2.29428 134.742 2.83124 135.47 3.51464L134.209 5.61367Z" fill="white"/>
<path d="M148.949 27.1897C147.591 27.1897 146.33 26.9456 145.167 26.4086C144.003 25.8717 142.985 25.1883 142.161 24.2608C141.288 23.3333 140.657 22.3082 140.173 21.0879C139.688 19.9163 139.445 18.5983 139.445 17.2315C139.445 15.4742 139.833 13.8145 140.657 12.3501C141.482 10.8856 142.597 9.66527 144.051 8.78661C145.458 7.90795 147.106 7.46862 148.949 7.46862C150.791 7.46862 152.44 7.90795 153.846 8.83543C155.252 9.7629 156.367 10.9345 157.143 12.3989C157.918 13.8633 158.355 15.4742 158.355 17.2315V17.7685C158.355 17.9637 158.355 18.0614 158.306 18.2078H142.015C142.112 19.5746 142.5 20.795 143.179 21.8689C143.809 22.9428 144.682 23.7727 145.7 24.4073C146.718 25.0418 147.833 25.3347 149.094 25.3347C150.306 25.3347 151.518 25.0418 152.585 24.4073C153.7 23.7727 154.476 22.9428 154.912 21.9177L157.046 22.5035C156.658 23.431 156.076 24.212 155.252 24.9442C154.476 25.6764 153.506 26.2622 152.44 26.6527C151.324 26.9456 150.161 27.1409 148.949 27.1897ZM141.918 16.4017H155.979C155.882 15.0349 155.494 13.8145 154.864 12.7406C154.234 11.7155 153.361 10.8856 152.343 10.2999C151.324 9.71409 150.161 9.4212 148.949 9.4212C147.688 9.4212 146.573 9.71409 145.555 10.2999C144.536 10.8856 143.712 11.7155 143.033 12.7894C142.403 13.8145 142.015 15.0349 141.918 16.4017Z" fill="white"/>
<path d="M170.38 27.1897C168.974 27.1897 167.713 26.9456 166.549 26.4087C165.386 25.8717 164.368 25.1395 163.543 24.2608C162.671 23.3333 161.992 22.2594 161.555 21.0879C161.071 19.9163 160.828 18.6471 160.828 17.2803C160.828 15.4742 161.216 13.8633 162.04 12.3501C162.816 10.8368 163.931 9.66527 165.386 8.83543C166.792 7.95676 168.489 7.51743 170.331 7.51743C172.125 7.51743 173.677 7.95676 175.035 8.7378C176.392 9.56764 177.41 10.6416 178.041 12.0572L175.616 12.8382C175.083 11.8619 174.307 11.0809 173.386 10.5439C172.416 10.007 171.35 9.71409 170.186 9.71409C168.925 9.71409 167.762 10.0558 166.695 10.6904C165.628 11.3738 164.804 12.2524 164.174 13.3752C163.543 14.4979 163.252 15.8159 163.252 17.2803C163.252 18.7448 163.543 20.014 164.174 21.1855C164.804 22.357 165.628 23.2845 166.695 23.9679C167.762 24.6513 168.877 24.993 170.186 24.993C171.01 24.993 171.834 24.8466 172.562 24.5537C173.338 24.2608 173.968 23.8703 174.55 23.3822C175.131 22.894 175.519 22.3082 175.713 21.7225L178.138 22.4547C177.798 23.3822 177.216 24.1632 176.441 24.8954C175.665 25.6276 174.744 26.1646 173.677 26.5551C172.707 26.9456 171.544 27.1409 170.38 27.1897Z" fill="white"/>
<path d="M181.968 18.94V7.76151H184.441V18.5007C184.441 20.6485 184.828 22.3082 185.556 23.3821C186.283 24.4561 187.398 24.993 188.853 24.993C189.823 24.993 190.744 24.7978 191.665 24.3584C192.586 23.9191 193.362 23.3333 194.089 22.5523C194.768 21.7713 195.35 20.8438 195.689 19.7699V7.76151H198.162V23.8215C198.162 24.1632 198.211 24.4072 198.356 24.5537C198.502 24.7001 198.744 24.7978 199.035 24.8466V26.848C198.744 26.8968 198.502 26.8968 198.356 26.8968C198.162 26.8968 198.017 26.8968 197.871 26.8968C197.386 26.848 196.95 26.6527 196.611 26.311C196.271 25.9693 196.077 25.53 196.029 25.0907L195.98 22.5523C195.156 24.0167 194.041 25.1395 192.586 25.9693C191.18 26.7992 189.629 27.1897 187.98 27.1897C185.992 27.1897 184.489 26.5063 183.471 25.0907C182.453 23.675 181.968 21.6248 181.968 18.94Z" fill="white"/>
<path d="M213.29 9.86053C211.642 9.90935 210.187 10.3975 208.927 11.2762C207.666 12.1548 206.793 13.3752 206.26 14.9372V26.848H203.787V7.81032H206.114V12.3501C206.793 10.9833 207.666 9.90935 208.733 9.0795C209.799 8.24966 210.963 7.76151 212.175 7.66388C212.418 7.61507 212.612 7.61507 212.806 7.61507C212.999 7.61507 213.145 7.61507 213.242 7.66388V9.86053H213.29Z" fill="white"/>
<path d="M216.636 3.66109V0H219.109V3.66109H216.636ZM216.636 26.7992V7.66388H219.109V26.7992H216.636Z" fill="white"/>
<path d="M237.873 32.6569C238.212 32.7057 238.552 32.7057 238.843 32.7057C239.134 32.7057 239.376 32.7057 239.521 32.6569C239.812 32.6081 240.103 32.4617 240.346 32.12C240.637 31.8271 240.927 31.2901 241.267 30.4603C241.655 29.6304 242.14 28.41 242.818 26.7992L234.527 7.71269H237.146L244.128 24.212L250.528 7.71269H253.001L243.158 32.3152C242.964 32.7545 242.721 33.1939 242.382 33.6332C242.043 34.0237 241.606 34.3654 241.121 34.5607C240.637 34.8048 240.006 34.9024 239.279 34.9512C239.085 35 238.843 35 238.6 34.9512C238.358 34.9512 238.115 34.9024 237.776 34.8536V32.6569H237.873Z" fill="white"/>
<path fill-rule="evenodd" clip-rule="evenodd" d="M232.782 26.4575C233.218 26.2622 233.509 26.1158 233.703 26.0669L233.024 24.0656C232.927 24.1632 232.588 24.3096 232.006 24.5537C231.473 24.7978 230.842 24.8954 230.164 24.8954C229.582 24.8954 229.048 24.7001 228.612 24.3584C228.176 24.0167 227.933 23.4798 227.885 22.7964V10.4951H232.248V7.76151H231.23H227.885V1.31799H225.412V7.76151H223.715C223.085 7.71269 222.503 7.41981 222.066 7.07811C222.212 7.46862 222.309 7.85914 222.309 8.29847V9.86053C222.309 10.2022 222.6 10.4951 222.939 10.4951H225.363V23.5286C225.363 24.3096 225.557 24.993 225.897 25.5788C226.236 26.1158 226.77 26.5551 227.351 26.7992C227.982 27.0921 228.661 27.1897 229.339 27.1897C230.018 27.1897 230.648 27.1409 231.23 26.9944C231.861 26.7992 232.345 26.6527 232.782 26.4575Z" fill="white"/>
<path d="M220.078 5.02789C219.447 4.49093 218.575 4.14923 217.702 4.14923H216.247C215.956 4.14923 215.714 3.90516 215.714 3.61227V0.0488129H219.253C219.544 0.0488129 219.787 0.292885 219.787 0.585773V3.51464C219.738 4.0516 219.835 4.53975 220.078 5.02789Z" fill="#00FFFF"/>
<path fill-rule="evenodd" clip-rule="evenodd" d="M6.78805 18.6471H10.9578C12.2185 18.6471 13.2367 19.6723 13.2367 20.9414V26.2622C13.2367 26.6527 13.5276 26.9456 13.9155 26.9456H20.5581C20.6066 26.9456 20.6066 26.8968 20.6066 26.8968V20.2092C20.6066 19.8187 20.3157 19.5258 19.9278 19.5258H14.2549C12.9943 19.5258 11.9761 18.5007 11.9761 17.2315V13.2287C11.9761 12.9358 11.7336 12.6918 11.4427 12.6918H7.51534C5.62438 12.6918 4.12131 11.1297 4.12131 9.27476V7.46862C4.12131 7.0781 3.8304 6.78522 3.44251 6.78522H0.048486C0 6.78522 0 6.83403 0 6.83403V10.251C0 10.6416 0.290916 10.9345 0.678805 10.9345H2.66673C4.55769 10.9345 6.06076 12.4477 6.06076 14.3515V18.1102C6.06076 18.4031 6.30319 18.6471 6.5941 18.6471H6.78805Z" fill="#00FFFF"/>
<path fill-rule="evenodd" clip-rule="evenodd" d="M16.0002 11.9596C16.0002 12.3501 16.2911 12.643 16.679 12.643H20.5579C21.4791 12.6918 22.3034 13.0335 22.9337 13.5704C22.4004 13.0335 22.0125 12.3013 21.867 11.5202V7.41981C21.867 7.02929 21.5761 6.7364 21.1882 6.7364H17.4548C15.5638 6.7364 14.0608 5.17434 14.0608 3.31939V1.51325C14.0608 1.12274 13.7698 0.829849 13.382 0.829849H9.98794C9.93945 0.829849 9.93945 0.878664 9.93945 0.878664V4.29568C9.93945 4.68619 10.2304 4.97908 10.6183 4.97908H12.6062C14.4971 4.97908 16.0002 6.54115 16.0002 8.3961V11.9596Z" fill="#00FFFF"/>
</svg>
