<svg width="60" height="76" viewBox="0 0 60 76" fill="none" xmlns="http://www.w3.org/2000/svg">
<g clip-path="url(#clip0_2161_497)">
<path d="M60 60L0 27.8" stroke="#DCDADF" stroke-miterlimit="10"/>
<path d="M9.6 14.7C12.4167 14.7 14.7 12.4167 14.7 9.6C14.7 6.78335 12.4167 4.5 9.6 4.5C6.78335 4.5 4.5 6.78335 4.5 9.6C4.5 12.4167 6.78335 14.7 9.6 14.7Z" fill="#FFCDD8"/>
<path d="M50.0004 55.1C52.817 55.1 55.1004 52.8167 55.1004 50C55.1004 47.1834 52.817 44.9 50.0004 44.9C47.1837 44.9 44.9004 47.1834 44.9004 50C44.9004 52.8167 47.1837 55.1 50.0004 55.1Z" fill="#FFCDD8"/>
<path d="M9.6 38.1C12.4167 38.1 14.7 35.8167 14.7 33C14.7 30.1834 12.4167 27.9 9.6 27.9C6.78335 27.9 4.5 30.1834 4.5 33C4.5 35.8167 6.78335 38.1 9.6 38.1Z" fill="#FFF5CC"/>
<path d="M42.5004 24.3C45.317 24.3 47.6004 22.0166 47.6004 19.2C47.6004 16.3833 45.317 14.1 42.5004 14.1C39.6837 14.1 37.4004 16.3833 37.4004 19.2C37.4004 22.0166 39.6837 24.3 42.5004 24.3Z" fill="#FFE4CC"/>
<path d="M0 0L60 60" stroke="#DCDADF" stroke-miterlimit="10"/>
<path d="M0 51.9L45.7 0" stroke="#DCDADF" stroke-miterlimit="10"/>
<path d="M14.7002 60L45.7002 0" stroke="#DCDADF" stroke-miterlimit="10"/>
<path d="M59.9996 33.3L18.5996 0" stroke="#DCDADF" stroke-miterlimit="10"/>
<path d="M33.9004 60L60.0004 16.6" stroke="#DCDADF" stroke-miterlimit="10"/>
<path d="M9.60039 30.7999C10.8004 30.7999 11.8004 31.7999 11.8004 32.9999C11.8004 34.1999 10.8004 35.1999 9.60039 35.1999C8.40039 35.1999 7.40039 34.1999 7.40039 32.9999C7.40039 31.7999 8.40039 30.7999 9.60039 30.7999Z" fill="#FFCC00"/>
<path d="M17.8006 51.7999C19.0006 51.7999 20.0006 52.7999 20.0006 53.9999C20.0006 55.1999 19.0006 56.1999 17.8006 56.1999C16.6006 56.1999 15.6006 55.1999 15.6006 53.9999C15.6006 52.7999 16.6006 51.7999 17.8006 51.7999Z" fill="#DCDADF"/>
<path d="M50.0008 47.7999C51.2008 47.7999 52.2008 48.7999 52.2008 49.9999C52.2008 51.1999 51.2008 52.1999 50.0008 52.1999C48.8008 52.1999 47.8008 51.1999 47.8008 49.9999C47.8008 48.7999 48.8008 47.7999 50.0008 47.7999Z" fill="#FF073A"/>
<path d="M42.5008 17.1C43.7008 17.1 44.7008 18.1 44.7008 19.3C44.7008 20.5 43.7008 21.5 42.5008 21.5C41.3008 21.5 40.3008 20.5 40.3008 19.3C40.3008 18.1 41.3008 17.1 42.5008 17.1Z" fill="#FF7700"/>
<path d="M35.8006 33.6C37.0006 33.6 38.0006 34.6 38.0006 35.8C38.0006 37 37.0006 38 35.8006 38C34.6006 38 33.6006 37 33.6006 35.8C33.6006 34.6 34.6006 33.6 35.8006 33.6Z" fill="#DCDADF"/>
<path d="M50.0008 31.1C51.2008 31.1 52.2008 32.1 52.2008 33.3C52.2008 34.5 51.2008 35.5 50.0008 35.5C48.8008 35.5 47.8008 34.5 47.8008 33.3C47.8008 32.1 48.8008 31.1 50.0008 31.1Z" fill="#DCDADF"/>
<path d="M27.8006 5.19995C29.0006 5.19995 30.0006 6.19995 30.0006 7.39995C30.0006 8.59995 29.0006 9.59995 27.8006 9.59995C26.6006 9.59995 25.6006 8.59995 25.6006 7.39995C25.6006 6.19995 26.6006 5.19995 27.8006 5.19995Z" fill="#DCDADF"/>
<path d="M9.60039 7.3999C10.8004 7.3999 11.8004 8.3999 11.8004 9.5999C11.8004 10.7999 10.8004 11.7999 9.60039 11.7999C8.40039 11.7999 7.40039 10.7999 7.40039 9.5999C7.40039 8.3999 8.40039 7.3999 9.60039 7.3999Z" fill="#FF073A"/>
</g>
<defs>
<clipPath id="clip0_2161_497">
<rect width="60" height="60" fill="white"/>
</clipPath>
</defs>
</svg>
