<svg width="60" height="76" viewBox="0 0 60 76" fill="none" xmlns="http://www.w3.org/2000/svg">
<path d="M40.9002 13.3C38.1002 13.3 35.7002 11 35.7002 8.19998C35.7002 5.39998 38.0002 3.09998 40.9002 3.09998C43.8002 3.09998 46.0002 5.39998 46.0002 8.19998C46.0002 11 43.7002 13.3 40.9002 13.3Z" fill="#FFF5CC"/>
<path d="M51.8998 13.2C54.7165 13.2 56.9998 10.9167 56.9998 8.1C56.9998 5.28335 54.7165 3 51.8998 3C49.0832 3 46.7998 5.28335 46.7998 8.1C46.7998 10.9167 49.0832 13.2 51.8998 13.2Z" fill="#FFE4CC"/>
<path d="M19.0996 34.6C10.5996 34.6 3.59961 27.6 3.59961 19.1C3.59961 10.6 10.4996 3.59998 19.0996 3.59998C27.6996 3.59998 34.5996 10.6 34.5996 19.1C34.5996 27.6 27.5996 34.6 19.0996 34.6Z" fill="#FFCDD8" stroke="#FFCDD8" stroke-miterlimit="10"/>
<path d="M40.9002 24.2C38.1002 24.2 35.7002 21.9 35.7002 19C35.7002 16.1 38.0002 13.9 40.9002 13.9C43.8002 13.9 46.0002 16.2 46.0002 19C46.0002 21.8 43.7002 24.2 40.9002 24.2Z" fill="#F5F5F7"/>
<path d="M51.8998 24.2C49.0998 24.2 46.7998 21.9 46.7998 19C46.7998 16.1 49.0998 13.9 51.8998 13.9C54.6998 13.9 56.9998 16.2 56.9998 19C56.9998 21.8 54.6998 24.2 51.8998 24.2Z" fill="#FFE4CC"/>
<path d="M40.9002 35.1C38.1002 35.1 35.7002 32.8 35.7002 30C35.7002 27.2 38.0002 24.8 40.9002 24.8C43.8002 24.8 46.0002 27.1 46.0002 30C46.0002 32.9 43.7002 35.1 40.9002 35.1Z" fill="#F5F5F7"/>
<path d="M51.8998 35.1C49.0998 35.1 46.7998 32.8 46.7998 30C46.7998 27.2 49.0998 24.8 51.8998 24.8C54.6998 24.8 56.9998 27.1 56.9998 30C56.9998 32.9 54.6998 35.1 51.8998 35.1Z" fill="#F5F5F7"/>
<path d="M8.2 46.1C5.4 46.1 3 43.8 3 41C3 38.2 5.3 35.9 8.2 35.9C11.1 35.9 13.3 38.2 13.3 41C13.3 43.8 11 46.1 8.2 46.1Z" fill="#F5F5F7"/>
<path d="M19.1 46C21.9167 46 24.2 43.7167 24.2 40.9001C24.2 38.0834 21.9167 35.8 19.1 35.8C16.2833 35.8 14 38.0834 14 40.9001C14 43.7167 16.2833 46 19.1 46Z" fill="#F5F5F7"/>
<path d="M30.0004 46.1C27.2004 46.1 24.9004 43.8 24.9004 41C24.9004 38.2 27.2004 35.9 30.0004 35.9C32.8004 35.9 35.2004 38.2 35.2004 41C35.2004 43.8 32.9004 46.1 30.0004 46.1Z" fill="#F5F5F7"/>
<path d="M40.9002 46.1C38.1002 46.1 35.7002 43.8 35.7002 41C35.7002 38.2 38.0002 35.9 40.9002 35.9C43.8002 35.9 46.0002 38.2 46.0002 41C46.0002 43.8 43.7002 46.1 40.9002 46.1Z" fill="#FFE4CC"/>
<path d="M51.8998 46C54.7165 46 56.9998 43.7167 56.9998 40.9001C56.9998 38.0834 54.7165 35.8 51.8998 35.8C49.0832 35.8 46.7998 38.0834 46.7998 40.9001C46.7998 43.7167 49.0832 46 51.8998 46Z" fill="#F5F5F7"/>
<path d="M8.2 57C5.4 57 3 54.6999 3 51.7999C3 48.8999 5.3 46.7 8.2 46.7C11.1 46.7 13.3 48.9999 13.3 51.7999C13.3 54.5999 11 57 8.2 57Z" fill="#F5F5F7"/>
<path d="M19.1 57C16.3 57 14 54.6999 14 51.7999C14 48.8999 16.3 46.7 19.1 46.7C21.9 46.7 24.2 48.9999 24.2 51.7999C24.2 54.5999 21.9 57 19.1 57Z" fill="#FFF5CC"/>
<path d="M30.0004 57C27.2004 57 24.9004 54.6999 24.9004 51.7999C24.9004 48.8999 27.2004 46.7 30.0004 46.7C32.8004 46.7 35.2004 48.9999 35.2004 51.7999C35.2004 54.5999 32.9004 57 30.0004 57Z" fill="#F5F5F7"/>
<path d="M40.9002 57C38.1002 57 35.7002 54.6999 35.7002 51.7999C35.7002 48.8999 38.0002 46.7 40.9002 46.7C43.8002 46.7 46.0002 48.9999 46.0002 51.7999C46.0002 54.5999 43.7002 57 40.9002 57Z" fill="#F5F5F7"/>
<path d="M51.8998 57C49.0998 57 46.7998 54.6999 46.7998 51.7999C46.7998 48.8999 49.0998 46.7 51.8998 46.7C54.6998 46.7 56.9998 48.9999 56.9998 51.7999C56.9998 54.5999 54.6998 57 51.8998 57Z" fill="#F5F5F7"/>
<path d="M40.9002 10.3C39.7002 10.3 38.7002 9.29998 38.7002 8.19998C38.7002 7.09998 39.7002 6.09998 40.9002 6.09998C42.1002 6.09998 43.0002 7.09998 43.0002 8.19998C43.0002 9.29998 42.0002 10.3 40.9002 10.3Z" fill="#FFCC00"/>
<path d="M51.8998 10.2C53.0596 10.2 53.9998 9.2598 53.9998 8.1C53.9998 6.9402 53.0596 6 51.8998 6C50.74 6 49.7998 6.9402 49.7998 8.1C49.7998 9.2598 50.74 10.2 51.8998 10.2Z" fill="#FF7700"/>
<path d="M40.9002 21.2C39.7002 21.2 38.7002 20.2 38.7002 19C38.7002 17.8 39.7002 16.9 40.9002 16.9C42.1002 16.9 43.0002 17.9 43.0002 19C43.0002 20.1 42.0002 21.2 40.9002 21.2Z" fill="#6B6D83"/>
<path d="M51.8998 21.2C50.6998 21.2 49.7998 20.2 49.7998 19C49.7998 17.8 50.7998 16.9 51.8998 16.9C52.9998 16.9 53.9998 17.9 53.9998 19C53.9998 20.1 52.9998 21.2 51.8998 21.2Z" fill="#FF7700"/>
<path d="M19.1 21.2C17.9 21.2 17 20.2 17 19.1C17 18 18 16.9 19.1 16.9C20.2 16.9 21.2 17.9 21.2 19.1C21.2 20.3 20.2 21.2 19.1 21.2Z" fill="#080C31"/>
<path d="M40.9002 32.1C39.7002 32.1 38.7002 31.1 38.7002 30C38.7002 28.9 39.7002 27.8 40.9002 27.8C42.1002 27.8 43.0002 28.8 43.0002 30C43.0002 31.2 42.0002 32.1 40.9002 32.1Z" fill="#CECED6"/>
<path d="M51.8998 32.1C50.6998 32.1 49.7998 31.1 49.7998 30C49.7998 28.9 50.7998 27.8 51.8998 27.8C52.9998 27.8 53.9998 28.8 53.9998 30C53.9998 31.2 52.9998 32.1 51.8998 32.1Z" fill="#393D5A"/>
<path d="M8.2 43.1C7 43.1 6 42.1 6 41C6 39.9 7 38.9 8.2 38.9C9.4 38.9 10.3 39.9 10.3 41C10.3 42.1 9.3 43.1 8.2 43.1Z" fill="#6B6D83"/>
<path d="M19.1 43C20.2598 43 21.2 42.0598 21.2 40.9001C21.2 39.7403 20.2598 38.8 19.1 38.8C17.9402 38.8 17 39.7403 17 40.9001C17 42.0598 17.9402 43 19.1 43Z" fill="#E2E2E6"/>
<path d="M30.0004 43.1C28.8004 43.1 27.9004 42.1 27.9004 41C27.9004 39.9 28.9004 38.9 30.0004 38.9C31.1004 38.9 32.2004 39.9 32.2004 41C32.2004 42.1 31.2004 43.1 30.0004 43.1Z" fill="#CECED6"/>
<path d="M40.9002 43.1C39.7002 43.1 38.7002 42.1 38.7002 41C38.7002 39.9 39.7002 38.9 40.9002 38.9C42.1002 38.9 43.0002 39.9 43.0002 41C43.0002 42.1 42.0002 43.1 40.9002 43.1Z" fill="#FF7700"/>
<path d="M51.8998 43C53.0596 43 53.9998 42.0598 53.9998 40.9001C53.9998 39.7403 53.0596 38.8 51.8998 38.8C50.74 38.8 49.7998 39.7403 49.7998 40.9001C49.7998 42.0598 50.74 43 51.8998 43Z" fill="#6B6D83"/>
<path d="M8.2 54C7 54 6 52.9999 6 51.7999C6 50.5999 7 49.7 8.2 49.7C9.4 49.7 10.3 50.6999 10.3 51.7999C10.3 52.8999 9.3 54 8.2 54Z" fill="#E2E2E6"/>
<path d="M19.1 54C17.9 54 17 52.9999 17 51.7999C17 50.5999 18 49.7 19.1 49.7C20.2 49.7 21.2 50.6999 21.2 51.7999C21.2 52.8999 20.2 54 19.1 54Z" fill="#FFCC00"/>
<path d="M30.0004 54C28.8004 54 27.9004 52.9999 27.9004 51.7999C27.9004 50.5999 28.9004 49.7 30.0004 49.7C31.1004 49.7 32.2004 50.6999 32.2004 51.7999C32.2004 52.8999 31.2004 54 30.0004 54Z" fill="#E2E2E6"/>
<path d="M40.9002 54C39.7002 54 38.7002 52.9999 38.7002 51.7999C38.7002 50.5999 39.7002 49.7 40.9002 49.7C42.1002 49.7 43.0002 50.6999 43.0002 51.7999C43.0002 52.8999 42.0002 54 40.9002 54Z" fill="#E2E2E6"/>
<path d="M51.8998 54C50.6998 54 49.7998 52.9999 49.7998 51.7999C49.7998 50.5999 50.7998 49.7 51.8998 49.7C52.9998 49.7 53.9998 50.6999 53.9998 51.7999C53.9998 52.8999 52.9998 54 51.8998 54Z" fill="#9C9EAD"/>
</svg>
