<svg width="40" height="40" viewBox="0 0 40 40" fill="none" xmlns="http://www.w3.org/2000/svg">
<path d="M20 40C31.0457 40 40 31.0457 40 20C40 8.9543 31.0457 0 20 0C8.9543 0 0 8.9543 0 20C0 31.0457 8.9543 40 20 40Z" fill="#968FA0"/>
<path d="M14.8998 15.5H10.2998V29.5H14.8998V15.5Z" fill="#080C31"/>
<path d="M12.8003 13.7001H12.6003C12.4003 13.7001 12.3003 13.7001 12.3003 13.7001C10.9003 13.5001 10.0003 12.5001 10.1003 11.1001C10.3003 9.70014 11.3003 8.80014 12.7003 8.90014C12.9003 8.90014 13.0003 8.90014 13.2003 8.90014C14.6003 9.10014 15.5003 10.1001 15.4003 11.5001C15.1003 12.6001 14.0003 13.7001 12.8003 13.7001Z" fill="#080C31"/>
<path d="M31.7002 29.3996H27.1002V21.9996C27.1002 20.1996 26.5002 18.7996 24.8002 18.7996C23.7002 18.7996 22.8002 19.5996 22.5002 20.4996C22.3002 20.7996 22.3002 21.2996 22.3002 21.5996V29.3996H17.7002C17.7002 29.3996 17.7002 16.7996 17.7002 15.3996H22.3002V17.3996C23.1002 15.9996 24.6002 15.0996 26.3002 15.0996H26.5002C29.4002 15.0996 31.9002 17.0996 31.9002 21.3996V29.3996H31.7002Z" fill="#080C31"/>
</svg>
