<svg width="495" height="527" viewBox="0 0 495 527" fill="none" xmlns="http://www.w3.org/2000/svg">
<rect width="486" height="527" rx="12" fill="#080C31"/>
<path d="M25.28 40V28.64H29.056C30.8693 28.64 32.2613 29.136 33.232 30.128C34.2133 31.1093 34.704 32.512 34.704 34.336C34.704 36.1493 34.224 37.5467 33.264 38.528C32.304 39.5093 30.9333 40 29.152 40H25.28ZM27.36 38.192H29.056C30.24 38.192 31.12 37.872 31.696 37.232C32.272 36.592 32.56 35.6267 32.56 34.336C32.56 33.024 32.272 32.048 31.696 31.408C31.12 30.768 30.24 30.448 29.056 30.448H27.36V38.192ZM36.2606 40V31.456H38.3086V40H36.2606ZM36.2286 30.32V28.496H38.3566V30.32H36.2286ZM43.8733 40.192C43.0306 40.192 42.3213 40.0693 41.7453 39.824C41.1799 39.5787 40.7426 39.2373 40.4333 38.8C40.1239 38.3627 39.9479 37.8667 39.9053 37.312L42.0013 37.216C42.0759 37.664 42.2626 38.0107 42.5613 38.256C42.8599 38.5013 43.3026 38.624 43.8893 38.624C44.3693 38.624 44.7426 38.5493 45.0093 38.4C45.2866 38.24 45.4253 37.9947 45.4253 37.664C45.4253 37.472 45.3773 37.312 45.2813 37.184C45.1853 37.056 45.0039 36.944 44.7373 36.848C44.4706 36.752 44.0759 36.656 43.5533 36.56C42.6786 36.4107 41.9906 36.2293 41.4893 36.016C40.9879 35.792 40.6306 35.5147 40.4173 35.184C40.2146 34.8533 40.1133 34.4427 40.1133 33.952C40.1133 33.152 40.4173 32.5067 41.0253 32.016C41.6439 31.5147 42.5453 31.264 43.7293 31.264C44.4973 31.264 45.1426 31.392 45.6653 31.648C46.1879 31.8933 46.5933 32.2347 46.8813 32.672C47.1799 33.0987 47.3666 33.5893 47.4413 34.144L45.3773 34.24C45.3239 33.952 45.2279 33.7013 45.0893 33.488C44.9506 33.2747 44.7639 33.1147 44.5293 33.008C44.2946 32.8907 44.0173 32.832 43.6973 32.832C43.2173 32.832 42.8546 32.928 42.6093 33.12C42.3639 33.312 42.2413 33.568 42.2413 33.888C42.2413 34.112 42.2946 34.2987 42.4013 34.448C42.5186 34.5973 42.7053 34.72 42.9613 34.816C43.2173 34.9013 43.5586 34.9813 43.9852 35.056C44.8813 35.1947 45.5853 35.376 46.0973 35.6C46.6199 35.8133 46.9879 36.0907 47.2013 36.432C47.4253 36.7627 47.5373 37.1627 47.5373 37.632C47.5373 38.176 47.3826 38.64 47.0733 39.024C46.7746 39.408 46.3479 39.7013 45.7933 39.904C45.2493 40.096 44.6093 40.192 43.8733 40.192ZM52.8476 40.192C51.9943 40.192 51.253 40.0107 50.6236 39.648C49.9943 39.2747 49.5036 38.752 49.1516 38.08C48.8103 37.408 48.6396 36.624 48.6396 35.728C48.6396 34.832 48.8103 34.0533 49.1516 33.392C49.5036 32.72 49.9943 32.1973 50.6236 31.824C51.253 31.4507 51.9943 31.264 52.8476 31.264C53.573 31.264 54.2183 31.392 54.7836 31.648C55.349 31.904 55.8076 32.272 56.1596 32.752C56.5223 33.2213 56.7463 33.7973 56.8316 34.48L54.7196 34.592C54.6343 34.048 54.421 33.6373 54.0796 33.36C53.749 33.072 53.3383 32.928 52.8476 32.928C52.1863 32.928 51.6743 33.1787 51.3116 33.68C50.949 34.1707 50.7676 34.8533 50.7676 35.728C50.7676 36.6133 50.949 37.3013 51.3116 37.792C51.6743 38.2827 52.1863 38.528 52.8476 38.528C53.349 38.528 53.765 38.384 54.0956 38.096C54.437 37.808 54.645 37.36 54.7196 36.752L56.8316 36.848C56.7463 37.5307 56.5276 38.1227 56.1756 38.624C55.8236 39.1253 55.365 39.5147 54.7996 39.792C54.2343 40.0587 53.5836 40.192 52.8476 40.192ZM61.9726 40.192C61.13 40.192 60.3886 40.0107 59.7486 39.648C59.1193 39.2747 58.6286 38.752 58.2766 38.08C57.9353 37.408 57.7646 36.624 57.7646 35.728C57.7646 34.8213 57.9353 34.0373 58.2766 33.376C58.6286 32.704 59.1193 32.1867 59.7486 31.824C60.3886 31.4507 61.13 31.264 61.9726 31.264C62.8153 31.264 63.5513 31.4507 64.1806 31.824C64.81 32.1867 65.2953 32.704 65.6366 33.376C65.9886 34.0373 66.1646 34.8213 66.1646 35.728C66.1646 36.624 65.9886 37.408 65.6366 38.08C65.2953 38.752 64.81 39.2747 64.1806 39.648C63.5513 40.0107 62.8153 40.192 61.9726 40.192ZM61.9726 38.528C62.634 38.528 63.1406 38.2827 63.4926 37.792C63.8553 37.3013 64.0366 36.6133 64.0366 35.728C64.0366 34.8533 63.8553 34.1707 63.4926 33.68C63.1406 33.1787 62.634 32.928 61.9726 32.928C61.3113 32.928 60.7993 33.1787 60.4366 33.68C60.074 34.1707 59.8926 34.8533 59.8926 35.728C59.8926 36.6133 60.074 37.3013 60.4366 37.792C60.7993 38.2827 61.3113 38.528 61.9726 38.528ZM69.7841 40L66.6641 31.456H68.8241L71.0001 37.936L73.1761 31.456H75.3361L72.2161 40H69.7841ZM80.0348 40.192C79.1814 40.192 78.4401 40.0107 77.8108 39.648C77.1814 39.2747 76.6961 38.752 76.3548 38.08C76.0134 37.408 75.8428 36.624 75.8428 35.728C75.8428 34.832 76.0134 34.0533 76.3548 33.392C76.6961 32.72 77.1761 32.1973 77.7948 31.824C78.4241 31.4507 79.1548 31.264 79.9868 31.264C80.7974 31.264 81.5068 31.4453 82.1148 31.808C82.7334 32.1707 83.2081 32.6933 83.5388 33.376C83.8694 34.0587 84.0347 34.88 84.0347 35.84V36.304H77.9708C78.0134 37.0507 78.2161 37.616 78.5788 38C78.9521 38.3733 79.4428 38.56 80.0508 38.56C80.5094 38.56 80.8881 38.4587 81.1868 38.256C81.4961 38.0427 81.7094 37.7493 81.8268 37.376L83.9228 37.504C83.6881 38.336 83.2241 38.992 82.5308 39.472C81.8481 39.952 81.0161 40.192 80.0348 40.192ZM77.9708 34.928H81.9228C81.8801 34.2347 81.6828 33.7227 81.3308 33.392C80.9788 33.0507 80.5308 32.88 79.9868 32.88C79.4428 32.88 78.9894 33.056 78.6268 33.408C78.2748 33.76 78.0561 34.2667 77.9708 34.928ZM85.6356 40V31.456H87.5556L87.6356 33.824L87.4596 33.792C87.5876 32.9707 87.8276 32.3787 88.1796 32.016C88.5423 31.6427 89.033 31.456 89.6516 31.456H90.4356V33.216H89.6356C89.1983 33.216 88.8356 33.28 88.5476 33.408C88.2596 33.536 88.041 33.7387 87.8916 34.016C87.753 34.2827 87.6836 34.6347 87.6836 35.072V40H85.6356ZM92.4155 42.4V40.816H93.5035C93.7808 40.816 93.9835 40.7733 94.1115 40.688C94.2502 40.6027 94.3568 40.4587 94.4315 40.256L94.6715 39.664H94.0795L91.0235 31.456H93.1515L95.2955 37.744L97.3435 31.456H99.4715L96.1275 40.896C95.9355 41.4293 95.6635 41.8133 95.3115 42.048C94.9702 42.2827 94.4902 42.4 93.8715 42.4H92.4155ZM108.138 40C107.284 40 106.655 39.8027 106.25 39.408C105.855 39.0133 105.658 38.3947 105.658 37.552V29.456H107.706V37.36C107.706 37.7547 107.791 38.032 107.962 38.192C108.132 38.3413 108.399 38.416 108.762 38.416H109.962V40H108.138ZM104.314 33.04V31.456H109.962V33.04H104.314ZM115.035 40.192C114.192 40.192 113.451 40.0107 112.811 39.648C112.182 39.2747 111.691 38.752 111.339 38.08C110.998 37.408 110.827 36.624 110.827 35.728C110.827 34.8213 110.998 34.0373 111.339 33.376C111.691 32.704 112.182 32.1867 112.811 31.824C113.451 31.4507 114.192 31.264 115.035 31.264C115.878 31.264 116.614 31.4507 117.243 31.824C117.872 32.1867 118.358 32.704 118.699 33.376C119.051 34.0373 119.227 34.8213 119.227 35.728C119.227 36.624 119.051 37.408 118.699 38.08C118.358 38.752 117.872 39.2747 117.243 39.648C116.614 40.0107 115.878 40.192 115.035 40.192ZM115.035 38.528C115.696 38.528 116.203 38.2827 116.555 37.792C116.918 37.3013 117.099 36.6133 117.099 35.728C117.099 34.8533 116.918 34.1707 116.555 33.68C116.203 33.1787 115.696 32.928 115.035 32.928C114.374 32.928 113.862 33.1787 113.499 33.68C113.136 34.1707 112.955 34.8533 112.955 35.728C112.955 36.6133 113.136 37.3013 113.499 37.792C113.862 38.2827 114.374 38.528 115.035 38.528ZM124.905 40V28.64H129.657C130.478 28.64 131.188 28.7787 131.785 29.056C132.382 29.3333 132.846 29.728 133.177 30.24C133.508 30.752 133.673 31.3547 133.673 32.048C133.673 32.5707 133.561 33.0347 133.337 33.44C133.113 33.8453 132.809 34.1707 132.425 34.416C132.052 34.6613 131.636 34.8107 131.177 34.864L131.097 34.704C131.833 34.704 132.398 34.8693 132.793 35.2C133.198 35.5307 133.428 36.0373 133.481 36.72L133.769 40H131.657L131.417 37.024C131.385 36.576 131.241 36.2453 130.985 36.032C130.729 35.8187 130.302 35.712 129.705 35.712H126.985V40H124.905ZM126.985 33.888H129.529C130.158 33.888 130.649 33.7387 131.001 33.44C131.353 33.1413 131.529 32.72 131.529 32.176C131.529 31.6213 131.348 31.1947 130.985 30.896C130.633 30.5973 130.116 30.448 129.433 30.448H126.985V33.888ZM135.776 40V31.456H137.824V40H135.776ZM135.744 30.32V28.496H137.872V30.32H135.744ZM143.389 40.192C142.546 40.192 141.837 40.0693 141.261 39.824C140.696 39.5787 140.258 39.2373 139.949 38.8C139.64 38.3627 139.464 37.8667 139.421 37.312L141.517 37.216C141.592 37.664 141.778 38.0107 142.077 38.256C142.376 38.5013 142.818 38.624 143.405 38.624C143.885 38.624 144.258 38.5493 144.525 38.4C144.802 38.24 144.941 37.9947 144.941 37.664C144.941 37.472 144.893 37.312 144.797 37.184C144.701 37.056 144.52 36.944 144.253 36.848C143.986 36.752 143.592 36.656 143.069 36.56C142.194 36.4107 141.506 36.2293 141.005 36.016C140.504 35.792 140.146 35.5147 139.933 35.184C139.73 34.8533 139.629 34.4427 139.629 33.952C139.629 33.152 139.933 32.5067 140.541 32.016C141.16 31.5147 142.061 31.264 143.245 31.264C144.013 31.264 144.658 31.392 145.181 31.648C145.704 31.8933 146.109 32.2347 146.397 32.672C146.696 33.0987 146.882 33.5893 146.957 34.144L144.893 34.24C144.84 33.952 144.744 33.7013 144.605 33.488C144.466 33.2747 144.28 33.1147 144.045 33.008C143.81 32.8907 143.533 32.832 143.213 32.832C142.733 32.832 142.37 32.928 142.125 33.12C141.88 33.312 141.757 33.568 141.757 33.888C141.757 34.112 141.81 34.2987 141.917 34.448C142.034 34.5973 142.221 34.72 142.477 34.816C142.733 34.9013 143.074 34.9813 143.501 35.056C144.397 35.1947 145.101 35.376 145.613 35.6C146.136 35.8133 146.504 36.0907 146.717 36.432C146.941 36.7627 147.053 37.1627 147.053 37.632C147.053 38.176 146.898 38.64 146.589 39.024C146.29 39.408 145.864 39.7013 145.309 39.904C144.765 40.096 144.125 40.192 143.389 40.192ZM148.651 40V28.64H150.699V35.312L154.203 31.456H156.731L153.387 35.008L156.843 40H154.539L152.043 36.224L150.699 37.648V40H148.651ZM166.223 40.256C165.402 40.256 164.693 40.08 164.095 39.728C163.498 39.3653 163.039 38.8693 162.719 38.24C162.41 37.6 162.25 36.8747 162.239 36.064L164.335 35.952C164.357 36.784 164.527 37.408 164.847 37.824C165.178 38.24 165.637 38.448 166.223 38.448C166.821 38.448 167.285 38.24 167.615 37.824C167.946 37.3973 168.111 36.7733 168.111 35.952V28.64H170.191V35.952C170.191 36.8267 170.026 37.5893 169.695 38.24C169.365 38.88 168.901 39.376 168.303 39.728C167.717 40.08 167.023 40.256 166.223 40.256ZM176.066 40.192C175.224 40.192 174.482 40.0107 173.842 39.648C173.213 39.2747 172.722 38.752 172.37 38.08C172.029 37.408 171.858 36.624 171.858 35.728C171.858 34.8213 172.029 34.0373 172.37 33.376C172.722 32.704 173.213 32.1867 173.842 31.824C174.482 31.4507 175.224 31.264 176.066 31.264C176.909 31.264 177.645 31.4507 178.274 31.824C178.904 32.1867 179.389 32.704 179.73 33.376C180.082 34.0373 180.258 34.8213 180.258 35.728C180.258 36.624 180.082 37.408 179.73 38.08C179.389 38.752 178.904 39.2747 178.274 39.648C177.645 40.0107 176.909 40.192 176.066 40.192ZM176.066 38.528C176.728 38.528 177.234 38.2827 177.586 37.792C177.949 37.3013 178.13 36.6133 178.13 35.728C178.13 34.8533 177.949 34.1707 177.586 33.68C177.234 33.1787 176.728 32.928 176.066 32.928C175.405 32.928 174.893 33.1787 174.53 33.68C174.168 34.1707 173.986 34.8533 173.986 35.728C173.986 36.6133 174.168 37.3013 174.53 37.792C174.893 38.2827 175.405 38.528 176.066 38.528ZM184.655 40.192C183.791 40.192 183.103 39.9093 182.591 39.344C182.089 38.768 181.839 37.9733 181.839 36.96V31.456H183.887V36.448C183.887 37.1627 184.004 37.6907 184.239 38.032C184.484 38.3627 184.852 38.528 185.343 38.528C185.897 38.528 186.324 38.3467 186.623 37.984C186.932 37.6107 187.087 37.072 187.087 36.368V31.456H189.135V40H187.263L187.215 37.648L187.471 37.728C187.343 38.5387 187.039 39.152 186.559 39.568C186.079 39.984 185.444 40.192 184.655 40.192ZM191.386 40V31.456H193.306L193.386 33.824L193.21 33.792C193.338 32.9707 193.578 32.3787 193.93 32.016C194.292 31.6427 194.783 31.456 195.402 31.456H196.186V33.216H195.386C194.948 33.216 194.586 33.28 194.298 33.408C194.01 33.536 193.791 33.7387 193.642 34.016C193.503 34.2827 193.434 34.6347 193.434 35.072V40H191.386ZM197.417 40V31.456H199.273L199.353 33.856L199.113 33.76C199.198 33.1627 199.374 32.6827 199.641 32.32C199.908 31.9573 200.233 31.6907 200.617 31.52C201.001 31.3493 201.422 31.264 201.881 31.264C202.51 31.264 203.038 31.4027 203.465 31.68C203.902 31.9573 204.233 32.3413 204.457 32.832C204.681 33.312 204.793 33.872 204.793 34.512V40H202.745V35.168C202.745 34.688 202.697 34.2827 202.601 33.952C202.505 33.6213 202.345 33.3707 202.121 33.2C201.908 33.0187 201.62 32.928 201.257 32.928C200.713 32.928 200.276 33.12 199.945 33.504C199.625 33.888 199.465 34.4427 199.465 35.168V40H197.417ZM210.519 40.192C209.666 40.192 208.924 40.0107 208.295 39.648C207.666 39.2747 207.18 38.752 206.839 38.08C206.498 37.408 206.327 36.624 206.327 35.728C206.327 34.832 206.498 34.0533 206.839 33.392C207.18 32.72 207.66 32.1973 208.279 31.824C208.908 31.4507 209.639 31.264 210.471 31.264C211.282 31.264 211.991 31.4453 212.599 31.808C213.218 32.1707 213.692 32.6933 214.023 33.376C214.354 34.0587 214.519 34.88 214.519 35.84V36.304H208.455C208.498 37.0507 208.7 37.616 209.063 38C209.436 38.3733 209.927 38.56 210.535 38.56C210.994 38.56 211.372 38.4587 211.671 38.256C211.98 38.0427 212.194 37.7493 212.311 37.376L214.407 37.504C214.172 38.336 213.708 38.992 213.015 39.472C212.332 39.952 211.5 40.192 210.519 40.192ZM208.455 34.928H212.407C212.364 34.2347 212.167 33.7227 211.815 33.392C211.463 33.0507 211.015 32.88 210.471 32.88C209.927 32.88 209.474 33.056 209.111 33.408C208.759 33.76 208.54 34.2667 208.455 34.928ZM216.431 42.4V40.816H217.519C217.796 40.816 217.999 40.7733 218.127 40.688C218.266 40.6027 218.372 40.4587 218.447 40.256L218.687 39.664H218.095L215.039 31.456H217.167L219.311 37.744L221.359 31.456H223.487L220.143 40.896C219.951 41.4293 219.679 41.8133 219.327 42.048C218.986 42.2827 218.506 42.4 217.887 42.4H216.431Z" fill="#968FA0"/>
<path d="M24.1803 171.817V73.1831C24.1803 70.9815 25.6229 69 27.6064 69H44.3764C45.9993 69 47.4418 70.321 47.6222 72.3025L62.9495 171.156C63.3102 173.578 61.6873 176 59.7037 176H27.4261C25.6229 176 24 174.239 24 171.817H24.1803Z" fill="#FE3639"/>
<mask id="path-4-inside-1_2086_49405" fill="white">
<path d="M87 69H462V176H87V69Z"/>
</mask>
<path d="M462 176V175H87V176V177H462V176Z" fill="#381DA8" mask="url(#path-4-inside-1_2086_49405)"/>
<path d="M88.28 85V73.64H90.36V79.064L89.4 78.376H96.088L95.144 79.064V73.64H97.224V85H95.144V79.512L96.088 80.184H89.4L90.36 79.512V85H88.28ZM99.37 85V76.456H101.418V85H99.37ZM99.338 75.32V73.496H101.466V75.32H99.338ZM107.159 87.592C106.412 87.592 105.772 87.4907 105.239 87.288C104.705 87.0853 104.273 86.7973 103.943 86.424C103.623 86.0613 103.399 85.64 103.271 85.16L105.383 85.016C105.489 85.336 105.671 85.5867 105.927 85.768C106.193 85.9493 106.604 86.04 107.159 86.04C107.788 86.04 108.273 85.896 108.615 85.608C108.956 85.3307 109.127 84.8933 109.127 84.296V83.208C108.924 83.624 108.599 83.96 108.151 84.216C107.703 84.4613 107.201 84.584 106.647 84.584C105.943 84.584 105.313 84.4133 104.759 84.072C104.215 83.72 103.788 83.2347 103.479 82.616C103.169 81.9867 103.015 81.2613 103.015 80.44C103.015 79.6187 103.164 78.8987 103.463 78.28C103.772 77.6507 104.199 77.16 104.743 76.808C105.287 76.4453 105.911 76.264 106.615 76.264C107.233 76.264 107.767 76.4027 108.215 76.68C108.663 76.9573 108.988 77.3253 109.191 77.784V76.456H111.191V84.248C111.191 84.9733 111.02 85.5867 110.679 86.088C110.348 86.5893 109.879 86.9627 109.271 87.208C108.673 87.464 107.969 87.592 107.159 87.592ZM107.127 82.984C107.735 82.984 108.22 82.76 108.583 82.312C108.945 81.8533 109.132 81.224 109.143 80.424C109.153 79.8907 109.073 79.4373 108.903 79.064C108.743 78.68 108.508 78.3867 108.199 78.184C107.9 77.9707 107.543 77.864 107.127 77.864C106.497 77.864 106.007 78.0987 105.655 78.568C105.313 79.0267 105.143 79.6453 105.143 80.424C105.143 81.2027 105.319 81.8267 105.671 82.296C106.033 82.7547 106.519 82.984 107.127 82.984ZM113.276 85V73.64H115.324V78.408H115.068C115.154 77.9173 115.324 77.5173 115.58 77.208C115.836 76.888 116.151 76.6533 116.524 76.504C116.898 76.344 117.308 76.264 117.756 76.264C118.386 76.264 118.914 76.4027 119.34 76.68C119.778 76.9467 120.103 77.3253 120.316 77.816C120.54 78.3067 120.652 78.872 120.652 79.512V85H118.604V80.008C118.604 79.3147 118.487 78.7973 118.252 78.456C118.018 78.104 117.65 77.928 117.148 77.928C116.594 77.928 116.151 78.1093 115.82 78.472C115.49 78.8347 115.324 79.3627 115.324 80.056V85H113.276ZM122.39 81.192V79.464H127.83V81.192H122.39ZM133.045 85.192C132.202 85.192 131.493 85.0693 130.917 84.824C130.352 84.5787 129.914 84.2373 129.605 83.8C129.296 83.3627 129.12 82.8667 129.077 82.312L131.173 82.216C131.248 82.664 131.434 83.0107 131.733 83.256C132.032 83.5013 132.474 83.624 133.061 83.624C133.541 83.624 133.914 83.5493 134.181 83.4C134.458 83.24 134.597 82.9947 134.597 82.664C134.597 82.472 134.549 82.312 134.453 82.184C134.357 82.056 134.176 81.944 133.909 81.848C133.642 81.752 133.248 81.656 132.725 81.56C131.85 81.4107 131.162 81.2293 130.661 81.016C130.16 80.792 129.802 80.5147 129.589 80.184C129.386 79.8533 129.285 79.4427 129.285 78.952C129.285 78.152 129.589 77.5067 130.197 77.016C130.816 76.5147 131.717 76.264 132.901 76.264C133.669 76.264 134.314 76.392 134.837 76.648C135.36 76.8933 135.765 77.2347 136.053 77.672C136.352 78.0987 136.538 78.5893 136.613 79.144L134.549 79.24C134.496 78.952 134.4 78.7013 134.261 78.488C134.122 78.2747 133.936 78.1147 133.701 78.008C133.466 77.8907 133.189 77.832 132.869 77.832C132.389 77.832 132.026 77.928 131.781 78.12C131.536 78.312 131.413 78.568 131.413 78.888C131.413 79.112 131.466 79.2987 131.573 79.448C131.69 79.5973 131.877 79.72 132.133 79.816C132.389 79.9013 132.73 79.9813 133.157 80.056C134.053 80.1947 134.757 80.376 135.269 80.6C135.792 80.8133 136.16 81.0907 136.373 81.432C136.597 81.7627 136.709 82.1627 136.709 82.632C136.709 83.176 136.554 83.64 136.245 84.024C135.946 84.408 135.52 84.7013 134.965 84.904C134.421 85.096 133.781 85.192 133.045 85.192ZM142.004 85.192C141.15 85.192 140.409 85.0107 139.78 84.648C139.15 84.2747 138.665 83.752 138.324 83.08C137.982 82.408 137.812 81.624 137.812 80.728C137.812 79.832 137.982 79.0533 138.324 78.392C138.665 77.72 139.145 77.1973 139.764 76.824C140.393 76.4507 141.124 76.264 141.956 76.264C142.766 76.264 143.476 76.4453 144.084 76.808C144.702 77.1707 145.177 77.6933 145.508 78.376C145.838 79.0587 146.003 79.88 146.003 80.84V81.304H139.94C139.982 82.0507 140.185 82.616 140.548 83C140.921 83.3733 141.412 83.56 142.02 83.56C142.478 83.56 142.857 83.4587 143.156 83.256C143.465 83.0427 143.678 82.7493 143.796 82.376L145.892 82.504C145.657 83.336 145.193 83.992 144.5 84.472C143.817 84.952 142.985 85.192 142.004 85.192ZM139.94 79.928H143.892C143.849 79.2347 143.652 78.7227 143.3 78.392C142.948 78.0507 142.5 77.88 141.956 77.88C141.412 77.88 140.958 78.056 140.596 78.408C140.244 78.76 140.025 79.2667 139.94 79.928ZM149.644 85L146.524 76.456H148.684L150.86 82.936L153.036 76.456H155.196L152.076 85H149.644ZM159.894 85.192C159.041 85.192 158.299 85.0107 157.67 84.648C157.041 84.2747 156.555 83.752 156.214 83.08C155.873 82.408 155.702 81.624 155.702 80.728C155.702 79.832 155.873 79.0533 156.214 78.392C156.555 77.72 157.035 77.1973 157.654 76.824C158.283 76.4507 159.014 76.264 159.846 76.264C160.657 76.264 161.366 76.4453 161.974 76.808C162.593 77.1707 163.067 77.6933 163.398 78.376C163.729 79.0587 163.894 79.88 163.894 80.84V81.304H157.83C157.873 82.0507 158.075 82.616 158.438 83C158.811 83.3733 159.302 83.56 159.91 83.56C160.369 83.56 160.747 83.4587 161.046 83.256C161.355 83.0427 161.569 82.7493 161.686 82.376L163.782 82.504C163.547 83.336 163.083 83.992 162.39 84.472C161.707 84.952 160.875 85.192 159.894 85.192ZM157.83 79.928H161.782C161.739 79.2347 161.542 78.7227 161.19 78.392C160.838 78.0507 160.39 77.88 159.846 77.88C159.302 77.88 158.849 78.056 158.486 78.408C158.134 78.76 157.915 79.2667 157.83 79.928ZM165.495 85V76.456H167.415L167.495 78.824L167.319 78.792C167.447 77.9707 167.687 77.3787 168.039 77.016C168.402 76.6427 168.892 76.456 169.511 76.456H170.295V78.216H169.495C169.058 78.216 168.695 78.28 168.407 78.408C168.119 78.536 167.9 78.7387 167.751 79.016C167.612 79.2827 167.543 79.6347 167.543 80.072V85H165.495ZM171.62 85V76.456H173.668V85H171.62ZM171.588 75.32V73.496H173.716V75.32H171.588ZM178.81 85C177.956 85 177.327 84.8027 176.922 84.408C176.527 84.0133 176.33 83.3947 176.33 82.552V74.456H178.378V82.36C178.378 82.7547 178.463 83.032 178.634 83.192C178.804 83.3413 179.071 83.416 179.434 83.416H180.634V85H178.81ZM174.986 78.04V76.456H180.634V78.04H174.986ZM182.634 87.4V85.816H183.722C184 85.816 184.202 85.7733 184.33 85.688C184.469 85.6027 184.576 85.4587 184.65 85.256L184.89 84.664H184.298L181.242 76.456H183.37L185.514 82.744L187.562 76.456H189.69L186.346 85.896C186.154 86.4293 185.882 86.8133 185.53 87.048C185.189 87.2827 184.709 87.4 184.09 87.4H182.634ZM195.093 85V73.64H199.845C200.666 73.64 201.375 73.7787 201.973 74.056C202.57 74.3333 203.034 74.728 203.365 75.24C203.695 75.752 203.861 76.3547 203.861 77.048C203.861 77.5707 203.749 78.0347 203.525 78.44C203.301 78.8453 202.997 79.1707 202.613 79.416C202.239 79.6613 201.823 79.8107 201.365 79.864L201.285 79.704C202.021 79.704 202.586 79.8693 202.981 80.2C203.386 80.5307 203.615 81.0373 203.669 81.72L203.957 85H201.845L201.605 82.024C201.573 81.576 201.429 81.2453 201.173 81.032C200.917 80.8187 200.49 80.712 199.893 80.712H197.173V85H195.093ZM197.173 78.888H199.717C200.346 78.888 200.837 78.7387 201.189 78.44C201.541 78.1413 201.717 77.72 201.717 77.176C201.717 76.6213 201.535 76.1947 201.173 75.896C200.821 75.5973 200.303 75.448 199.621 75.448H197.173V78.888ZM205.964 85V76.456H208.012V85H205.964ZM205.932 75.32V73.496H208.06V75.32H205.932ZM213.576 85.192C212.734 85.192 212.024 85.0693 211.448 84.824C210.883 84.5787 210.446 84.2373 210.136 83.8C209.827 83.3627 209.651 82.8667 209.608 82.312L211.704 82.216C211.779 82.664 211.966 83.0107 212.264 83.256C212.563 83.5013 213.006 83.624 213.592 83.624C214.072 83.624 214.446 83.5493 214.712 83.4C214.99 83.24 215.128 82.9947 215.128 82.664C215.128 82.472 215.08 82.312 214.984 82.184C214.888 82.056 214.707 81.944 214.44 81.848C214.174 81.752 213.779 81.656 213.256 81.56C212.382 81.4107 211.694 81.2293 211.192 81.016C210.691 80.792 210.334 80.5147 210.12 80.184C209.918 79.8533 209.816 79.4427 209.816 78.952C209.816 78.152 210.12 77.5067 210.728 77.016C211.347 76.5147 212.248 76.264 213.432 76.264C214.2 76.264 214.846 76.392 215.368 76.648C215.891 76.8933 216.296 77.2347 216.584 77.672C216.883 78.0987 217.07 78.5893 217.144 79.144L215.08 79.24C215.027 78.952 214.931 78.7013 214.792 78.488C214.654 78.2747 214.467 78.1147 214.232 78.008C213.998 77.8907 213.72 77.832 213.4 77.832C212.92 77.832 212.558 77.928 212.312 78.12C212.067 78.312 211.944 78.568 211.944 78.888C211.944 79.112 211.998 79.2987 212.104 79.448C212.222 79.5973 212.408 79.72 212.664 79.816C212.92 79.9013 213.262 79.9813 213.688 80.056C214.584 80.1947 215.288 80.376 215.8 80.6C216.323 80.8133 216.691 81.0907 216.904 81.432C217.128 81.7627 217.24 82.1627 217.24 82.632C217.24 83.176 217.086 83.64 216.776 84.024C216.478 84.408 216.051 84.7013 215.496 84.904C214.952 85.096 214.312 85.192 213.576 85.192ZM218.839 85V73.64H220.887V80.312L224.391 76.456H226.919L223.575 80.008L227.031 85H224.727L222.231 81.224L220.887 82.648V85H218.839Z" fill="white"/>
<path d="M91.704 109.224C90.9387 109.224 90.2713 109.079 89.702 108.79C89.1327 108.501 88.68 108.104 88.344 107.6C88.0173 107.087 87.826 106.494 87.77 105.822L89.03 105.738C89.0953 106.233 89.24 106.653 89.464 106.998C89.688 107.343 89.9867 107.605 90.36 107.782C90.7427 107.959 91.2 108.048 91.732 108.048C92.1987 108.048 92.5953 107.987 92.922 107.866C93.2487 107.745 93.496 107.567 93.664 107.334C93.8413 107.101 93.93 106.816 93.93 106.48C93.93 106.172 93.8553 105.901 93.706 105.668C93.566 105.425 93.2907 105.206 92.88 105.01C92.4787 104.805 91.8813 104.604 91.088 104.408C90.3227 104.212 89.7113 103.997 89.254 103.764C88.806 103.531 88.4793 103.246 88.274 102.91C88.078 102.574 87.98 102.159 87.98 101.664C87.98 101.104 88.1107 100.614 88.372 100.194C88.6427 99.7647 89.0253 99.4333 89.52 99.2C90.0147 98.9573 90.6027 98.836 91.284 98.836C92.012 98.836 92.6373 98.976 93.16 99.256C93.6827 99.5267 94.098 99.9 94.406 100.376C94.714 100.852 94.9053 101.393 94.98 102L93.72 102.084C93.664 101.683 93.5333 101.328 93.328 101.02C93.132 100.703 92.8613 100.455 92.516 100.278C92.1707 100.101 91.7507 100.012 91.256 100.012C90.64 100.012 90.15 100.161 89.786 100.46C89.422 100.749 89.24 101.132 89.24 101.608C89.24 101.916 89.31 102.173 89.45 102.378C89.5993 102.574 89.8607 102.751 90.234 102.91C90.6073 103.059 91.144 103.223 91.844 103.4C92.6747 103.605 93.3327 103.853 93.818 104.142C94.3127 104.422 94.6627 104.749 94.868 105.122C95.0827 105.495 95.19 105.92 95.19 106.396C95.19 106.975 95.0407 107.479 94.742 107.908C94.4433 108.328 94.0327 108.655 93.51 108.888C92.9873 109.112 92.3853 109.224 91.704 109.224ZM99.4493 109C98.7773 109 98.2779 108.846 97.9513 108.538C97.6339 108.23 97.4753 107.749 97.4753 107.096V99.844H98.6513V107.068C98.6513 107.404 98.7259 107.637 98.8753 107.768C99.0246 107.899 99.2533 107.964 99.5613 107.964H100.625V109H99.4493ZM96.3833 102.616V101.58H100.625V102.616H96.3833ZM104.081 109.168C103.316 109.168 102.704 108.991 102.247 108.636C101.799 108.281 101.575 107.787 101.575 107.152C101.575 106.517 101.762 106.018 102.135 105.654C102.508 105.29 103.101 105.033 103.913 104.884L106.545 104.394C106.545 103.769 106.396 103.302 106.097 102.994C105.808 102.686 105.369 102.532 104.781 102.532C104.268 102.532 103.862 102.649 103.563 102.882C103.264 103.106 103.059 103.433 102.947 103.862L101.701 103.764C101.841 103.064 102.177 102.499 102.709 102.07C103.25 101.631 103.941 101.412 104.781 101.412C105.733 101.412 106.461 101.683 106.965 102.224C107.469 102.756 107.721 103.493 107.721 104.436V107.502C107.721 107.67 107.749 107.791 107.805 107.866C107.87 107.931 107.973 107.964 108.113 107.964H108.407V109C108.37 109.009 108.309 109.014 108.225 109.014C108.141 109.023 108.052 109.028 107.959 109.028C107.623 109.028 107.348 108.977 107.133 108.874C106.928 108.762 106.778 108.594 106.685 108.37C106.592 108.137 106.545 107.833 106.545 107.46L106.685 107.488C106.62 107.805 106.461 108.095 106.209 108.356C105.957 108.608 105.644 108.809 105.271 108.958C104.898 109.098 104.501 109.168 104.081 109.168ZM104.193 108.132C104.688 108.132 105.108 108.039 105.453 107.852C105.808 107.656 106.078 107.395 106.265 107.068C106.452 106.732 106.545 106.359 106.545 105.948V105.416L104.137 105.864C103.633 105.957 103.283 106.102 103.087 106.298C102.9 106.485 102.807 106.732 102.807 107.04C102.807 107.385 102.928 107.656 103.171 107.852C103.423 108.039 103.764 108.132 104.193 108.132ZM109.735 109V101.58H110.771L110.827 103.456L110.715 103.414C110.809 102.779 111.009 102.317 111.317 102.028C111.635 101.729 112.055 101.58 112.577 101.58H113.305V102.7H112.591C112.218 102.7 111.905 102.77 111.653 102.91C111.411 103.041 111.224 103.241 111.093 103.512C110.972 103.773 110.911 104.109 110.911 104.52V109H109.735ZM117.059 109C116.387 109 115.887 108.846 115.561 108.538C115.243 108.23 115.085 107.749 115.085 107.096V99.844H116.261V107.068C116.261 107.404 116.335 107.637 116.485 107.768C116.634 107.899 116.863 107.964 117.171 107.964H118.235V109H117.059ZM113.993 102.616V101.58H118.235V102.616H113.993ZM125.467 109V100.236H122.373V99.06H129.765V100.236H126.671V109H125.467ZM130.352 109V101.58H131.388L131.444 103.456L131.332 103.414C131.426 102.779 131.626 102.317 131.934 102.028C132.252 101.729 132.672 101.58 133.194 101.58H133.922V102.7H133.208C132.835 102.7 132.522 102.77 132.27 102.91C132.028 103.041 131.841 103.241 131.71 103.512C131.589 103.773 131.528 104.109 131.528 104.52V109H130.352ZM135.233 109V101.58H136.409V109H135.233ZM135.205 100.418V99.046H136.437V100.418H135.205ZM140.517 109.168C139.751 109.168 139.14 108.991 138.683 108.636C138.235 108.281 138.011 107.787 138.011 107.152C138.011 106.517 138.197 106.018 138.571 105.654C138.944 105.29 139.537 105.033 140.349 104.884L142.981 104.394C142.981 103.769 142.831 103.302 142.533 102.994C142.243 102.686 141.805 102.532 141.217 102.532C140.703 102.532 140.297 102.649 139.999 102.882C139.7 103.106 139.495 103.433 139.383 103.862L138.137 103.764C138.277 103.064 138.613 102.499 139.145 102.07C139.686 101.631 140.377 101.412 141.217 101.412C142.169 101.412 142.897 101.683 143.401 102.224C143.905 102.756 144.157 103.493 144.157 104.436V107.502C144.157 107.67 144.185 107.791 144.241 107.866C144.306 107.931 144.409 107.964 144.549 107.964H144.843V109C144.805 109.009 144.745 109.014 144.661 109.014C144.577 109.023 144.488 109.028 144.395 109.028C144.059 109.028 143.783 108.977 143.569 108.874C143.363 108.762 143.214 108.594 143.121 108.37C143.027 108.137 142.981 107.833 142.981 107.46L143.121 107.488C143.055 107.805 142.897 108.095 142.645 108.356C142.393 108.608 142.08 108.809 141.707 108.958C141.333 109.098 140.937 109.168 140.517 109.168ZM140.629 108.132C141.123 108.132 141.543 108.039 141.889 107.852C142.243 107.656 142.514 107.395 142.701 107.068C142.887 106.732 142.981 106.359 142.981 105.948V105.416L140.573 105.864C140.069 105.957 139.719 106.102 139.523 106.298C139.336 106.485 139.243 106.732 139.243 107.04C139.243 107.385 139.364 107.656 139.607 107.852C139.859 108.039 140.199 108.132 140.629 108.132ZM148.957 111.268C148.425 111.268 147.945 111.179 147.515 111.002C147.086 110.825 146.727 110.573 146.437 110.246C146.148 109.919 145.952 109.541 145.849 109.112L147.081 109.028C147.193 109.373 147.389 109.644 147.669 109.84C147.959 110.045 148.388 110.148 148.957 110.148C149.629 110.148 150.143 110.013 150.497 109.742C150.861 109.471 151.043 109.065 151.043 108.524V107.32C150.866 107.712 150.581 108.025 150.189 108.258C149.797 108.491 149.359 108.608 148.873 108.608C148.248 108.608 147.688 108.454 147.193 108.146C146.708 107.838 146.325 107.413 146.045 106.872C145.775 106.331 145.639 105.71 145.639 105.01C145.639 104.301 145.775 103.68 146.045 103.148C146.316 102.607 146.689 102.182 147.165 101.874C147.651 101.566 148.201 101.412 148.817 101.412C149.34 101.412 149.807 101.533 150.217 101.776C150.637 102.019 150.931 102.345 151.099 102.756V101.58H152.219V108.496C152.219 109.075 152.089 109.569 151.827 109.98C151.566 110.4 151.193 110.717 150.707 110.932C150.222 111.156 149.639 111.268 148.957 111.268ZM148.929 107.488C149.564 107.488 150.073 107.269 150.455 106.83C150.838 106.382 151.034 105.775 151.043 105.01C151.053 104.497 150.969 104.058 150.791 103.694C150.623 103.321 150.376 103.036 150.049 102.84C149.732 102.635 149.359 102.532 148.929 102.532C148.276 102.532 147.767 102.756 147.403 103.204C147.049 103.643 146.871 104.245 146.871 105.01C146.871 105.775 147.053 106.382 147.417 106.83C147.791 107.269 148.295 107.488 148.929 107.488ZM157.217 109.168C156.517 109.168 155.911 109.009 155.397 108.692C154.893 108.375 154.501 107.927 154.221 107.348C153.951 106.76 153.815 106.074 153.815 105.29C153.815 104.506 153.951 103.825 154.221 103.246C154.501 102.667 154.889 102.219 155.383 101.902C155.887 101.575 156.48 101.412 157.161 101.412C157.805 101.412 158.375 101.566 158.869 101.874C159.364 102.173 159.747 102.611 160.017 103.19C160.297 103.769 160.437 104.473 160.437 105.304V105.654H155.047C155.094 106.447 155.304 107.045 155.677 107.446C156.06 107.847 156.573 108.048 157.217 108.048C157.703 108.048 158.099 107.936 158.407 107.712C158.725 107.479 158.944 107.175 159.065 106.802L160.325 106.9C160.129 107.563 159.756 108.109 159.205 108.538C158.664 108.958 158.001 109.168 157.217 109.168ZM155.047 104.618H159.149C159.093 103.899 158.883 103.372 158.519 103.036C158.165 102.7 157.712 102.532 157.161 102.532C156.592 102.532 156.121 102.709 155.747 103.064C155.383 103.409 155.15 103.927 155.047 104.618Z" fill="#00FFFF"/>
<path d="M170 104H178" stroke="#00FFFF" stroke-linecap="round" stroke-linejoin="round"/>
<path d="M174 100L178 104L174 108" stroke="#00FFFF" stroke-linecap="round" stroke-linejoin="round"/>
<path d="M403.832 111C403.832 108.248 404.216 105.848 404.984 103.8C405.752 101.72 407.048 99.832 408.872 98.136C410.696 96.408 413.16 94.728 416.264 93.096C417.8 92.264 419.032 91.528 419.96 90.888C420.888 90.248 421.56 89.592 421.976 88.92C422.392 88.216 422.6 87.384 422.6 86.424C422.6 85.464 422.392 84.632 421.976 83.928C421.56 83.192 420.936 82.616 420.104 82.2C419.304 81.784 418.296 81.576 417.08 81.576C415.128 81.576 413.576 82.136 412.424 83.256C411.304 84.344 410.616 85.912 410.36 87.96L403.928 87.576C404.248 84.024 405.544 81.24 407.816 79.224C410.12 77.176 413.208 76.152 417.08 76.152C419.576 76.152 421.72 76.584 423.512 77.448C425.304 78.28 426.664 79.464 427.592 81C428.552 82.536 429.032 84.312 429.032 86.328C429.032 88.056 428.728 89.544 428.12 90.792C427.544 92.04 426.584 93.192 425.24 94.248C423.928 95.272 422.152 96.376 419.912 97.56C417.096 99.064 414.984 100.52 413.576 101.928C412.168 103.304 411.416 104.52 411.32 105.576H429.032V111H403.832ZM449.008 111V104.184H431.92V99.096L448 76.92H455.248V98.76H459.328V104.184H455.248V111H449.008ZM438.736 98.76H449.008V85.032L438.736 98.76Z" fill="#FE3639"/>
<path d="M24.1783 281.037V182.183C24.1783 179.981 25.6051 178 27.5669 178H61.4523C62.7007 178 63.7708 178.66 64.3058 179.981L111.567 278.835C112.815 281.477 111.21 285 108.714 285H27.3885C25.6051 285 24 283.239 24 280.817L24.1783 281.037Z" fill="#FF761B"/>
<mask id="path-12-inside-2_2086_49405" fill="white">
<path d="M138 226H462V285H138V226Z"/>
</mask>
<path d="M462 285V284H138V285V286H462V285Z" fill="#381DA8" mask="url(#path-12-inside-2_2086_49405)"/>
<path d="M356.265 239V229.06H357.469V239H356.265ZM362.365 239.168C361.721 239.168 361.161 239.009 360.685 238.692C360.219 238.375 359.859 237.927 359.607 237.348C359.355 236.769 359.229 236.083 359.229 235.29C359.229 234.497 359.355 233.811 359.607 233.232C359.859 232.653 360.219 232.205 360.685 231.888C361.161 231.571 361.721 231.412 362.365 231.412C362.86 231.412 363.313 231.519 363.723 231.734C364.134 231.939 364.442 232.233 364.647 232.616V229.06H365.823V239H364.759L364.717 237.88C364.512 238.281 364.199 238.599 363.779 238.832C363.359 239.056 362.888 239.168 362.365 239.168ZM362.603 238.048C363.042 238.048 363.411 237.936 363.709 237.712C364.017 237.488 364.251 237.171 364.409 236.76C364.568 236.34 364.647 235.85 364.647 235.29C364.647 234.711 364.568 234.217 364.409 233.806C364.251 233.395 364.017 233.083 363.709 232.868C363.411 232.644 363.042 232.532 362.603 232.532C361.95 232.532 361.427 232.779 361.035 233.274C360.653 233.759 360.461 234.431 360.461 235.29C360.461 236.139 360.653 236.811 361.035 237.306C361.427 237.801 361.95 238.048 362.603 238.048ZM370.821 239.168C370.121 239.168 369.514 239.009 369.001 238.692C368.497 238.375 368.105 237.927 367.825 237.348C367.554 236.76 367.419 236.074 367.419 235.29C367.419 234.506 367.554 233.825 367.825 233.246C368.105 232.667 368.492 232.219 368.987 231.902C369.491 231.575 370.083 231.412 370.765 231.412C371.409 231.412 371.978 231.566 372.473 231.874C372.967 232.173 373.35 232.611 373.621 233.19C373.901 233.769 374.041 234.473 374.041 235.304V235.654H368.651C368.697 236.447 368.907 237.045 369.281 237.446C369.663 237.847 370.177 238.048 370.821 238.048C371.306 238.048 371.703 237.936 372.011 237.712C372.328 237.479 372.547 237.175 372.669 236.802L373.929 236.9C373.733 237.563 373.359 238.109 372.809 238.538C372.267 238.958 371.605 239.168 370.821 239.168ZM368.651 234.618H372.753C372.697 233.899 372.487 233.372 372.123 233.036C371.768 232.7 371.315 232.532 370.765 232.532C370.195 232.532 369.724 232.709 369.351 233.064C368.987 233.409 368.753 233.927 368.651 234.618ZM375.634 239V231.58H376.712L376.754 233.47L376.614 233.344C376.707 232.905 376.87 232.546 377.104 232.266C377.337 231.977 377.617 231.762 377.944 231.622C378.28 231.482 378.639 231.412 379.022 231.412C379.591 231.412 380.058 231.538 380.422 231.79C380.795 232.042 381.07 232.383 381.248 232.812C381.434 233.232 381.528 233.703 381.528 234.226V239H380.352V234.562C380.352 234.105 380.296 233.722 380.184 233.414C380.081 233.097 379.913 232.859 379.68 232.7C379.446 232.532 379.143 232.448 378.77 232.448C378.2 232.448 377.729 232.63 377.356 232.994C376.992 233.349 376.81 233.871 376.81 234.562V239H375.634ZM385.924 239C385.252 239 384.753 238.846 384.426 238.538C384.109 238.23 383.95 237.749 383.95 237.096V229.844H385.126V237.068C385.126 237.404 385.201 237.637 385.35 237.768C385.499 237.899 385.728 237.964 386.036 237.964H387.1V239H385.924ZM382.858 232.616V231.58H387.1V232.616H382.858ZM388.608 239V231.58H389.784V239H388.608ZM388.58 230.418V229.046H389.812V230.418H388.58ZM394.182 239C393.51 239 393.01 238.846 392.684 238.538C392.366 238.23 392.208 237.749 392.208 237.096V229.844H393.384V237.068C393.384 237.404 393.458 237.637 393.608 237.768C393.757 237.899 393.986 237.964 394.294 237.964H395.358V239H394.182ZM391.116 232.616V231.58H395.358V232.616H391.116ZM396.866 239V231.58H398.042V239H396.866ZM396.838 230.418V229.046H398.07V230.418H396.838ZM403.045 239.168C402.345 239.168 401.739 239.009 401.225 238.692C400.721 238.375 400.329 237.927 400.049 237.348C399.779 236.76 399.643 236.074 399.643 235.29C399.643 234.506 399.779 233.825 400.049 233.246C400.329 232.667 400.717 232.219 401.211 231.902C401.715 231.575 402.308 231.412 402.989 231.412C403.633 231.412 404.203 231.566 404.697 231.874C405.192 232.173 405.575 232.611 405.845 233.19C406.125 233.769 406.265 234.473 406.265 235.304V235.654H400.875C400.922 236.447 401.132 237.045 401.505 237.446C401.888 237.847 402.401 238.048 403.045 238.048C403.531 238.048 403.927 237.936 404.235 237.712C404.553 237.479 404.772 237.175 404.893 236.802L406.153 236.9C405.957 237.563 405.584 238.109 405.033 238.538C404.492 238.958 403.829 239.168 403.045 239.168ZM400.875 234.618H404.977C404.921 233.899 404.711 233.372 404.347 233.036C403.993 232.7 403.54 232.532 402.989 232.532C402.42 232.532 401.949 232.709 401.575 233.064C401.211 233.409 400.978 233.927 400.875 234.618ZM410.56 239.168C409.898 239.168 409.333 239.061 408.866 238.846C408.409 238.631 408.05 238.337 407.788 237.964C407.536 237.581 407.392 237.147 407.354 236.662L408.586 236.578C408.661 237.026 408.852 237.385 409.16 237.656C409.468 237.917 409.935 238.048 410.56 238.048C411.064 238.048 411.466 237.969 411.764 237.81C412.072 237.642 412.226 237.376 412.226 237.012C412.226 236.816 412.18 236.653 412.086 236.522C411.993 236.391 411.811 236.279 411.54 236.186C411.27 236.083 410.868 235.985 410.336 235.892C409.627 235.761 409.067 235.603 408.656 235.416C408.255 235.22 407.966 234.982 407.788 234.702C407.62 234.413 407.536 234.072 407.536 233.68C407.536 233.017 407.779 232.476 408.264 232.056C408.75 231.627 409.44 231.412 410.336 231.412C410.943 231.412 411.452 231.524 411.862 231.748C412.282 231.963 412.609 232.252 412.842 232.616C413.085 232.971 413.244 233.363 413.318 233.792L412.086 233.876C412.03 233.615 411.928 233.386 411.778 233.19C411.629 232.985 411.433 232.826 411.19 232.714C410.948 232.593 410.658 232.532 410.322 232.532C409.79 232.532 409.398 232.635 409.146 232.84C408.894 233.045 408.768 233.307 408.768 233.624C408.768 233.867 408.824 234.067 408.936 234.226C409.058 234.375 409.249 234.501 409.51 234.604C409.772 234.697 410.122 234.781 410.56 234.856C411.316 234.987 411.904 235.145 412.324 235.332C412.744 235.519 413.038 235.747 413.206 236.018C413.374 236.289 413.458 236.62 413.458 237.012C413.458 237.469 413.328 237.861 413.066 238.188C412.814 238.505 412.469 238.748 412.03 238.916C411.601 239.084 411.111 239.168 410.56 239.168ZM420.702 239.168C419.937 239.168 419.325 238.991 418.868 238.636C418.42 238.281 418.196 237.787 418.196 237.152C418.196 236.517 418.383 236.018 418.756 235.654C419.129 235.29 419.722 235.033 420.534 234.884L423.166 234.394C423.166 233.769 423.017 233.302 422.718 232.994C422.429 232.686 421.99 232.532 421.402 232.532C420.889 232.532 420.483 232.649 420.184 232.882C419.885 233.106 419.68 233.433 419.568 233.862L418.322 233.764C418.462 233.064 418.798 232.499 419.33 232.07C419.871 231.631 420.562 231.412 421.402 231.412C422.354 231.412 423.082 231.683 423.586 232.224C424.09 232.756 424.342 233.493 424.342 234.436V237.502C424.342 237.67 424.37 237.791 424.426 237.866C424.491 237.931 424.594 237.964 424.734 237.964H425.028V239C424.991 239.009 424.93 239.014 424.846 239.014C424.762 239.023 424.673 239.028 424.58 239.028C424.244 239.028 423.969 238.977 423.754 238.874C423.549 238.762 423.399 238.594 423.306 238.37C423.213 238.137 423.166 237.833 423.166 237.46L423.306 237.488C423.241 237.805 423.082 238.095 422.83 238.356C422.578 238.608 422.265 238.809 421.892 238.958C421.519 239.098 421.122 239.168 420.702 239.168ZM420.814 238.132C421.309 238.132 421.729 238.039 422.074 237.852C422.429 237.656 422.699 237.395 422.886 237.068C423.073 236.732 423.166 236.359 423.166 235.948V235.416L420.758 235.864C420.254 235.957 419.904 236.102 419.708 236.298C419.521 236.485 419.428 236.732 419.428 237.04C419.428 237.385 419.549 237.656 419.792 237.852C420.044 238.039 420.385 238.132 420.814 238.132ZM428.703 239C428.031 239 427.532 238.846 427.205 238.538C426.888 238.23 426.729 237.749 426.729 237.096V229.844H427.905V237.068C427.905 237.404 427.98 237.637 428.129 237.768C428.279 237.899 428.507 237.964 428.815 237.964H429.879V239H428.703ZM425.637 232.616V231.58H429.879V232.616H425.637ZM435.138 239V229.06H438.904C439.604 229.06 440.206 229.181 440.71 229.424C441.214 229.667 441.601 230.017 441.872 230.474C442.152 230.922 442.292 231.454 442.292 232.07C442.292 232.518 442.184 232.919 441.97 233.274C441.764 233.619 441.498 233.895 441.172 234.1C440.845 234.305 440.504 234.417 440.15 234.436L440.066 234.31C440.672 234.31 441.148 234.45 441.494 234.73C441.848 235.01 442.054 235.458 442.11 236.074L442.39 239H441.172L440.92 236.2C440.882 235.789 440.733 235.486 440.472 235.29C440.22 235.094 439.804 234.996 439.226 234.996H436.342V239H435.138ZM436.342 233.82H439.058C439.664 233.82 440.145 233.666 440.5 233.358C440.854 233.05 441.032 232.611 441.032 232.042C441.032 231.463 440.85 231.02 440.486 230.712C440.122 230.395 439.594 230.236 438.904 230.236H436.342V233.82ZM444.376 239V231.58H445.552V239H444.376ZM444.348 230.418V229.046H445.58V230.418H444.348ZM450.359 239.168C449.696 239.168 449.132 239.061 448.665 238.846C448.208 238.631 447.848 238.337 447.587 237.964C447.335 237.581 447.19 237.147 447.153 236.662L448.385 236.578C448.46 237.026 448.651 237.385 448.959 237.656C449.267 237.917 449.734 238.048 450.359 238.048C450.863 238.048 451.264 237.969 451.563 237.81C451.871 237.642 452.025 237.376 452.025 237.012C452.025 236.816 451.978 236.653 451.885 236.522C451.792 236.391 451.61 236.279 451.339 236.186C451.068 236.083 450.667 235.985 450.135 235.892C449.426 235.761 448.866 235.603 448.455 235.416C448.054 235.22 447.764 234.982 447.587 234.702C447.419 234.413 447.335 234.072 447.335 233.68C447.335 233.017 447.578 232.476 448.063 232.056C448.548 231.627 449.239 231.412 450.135 231.412C450.742 231.412 451.25 231.524 451.661 231.748C452.081 231.963 452.408 232.252 452.641 232.616C452.884 232.971 453.042 233.363 453.117 233.792L451.885 233.876C451.829 233.615 451.726 233.386 451.577 233.19C451.428 232.985 451.232 232.826 450.989 232.714C450.746 232.593 450.457 232.532 450.121 232.532C449.589 232.532 449.197 232.635 448.945 232.84C448.693 233.045 448.567 233.307 448.567 233.624C448.567 233.867 448.623 234.067 448.735 234.226C448.856 234.375 449.048 234.501 449.309 234.604C449.57 234.697 449.92 234.781 450.359 234.856C451.115 234.987 451.703 235.145 452.123 235.332C452.543 235.519 452.837 235.747 453.005 236.018C453.173 236.289 453.257 236.62 453.257 237.012C453.257 237.469 453.126 237.861 452.865 238.188C452.613 238.505 452.268 238.748 451.829 238.916C451.4 239.084 450.91 239.168 450.359 239.168ZM454.862 239V229.06H456.038V235.57L459.65 231.58H461.218L458.292 234.73L461.344 239H459.916L457.494 235.528L456.038 237.068V239H454.862Z" fill="#DCDADF"/>
<path d="M419.898 269.416C418.459 269.416 417.237 269.191 416.232 268.74C415.227 268.289 414.447 267.665 413.892 266.868C413.337 266.053 413.008 265.109 412.904 264.034L416.362 263.852C416.501 264.719 416.882 265.369 417.506 265.802C418.13 266.235 418.927 266.452 419.898 266.452C421.025 266.452 421.9 266.149 422.524 265.542C423.165 264.918 423.486 264.043 423.486 262.916C423.486 262.205 423.339 261.581 423.044 261.044C422.767 260.507 422.359 260.091 421.822 259.796C421.285 259.501 420.635 259.354 419.872 259.354C419.092 259.354 418.407 259.527 417.818 259.874C417.246 260.203 416.83 260.645 416.57 261.2H413.138L414.412 250.54H425.722V253.478H417.35L416.622 259.354L416.18 258.964C416.457 258.479 416.821 258.071 417.272 257.742C417.723 257.395 418.243 257.135 418.832 256.962C419.439 256.789 420.089 256.702 420.782 256.702C422.03 256.702 423.113 256.971 424.032 257.508C424.968 258.045 425.687 258.782 426.19 259.718C426.71 260.654 426.97 261.72 426.97 262.916C426.97 264.216 426.675 265.36 426.086 266.348C425.514 267.319 424.691 268.073 423.616 268.61C422.559 269.147 421.319 269.416 419.898 269.416ZM438.416 269V265.308H429.16V262.552L437.87 250.54H441.796V262.37H444.006V265.308H441.796V269H438.416ZM432.852 262.37H438.416V254.934L432.852 262.37ZM453.589 269.416C452.116 269.416 450.816 269.208 449.689 268.792C448.58 268.376 447.713 267.769 447.089 266.972C446.465 266.157 446.153 265.152 446.153 263.956C446.153 262.604 446.569 261.486 447.401 260.602C448.251 259.701 449.386 259.111 450.807 258.834L450.859 259.38C449.698 259.12 448.771 258.643 448.077 257.95C447.401 257.239 447.063 256.321 447.063 255.194C447.063 254.206 447.315 253.331 447.817 252.568C448.337 251.805 449.083 251.207 450.053 250.774C451.041 250.341 452.22 250.124 453.589 250.124C454.976 250.124 456.155 250.341 457.125 250.774C458.113 251.207 458.859 251.805 459.361 252.568C459.881 253.331 460.141 254.206 460.141 255.194C460.141 256.321 459.795 257.231 459.101 257.924C458.425 258.617 457.507 259.103 456.345 259.38L456.397 258.834C457.819 259.111 458.945 259.701 459.777 260.602C460.609 261.486 461.025 262.604 461.025 263.956C461.025 265.152 460.713 266.157 460.089 266.972C459.483 267.769 458.625 268.376 457.515 268.792C456.406 269.208 455.097 269.416 453.589 269.416ZM453.589 266.452C454.785 266.452 455.739 266.209 456.449 265.724C457.177 265.221 457.541 264.485 457.541 263.514C457.541 262.595 457.203 261.859 456.527 261.304C455.869 260.732 454.889 260.446 453.589 260.446C452.307 260.446 451.327 260.732 450.651 261.304C449.993 261.859 449.663 262.595 449.663 263.514C449.663 264.485 450.019 265.221 450.729 265.724C451.44 266.209 452.393 266.452 453.589 266.452ZM453.589 257.924C454.56 257.924 455.314 257.725 455.851 257.326C456.406 256.91 456.683 256.295 456.683 255.48C456.683 254.735 456.423 254.145 455.903 253.712C455.383 253.279 454.612 253.062 453.589 253.062C452.601 253.062 451.839 253.279 451.301 253.712C450.781 254.145 450.521 254.735 450.521 255.48C450.521 256.295 450.79 256.91 451.327 257.326C451.865 257.725 452.619 257.924 453.589 257.924Z" fill="#DCDADF"/>
<path d="M24.1777 389.825V291.175C24.1777 288.977 25.5992 287 27.5537 287H112.488C113.909 287 115.331 288.318 115.686 290.076L137.897 388.727C138.43 391.363 136.831 394 134.698 394H27.376C25.5992 394 24 392.242 24 389.825H24.1777Z" fill="#FFCC00"/>
<mask id="path-17-inside-3_2086_49405" fill="white">
<path d="M164 335H462V394H164V335Z"/>
</mask>
<path d="M462 394V393H164V394V395H462V394Z" fill="#381DA8" mask="url(#path-17-inside-3_2086_49405)"/>
<path d="M403.679 348V338.06H404.883V348H403.679ZM407.421 348V340.58H408.499L408.541 342.47L408.401 342.344C408.494 341.905 408.657 341.546 408.891 341.266C409.124 340.977 409.404 340.762 409.731 340.622C410.067 340.482 410.426 340.412 410.809 340.412C411.378 340.412 411.845 340.538 412.209 340.79C412.582 341.042 412.857 341.383 413.035 341.812C413.221 342.232 413.315 342.703 413.315 343.226V348H412.139V343.562C412.139 343.105 412.083 342.722 411.971 342.414C411.868 342.097 411.7 341.859 411.467 341.7C411.233 341.532 410.93 341.448 410.557 341.448C409.987 341.448 409.516 341.63 409.143 341.994C408.779 342.349 408.597 342.871 408.597 343.562V348H407.421ZM416.967 348L414.265 340.58H415.553L417.709 346.796L419.865 340.58H421.153L418.451 348H416.967ZM425.112 348.168C424.412 348.168 423.805 348.009 423.292 347.692C422.788 347.375 422.396 346.927 422.116 346.348C421.845 345.76 421.71 345.074 421.71 344.29C421.71 343.506 421.845 342.825 422.116 342.246C422.396 341.667 422.783 341.219 423.278 340.902C423.782 340.575 424.374 340.412 425.056 340.412C425.7 340.412 426.269 340.566 426.764 340.874C427.258 341.173 427.641 341.611 427.912 342.19C428.192 342.769 428.332 343.473 428.332 344.304V344.654H422.942C422.988 345.447 423.198 346.045 423.572 346.446C423.954 346.847 424.468 347.048 425.112 347.048C425.597 347.048 425.994 346.936 426.302 346.712C426.619 346.479 426.838 346.175 426.96 345.802L428.22 345.9C428.024 346.563 427.65 347.109 427.1 347.538C426.558 347.958 425.896 348.168 425.112 348.168ZM422.942 343.618H427.044C426.988 342.899 426.778 342.372 426.414 342.036C426.059 341.7 425.606 341.532 425.056 341.532C424.486 341.532 424.015 341.709 423.642 342.064C423.278 342.409 423.044 342.927 422.942 343.618ZM429.925 348V340.58H431.003L431.045 342.47L430.905 342.344C430.998 341.905 431.161 341.546 431.395 341.266C431.628 340.977 431.908 340.762 432.235 340.622C432.571 340.482 432.93 340.412 433.313 340.412C433.882 340.412 434.349 340.538 434.713 340.79C435.086 341.042 435.361 341.383 435.539 341.812C435.725 342.232 435.819 342.703 435.819 343.226V348H434.643V343.562C434.643 343.105 434.587 342.722 434.475 342.414C434.372 342.097 434.204 341.859 433.971 341.7C433.737 341.532 433.434 341.448 433.061 341.448C432.491 341.448 432.02 341.63 431.647 341.994C431.283 342.349 431.101 342.871 431.101 343.562V348H429.925ZM440.215 348C439.543 348 439.044 347.846 438.717 347.538C438.4 347.23 438.241 346.749 438.241 346.096V338.844H439.417V346.068C439.417 346.404 439.492 346.637 439.641 346.768C439.79 346.899 440.019 346.964 440.327 346.964H441.391V348H440.215ZM437.149 341.616V340.58H441.391V341.616H437.149ZM445.661 348.168C444.979 348.168 444.382 348.009 443.869 347.692C443.355 347.375 442.959 346.927 442.679 346.348C442.399 345.76 442.259 345.074 442.259 344.29C442.259 343.497 442.399 342.811 442.679 342.232C442.959 341.653 443.355 341.205 443.869 340.888C444.382 340.571 444.979 340.412 445.661 340.412C446.342 340.412 446.935 340.571 447.439 340.888C447.952 341.205 448.349 341.653 448.629 342.232C448.909 342.811 449.049 343.497 449.049 344.29C449.049 345.074 448.909 345.76 448.629 346.348C448.349 346.927 447.952 347.375 447.439 347.692C446.935 348.009 446.342 348.168 445.661 348.168ZM445.661 347.048C446.342 347.048 446.869 346.805 447.243 346.32C447.625 345.825 447.817 345.149 447.817 344.29C447.817 343.431 447.625 342.759 447.243 342.274C446.869 341.779 446.342 341.532 445.661 341.532C444.979 341.532 444.447 341.779 444.065 342.274C443.682 342.759 443.491 343.431 443.491 344.29C443.491 345.149 443.682 345.825 444.065 346.32C444.447 346.805 444.979 347.048 445.661 347.048ZM450.651 348V340.58H451.687L451.743 342.456L451.631 342.414C451.725 341.779 451.925 341.317 452.233 341.028C452.551 340.729 452.971 340.58 453.493 340.58H454.221V341.7H453.507C453.134 341.7 452.821 341.77 452.569 341.91C452.327 342.041 452.14 342.241 452.009 342.512C451.888 342.773 451.827 343.109 451.827 343.52V348H450.651ZM455.922 350.1V349.064H456.776C457.038 349.064 457.229 349.022 457.35 348.938C457.481 348.863 457.579 348.737 457.644 348.56L457.91 347.86H457.504L454.788 340.58H456.076L458.288 346.768L460.402 340.58H461.69L458.68 348.938C458.54 349.339 458.33 349.633 458.05 349.82C457.77 350.007 457.383 350.1 456.888 350.1H455.922Z" fill="#DCDADF"/>
<path d="M377.511 378C377.511 376.509 377.719 375.209 378.135 374.1C378.551 372.973 379.253 371.951 380.241 371.032C381.229 370.096 382.563 369.186 384.245 368.302C385.077 367.851 385.744 367.453 386.247 367.106C386.749 366.759 387.113 366.404 387.339 366.04C387.564 365.659 387.677 365.208 387.677 364.688C387.677 364.168 387.564 363.717 387.339 363.336C387.113 362.937 386.775 362.625 386.325 362.4C385.891 362.175 385.345 362.062 384.687 362.062C383.629 362.062 382.789 362.365 382.165 362.972C381.558 363.561 381.185 364.411 381.047 365.52L377.563 365.312C377.736 363.388 378.438 361.88 379.669 360.788C380.917 359.679 382.589 359.124 384.687 359.124C386.039 359.124 387.2 359.358 388.171 359.826C389.141 360.277 389.878 360.918 390.381 361.75C390.901 362.582 391.161 363.544 391.161 364.636C391.161 365.572 390.996 366.378 390.667 367.054C390.355 367.73 389.835 368.354 389.107 368.926C388.396 369.481 387.434 370.079 386.221 370.72C384.695 371.535 383.551 372.323 382.789 373.086C382.026 373.831 381.619 374.49 381.567 375.062H391.161V378H377.511ZM397.598 378V365.338H393.646V362.764H395.232C395.978 362.764 396.576 362.669 397.026 362.478C397.477 362.287 397.798 361.958 397.988 361.49C398.196 361.005 398.3 360.355 398.3 359.54H400.978V378H397.598ZM407.653 378V365.338H403.701V362.764H405.287C406.032 362.764 406.63 362.669 407.081 362.478C407.532 362.287 407.852 361.958 408.043 361.49C408.251 361.005 408.355 360.355 408.355 359.54H411.033V378H407.653ZM415.057 382.108L416.409 378H414.823V374.36H418.619V377.584L416.903 382.108H415.057ZM422.71 378V365.338H418.758V362.764H420.344C421.089 362.764 421.687 362.669 422.138 362.478C422.588 362.287 422.909 361.958 423.1 361.49C423.308 361.005 423.412 360.355 423.412 359.54H426.09V378H422.71ZM438.289 378V374.308H429.033V371.552L437.743 359.54H441.669V371.37H443.879V374.308H441.669V378H438.289ZM432.725 371.37H438.289V363.934L432.725 371.37ZM453.02 378.416C451.356 378.416 450.013 378.035 448.99 377.272C447.968 376.492 447.257 375.417 446.858 374.048L450.16 373.84C450.351 374.377 450.68 374.793 451.148 375.088C451.634 375.365 452.258 375.504 453.02 375.504C454.39 375.504 455.412 374.984 456.088 373.944C456.782 372.887 457.137 371.171 457.154 368.796L457.648 368.952C457.215 369.975 456.574 370.746 455.724 371.266C454.892 371.786 453.887 372.046 452.708 372.046C451.495 372.046 450.42 371.786 449.484 371.266C448.566 370.729 447.846 369.992 447.326 369.056C446.806 368.12 446.546 367.019 446.546 365.754C446.546 364.385 446.832 363.206 447.404 362.218C447.976 361.23 448.765 360.467 449.77 359.93C450.793 359.393 451.972 359.124 453.306 359.124C454.936 359.124 456.279 359.479 457.336 360.19C458.411 360.883 459.2 361.889 459.702 363.206C460.222 364.523 460.482 366.118 460.482 367.99C460.482 369.567 460.344 370.997 460.066 372.28C459.789 373.563 459.347 374.663 458.74 375.582C458.134 376.483 457.354 377.185 456.4 377.688C455.464 378.173 454.338 378.416 453.02 378.416ZM453.332 369.394C454.043 369.394 454.658 369.255 455.178 368.978C455.716 368.683 456.132 368.267 456.426 367.73C456.738 367.175 456.894 366.517 456.894 365.754C456.894 364.991 456.756 364.333 456.478 363.778C456.201 363.206 455.802 362.764 455.282 362.452C454.762 362.123 454.138 361.958 453.41 361.958C452.7 361.958 452.084 362.114 451.564 362.426C451.062 362.738 450.672 363.18 450.394 363.752C450.117 364.307 449.978 364.965 449.978 365.728C449.978 366.473 450.117 367.123 450.394 367.678C450.672 368.233 451.062 368.657 451.564 368.952C452.067 369.247 452.656 369.394 453.332 369.394Z" fill="#DCDADF"/>
<path d="M24.1784 499.037V400.183C24.1784 397.981 25.6052 396 27.5672 396H138.506C139.576 396 140.646 396.661 141.36 397.761L193.44 496.615C194.867 499.257 193.44 503 190.587 503H27.3888C25.6052 503 24 501.239 24 498.817L24.1784 499.037Z" fill="#381DA8"/>
<mask id="path-22-inside-4_2086_49405" fill="white">
<path d="M220 444H462V503H220V444Z"/>
</mask>
<path d="M462 503V502H220V503V504H462V503Z" fill="#381DA8" mask="url(#path-22-inside-4_2086_49405)"/>
<path d="M358.833 457.224C358.068 457.224 357.4 457.079 356.831 456.79C356.262 456.501 355.809 456.104 355.473 455.6C355.146 455.087 354.955 454.494 354.899 453.822L356.159 453.738C356.224 454.233 356.369 454.653 356.593 454.998C356.817 455.343 357.116 455.605 357.489 455.782C357.872 455.959 358.329 456.048 358.861 456.048C359.328 456.048 359.724 455.987 360.051 455.866C360.378 455.745 360.625 455.567 360.793 455.334C360.97 455.101 361.059 454.816 361.059 454.48C361.059 454.172 360.984 453.901 360.835 453.668C360.695 453.425 360.42 453.206 360.009 453.01C359.608 452.805 359.01 452.604 358.217 452.408C357.452 452.212 356.84 451.997 356.383 451.764C355.935 451.531 355.608 451.246 355.403 450.91C355.207 450.574 355.109 450.159 355.109 449.664C355.109 449.104 355.24 448.614 355.501 448.194C355.772 447.765 356.154 447.433 356.649 447.2C357.144 446.957 357.732 446.836 358.413 446.836C359.141 446.836 359.766 446.976 360.289 447.256C360.812 447.527 361.227 447.9 361.535 448.376C361.843 448.852 362.034 449.393 362.109 450L360.849 450.084C360.793 449.683 360.662 449.328 360.457 449.02C360.261 448.703 359.99 448.455 359.645 448.278C359.3 448.101 358.88 448.012 358.385 448.012C357.769 448.012 357.279 448.161 356.915 448.46C356.551 448.749 356.369 449.132 356.369 449.608C356.369 449.916 356.439 450.173 356.579 450.378C356.728 450.574 356.99 450.751 357.363 450.91C357.736 451.059 358.273 451.223 358.973 451.4C359.804 451.605 360.462 451.853 360.947 452.142C361.442 452.422 361.792 452.749 361.997 453.122C362.212 453.495 362.319 453.92 362.319 454.396C362.319 454.975 362.17 455.479 361.871 455.908C361.572 456.328 361.162 456.655 360.639 456.888C360.116 457.112 359.514 457.224 358.833 457.224ZM367.293 457.168C366.603 457.168 366.001 457.009 365.487 456.692C364.983 456.375 364.591 455.927 364.311 455.348C364.031 454.76 363.891 454.074 363.891 453.29C363.891 452.506 364.031 451.825 364.311 451.246C364.591 450.667 364.983 450.219 365.487 449.902C366.001 449.575 366.603 449.412 367.293 449.412C367.863 449.412 368.367 449.515 368.805 449.72C369.253 449.916 369.617 450.205 369.897 450.588C370.177 450.971 370.359 451.437 370.443 451.988L369.211 452.072C369.127 451.577 368.913 451.199 368.567 450.938C368.222 450.667 367.797 450.532 367.293 450.532C366.612 450.532 366.08 450.779 365.697 451.274C365.315 451.759 365.123 452.431 365.123 453.29C365.123 454.149 365.315 454.825 365.697 455.32C366.08 455.805 366.612 456.048 367.293 456.048C367.797 456.048 368.222 455.908 368.567 455.628C368.913 455.348 369.127 454.928 369.211 454.368L370.443 454.452C370.359 455.003 370.177 455.483 369.897 455.894C369.617 456.295 369.253 456.608 368.805 456.832C368.367 457.056 367.863 457.168 367.293 457.168ZM374.095 457.168C373.329 457.168 372.718 456.991 372.261 456.636C371.813 456.281 371.589 455.787 371.589 455.152C371.589 454.517 371.775 454.018 372.149 453.654C372.522 453.29 373.115 453.033 373.927 452.884L376.559 452.394C376.559 451.769 376.409 451.302 376.111 450.994C375.821 450.686 375.383 450.532 374.795 450.532C374.281 450.532 373.875 450.649 373.577 450.882C373.278 451.106 373.073 451.433 372.961 451.862L371.715 451.764C371.855 451.064 372.191 450.499 372.723 450.07C373.264 449.631 373.955 449.412 374.795 449.412C375.747 449.412 376.475 449.683 376.979 450.224C377.483 450.756 377.735 451.493 377.735 452.436V455.502C377.735 455.67 377.763 455.791 377.819 455.866C377.884 455.931 377.987 455.964 378.127 455.964H378.421V457C378.383 457.009 378.323 457.014 378.239 457.014C378.155 457.023 378.066 457.028 377.973 457.028C377.637 457.028 377.361 456.977 377.147 456.874C376.941 456.762 376.792 456.594 376.699 456.37C376.605 456.137 376.559 455.833 376.559 455.46L376.699 455.488C376.633 455.805 376.475 456.095 376.223 456.356C375.971 456.608 375.658 456.809 375.285 456.958C374.911 457.098 374.515 457.168 374.095 457.168ZM374.207 456.132C374.701 456.132 375.121 456.039 375.467 455.852C375.821 455.656 376.092 455.395 376.279 455.068C376.465 454.732 376.559 454.359 376.559 453.948V453.416L374.151 453.864C373.647 453.957 373.297 454.102 373.101 454.298C372.914 454.485 372.821 454.732 372.821 455.04C372.821 455.385 372.942 455.656 373.185 455.852C373.437 456.039 373.777 456.132 374.207 456.132ZM379.749 457V449.58H380.827L380.869 451.47L380.729 451.344C380.822 450.905 380.986 450.546 381.219 450.266C381.452 449.977 381.732 449.762 382.059 449.622C382.395 449.482 382.754 449.412 383.137 449.412C383.706 449.412 384.173 449.538 384.537 449.79C384.91 450.042 385.186 450.383 385.363 450.812C385.55 451.232 385.643 451.703 385.643 452.226V457H384.467V452.562C384.467 452.105 384.411 451.722 384.299 451.414C384.196 451.097 384.028 450.859 383.795 450.7C383.562 450.532 383.258 450.448 382.885 450.448C382.316 450.448 381.844 450.63 381.471 450.994C381.107 451.349 380.925 451.871 380.925 452.562V457H379.749ZM387.61 457V449.58H388.688L388.73 451.47L388.59 451.344C388.684 450.905 388.847 450.546 389.08 450.266C389.314 449.977 389.594 449.762 389.92 449.622C390.256 449.482 390.616 449.412 390.998 449.412C391.568 449.412 392.034 449.538 392.398 449.79C392.772 450.042 393.047 450.383 393.224 450.812C393.411 451.232 393.504 451.703 393.504 452.226V457H392.328V452.562C392.328 452.105 392.272 451.722 392.16 451.414C392.058 451.097 391.89 450.859 391.656 450.7C391.423 450.532 391.12 450.448 390.746 450.448C390.177 450.448 389.706 450.63 389.332 450.994C388.968 451.349 388.786 451.871 388.786 452.562V457H387.61ZM398.479 457.168C397.779 457.168 397.172 457.009 396.659 456.692C396.155 456.375 395.763 455.927 395.483 455.348C395.212 454.76 395.077 454.074 395.077 453.29C395.077 452.506 395.212 451.825 395.483 451.246C395.763 450.667 396.15 450.219 396.645 449.902C397.149 449.575 397.742 449.412 398.423 449.412C399.067 449.412 399.636 449.566 400.131 449.874C400.626 450.173 401.008 450.611 401.279 451.19C401.559 451.769 401.699 452.473 401.699 453.304V453.654H396.309C396.356 454.447 396.566 455.045 396.939 455.446C397.322 455.847 397.835 456.048 398.479 456.048C398.964 456.048 399.361 455.936 399.669 455.712C399.986 455.479 400.206 455.175 400.327 454.802L401.587 454.9C401.391 455.563 401.018 456.109 400.467 456.538C399.926 456.958 399.263 457.168 398.479 457.168ZM396.309 452.618H400.411C400.355 451.899 400.145 451.372 399.781 451.036C399.426 450.7 398.974 450.532 398.423 450.532C397.854 450.532 397.382 450.709 397.009 451.064C396.645 451.409 396.412 451.927 396.309 452.618ZM405.924 457.168C405.28 457.168 404.72 457.009 404.244 456.692C403.777 456.375 403.418 455.927 403.166 455.348C402.914 454.769 402.788 454.083 402.788 453.29C402.788 452.497 402.914 451.811 403.166 451.232C403.418 450.653 403.777 450.205 404.244 449.888C404.72 449.571 405.28 449.412 405.924 449.412C406.419 449.412 406.871 449.519 407.282 449.734C407.693 449.939 408.001 450.233 408.206 450.616V447.06H409.382V457H408.318L408.276 455.88C408.071 456.281 407.758 456.599 407.338 456.832C406.918 457.056 406.447 457.168 405.924 457.168ZM406.162 456.048C406.601 456.048 406.969 455.936 407.268 455.712C407.576 455.488 407.809 455.171 407.968 454.76C408.127 454.34 408.206 453.85 408.206 453.29C408.206 452.711 408.127 452.217 407.968 451.806C407.809 451.395 407.576 451.083 407.268 450.868C406.969 450.644 406.601 450.532 406.162 450.532C405.509 450.532 404.986 450.779 404.594 451.274C404.211 451.759 404.02 452.431 404.02 453.29C404.02 454.139 404.211 454.811 404.594 455.306C404.986 455.801 405.509 456.048 406.162 456.048ZM415.286 457V447.06H421.53V448.236H416.49V451.442H421.362V452.59H416.49V455.824H421.642V457H415.286ZM423.554 457V449.58H424.632L424.674 451.47L424.534 451.344C424.627 450.905 424.79 450.546 425.024 450.266C425.257 449.977 425.537 449.762 425.864 449.622C426.2 449.482 426.559 449.412 426.942 449.412C427.511 449.412 427.978 449.538 428.342 449.79C428.715 450.042 428.99 450.383 429.168 450.812C429.354 451.232 429.448 451.703 429.448 452.226V457H428.272V452.562C428.272 452.105 428.216 451.722 428.104 451.414C428.001 451.097 427.833 450.859 427.6 450.7C427.366 450.532 427.063 450.448 426.69 450.448C426.12 450.448 425.649 450.63 425.276 450.994C424.912 451.349 424.73 451.871 424.73 452.562V457H423.554ZM433.844 457C433.172 457 432.672 456.846 432.346 456.538C432.028 456.23 431.87 455.749 431.87 455.096V447.844H433.046V455.068C433.046 455.404 433.12 455.637 433.27 455.768C433.419 455.899 433.648 455.964 433.956 455.964H435.02V457H433.844ZM430.778 450.616V449.58H435.02V450.616H430.778ZM436.528 457V449.58H437.704V457H436.528ZM436.5 448.418V447.046H437.732V448.418H436.5ZM442.102 457C441.43 457 440.93 456.846 440.604 456.538C440.286 456.23 440.128 455.749 440.128 455.096V447.844H441.304V455.068C441.304 455.404 441.378 455.637 441.528 455.768C441.677 455.899 441.906 455.964 442.214 455.964H443.278V457H442.102ZM439.036 450.616V449.58H443.278V450.616H439.036ZM444.786 457V449.58H445.962V457H444.786ZM444.758 448.418V447.046H445.99V448.418H444.758ZM450.965 457.168C450.265 457.168 449.659 457.009 449.145 456.692C448.641 456.375 448.249 455.927 447.969 455.348C447.699 454.76 447.563 454.074 447.563 453.29C447.563 452.506 447.699 451.825 447.969 451.246C448.249 450.667 448.637 450.219 449.131 449.902C449.635 449.575 450.228 449.412 450.909 449.412C451.553 449.412 452.123 449.566 452.617 449.874C453.112 450.173 453.495 450.611 453.765 451.19C454.045 451.769 454.185 452.473 454.185 453.304V453.654H448.795C448.842 454.447 449.052 455.045 449.425 455.446C449.808 455.847 450.321 456.048 450.965 456.048C451.451 456.048 451.847 455.936 452.155 455.712C452.473 455.479 452.692 455.175 452.813 454.802L454.073 454.9C453.877 455.563 453.504 456.109 452.953 456.538C452.412 456.958 451.749 457.168 450.965 457.168ZM448.795 452.618H452.897C452.841 451.899 452.631 451.372 452.267 451.036C451.913 450.7 451.46 450.532 450.909 450.532C450.34 450.532 449.869 450.709 449.495 451.064C449.131 451.409 448.898 451.927 448.795 452.618ZM458.48 457.168C457.818 457.168 457.253 457.061 456.786 456.846C456.329 456.631 455.97 456.337 455.708 455.964C455.456 455.581 455.312 455.147 455.274 454.662L456.506 454.578C456.581 455.026 456.772 455.385 457.08 455.656C457.388 455.917 457.855 456.048 458.48 456.048C458.984 456.048 459.386 455.969 459.684 455.81C459.992 455.642 460.146 455.376 460.146 455.012C460.146 454.816 460.1 454.653 460.006 454.522C459.913 454.391 459.731 454.279 459.46 454.186C459.19 454.083 458.788 453.985 458.256 453.892C457.547 453.761 456.987 453.603 456.576 453.416C456.175 453.22 455.886 452.982 455.708 452.702C455.54 452.413 455.456 452.072 455.456 451.68C455.456 451.017 455.699 450.476 456.184 450.056C456.67 449.627 457.36 449.412 458.256 449.412C458.863 449.412 459.372 449.524 459.782 449.748C460.202 449.963 460.529 450.252 460.762 450.616C461.005 450.971 461.164 451.363 461.238 451.792L460.006 451.876C459.95 451.615 459.848 451.386 459.698 451.19C459.549 450.985 459.353 450.826 459.11 450.714C458.868 450.593 458.578 450.532 458.242 450.532C457.71 450.532 457.318 450.635 457.066 450.84C456.814 451.045 456.688 451.307 456.688 451.624C456.688 451.867 456.744 452.067 456.856 452.226C456.978 452.375 457.169 452.501 457.43 452.604C457.692 452.697 458.042 452.781 458.48 452.856C459.236 452.987 459.824 453.145 460.244 453.332C460.664 453.519 460.958 453.747 461.126 454.018C461.294 454.289 461.378 454.62 461.378 455.012C461.378 455.469 461.248 455.861 460.986 456.188C460.734 456.505 460.389 456.748 459.95 456.916C459.521 457.084 459.031 457.168 458.48 457.168Z" fill="#DCDADF"/>
<path d="M344.506 487V474.338H340.554V471.764H342.14C342.886 471.764 343.484 471.669 343.934 471.478C344.385 471.287 344.706 470.958 344.896 470.49C345.104 470.005 345.208 469.355 345.208 468.54H347.886V487H344.506ZM354.955 487C354.955 485.093 355.197 483.23 355.683 481.41C356.185 479.59 356.887 477.848 357.789 476.184C358.707 474.503 359.791 472.934 361.039 471.478H351.081V468.54H364.549V471.296C363.162 472.856 362.009 474.433 361.091 476.028C360.172 477.605 359.487 479.295 359.037 481.098C358.603 482.883 358.387 484.851 358.387 487H354.955ZM363.412 491.108L364.764 487H363.178V483.36H366.974V486.584L365.258 491.108H363.412ZM376.414 487.416C374.854 487.416 373.493 487.026 372.332 486.246C371.188 485.466 370.304 484.357 369.68 482.918C369.056 481.479 368.744 479.772 368.744 477.796C368.744 475.82 369.056 474.113 369.68 472.674C370.304 471.218 371.188 470.1 372.332 469.32C373.493 468.523 374.854 468.124 376.414 468.124C378.009 468.124 379.378 468.523 380.522 469.32C381.666 470.1 382.55 471.209 383.174 472.648C383.798 474.087 384.11 475.803 384.11 477.796C384.11 479.772 383.798 481.479 383.174 482.918C382.55 484.357 381.666 485.466 380.522 486.246C379.378 487.026 378.009 487.416 376.414 487.416ZM376.414 484.478C377.766 484.478 378.806 483.915 379.534 482.788C380.262 481.644 380.626 479.98 380.626 477.796C380.626 476.34 380.461 475.109 380.132 474.104C379.803 473.099 379.326 472.345 378.702 471.842C378.095 471.322 377.333 471.062 376.414 471.062C375.53 471.062 374.776 471.322 374.152 471.842C373.528 472.345 373.051 473.099 372.722 474.104C372.393 475.109 372.228 476.34 372.228 477.796C372.228 479.98 372.592 481.644 373.32 482.788C374.048 483.915 375.079 484.478 376.414 484.478ZM393.822 487.416C392.296 487.416 391.014 487.087 389.974 486.428C388.934 485.769 388.145 484.807 387.608 483.542C387.088 482.277 386.828 480.76 386.828 478.992C386.828 477.449 386.975 476.019 387.27 474.702C387.564 473.385 388.015 472.241 388.622 471.27C389.246 470.282 390.034 469.511 390.988 468.956C391.958 468.401 393.12 468.124 394.472 468.124C396.205 468.124 397.574 468.549 398.58 469.398C399.585 470.247 400.261 471.383 400.608 472.804L397.41 473.064C397.202 472.423 396.872 471.929 396.422 471.582C395.988 471.218 395.33 471.036 394.446 471.036C393.128 471.036 392.088 471.599 391.326 472.726C390.58 473.853 390.182 475.595 390.13 477.952L389.61 477.848C389.783 477.311 390.086 476.808 390.52 476.34C390.97 475.872 391.525 475.499 392.184 475.222C392.842 474.927 393.614 474.78 394.498 474.78C395.746 474.78 396.829 475.031 397.748 475.534C398.684 476.037 399.412 476.756 399.932 477.692C400.452 478.611 400.712 479.685 400.712 480.916C400.712 482.268 400.417 483.438 399.828 484.426C399.238 485.397 398.424 486.142 397.384 486.662C396.361 487.165 395.174 487.416 393.822 487.416ZM393.822 484.582C394.844 484.582 395.676 484.261 396.318 483.62C396.976 482.961 397.306 482.06 397.306 480.916C397.306 480.205 397.158 479.581 396.864 479.044C396.586 478.507 396.196 478.099 395.694 477.822C395.208 477.527 394.628 477.38 393.952 477.38C393.241 477.38 392.608 477.527 392.054 477.822C391.516 478.099 391.083 478.507 390.754 479.044C390.442 479.581 390.286 480.205 390.286 480.916C390.286 481.644 390.424 482.285 390.702 482.84C390.996 483.377 391.412 483.802 391.95 484.114C392.487 484.426 393.111 484.582 393.822 484.582ZM406.599 487C406.599 485.093 406.842 483.23 407.327 481.41C407.83 479.59 408.532 477.848 409.433 476.184C410.352 474.503 411.435 472.934 412.683 471.478H402.725V468.54H416.193V471.296C414.806 472.856 413.654 474.433 412.735 476.028C411.816 477.605 411.132 479.295 410.681 481.098C410.248 482.883 410.031 484.851 410.031 487H406.599ZM415.057 491.108L416.409 487H414.823V483.36H418.619V486.584L416.903 491.108H415.057ZM422.71 487V474.338H418.758V471.764H420.344C421.089 471.764 421.687 471.669 422.138 471.478C422.588 471.287 422.909 470.958 423.1 470.49C423.308 470.005 423.412 469.355 423.412 468.54H426.09V487H422.71ZM438.289 487V483.308H429.033V480.552L437.743 468.54H441.669V480.37H443.879V483.308H441.669V487H438.289ZM432.725 480.37H438.289V472.934L432.725 480.37ZM453.02 487.416C451.356 487.416 450.013 487.035 448.99 486.272C447.968 485.492 447.257 484.417 446.858 483.048L450.16 482.84C450.351 483.377 450.68 483.793 451.148 484.088C451.634 484.365 452.258 484.504 453.02 484.504C454.39 484.504 455.412 483.984 456.088 482.944C456.782 481.887 457.137 480.171 457.154 477.796L457.648 477.952C457.215 478.975 456.574 479.746 455.724 480.266C454.892 480.786 453.887 481.046 452.708 481.046C451.495 481.046 450.42 480.786 449.484 480.266C448.566 479.729 447.846 478.992 447.326 478.056C446.806 477.12 446.546 476.019 446.546 474.754C446.546 473.385 446.832 472.206 447.404 471.218C447.976 470.23 448.765 469.467 449.77 468.93C450.793 468.393 451.972 468.124 453.306 468.124C454.936 468.124 456.279 468.479 457.336 469.19C458.411 469.883 459.2 470.889 459.702 472.206C460.222 473.523 460.482 475.118 460.482 476.99C460.482 478.567 460.344 479.997 460.066 481.28C459.789 482.563 459.347 483.663 458.74 484.582C458.134 485.483 457.354 486.185 456.4 486.688C455.464 487.173 454.338 487.416 453.02 487.416ZM453.332 478.394C454.043 478.394 454.658 478.255 455.178 477.978C455.716 477.683 456.132 477.267 456.426 476.73C456.738 476.175 456.894 475.517 456.894 474.754C456.894 473.991 456.756 473.333 456.478 472.778C456.201 472.206 455.802 471.764 455.282 471.452C454.762 471.123 454.138 470.958 453.41 470.958C452.7 470.958 452.084 471.114 451.564 471.426C451.062 471.738 450.672 472.18 450.394 472.752C450.117 473.307 449.978 473.965 449.978 474.728C449.978 475.473 450.117 476.123 450.394 476.678C450.672 477.233 451.062 477.657 451.564 477.952C452.067 478.247 452.656 478.394 453.332 478.394Z" fill="#DCDADF"/>
</svg>
