<svg width="60" height="60" viewBox="0 0 60 60" fill="none" xmlns="http://www.w3.org/2000/svg">
<g clip-path="url(#clip0_2161_2433)">
<path d="M57.7996 13.9C58.9996 13.9 59.9996 14.9 59.9996 16.1C59.9996 17.3 58.9996 18.3 57.7996 18.3C56.5996 18.3 55.5996 17.3 55.5996 16.1C55.5996 14.9 56.5996 13.9 57.7996 13.9Z" fill="#F5F5F7"/>
<path d="M51.6004 13.9C52.8004 13.9 53.8004 14.9 53.8004 16.1C53.8004 17.3 52.8004 18.3 51.6004 18.3C50.4004 18.3 49.4004 17.3 49.4004 16.1C49.4004 14.9 50.4004 13.9 51.6004 13.9Z" fill="#F5F5F7"/>
<path d="M45.4002 13.9C46.6002 13.9 47.6002 14.9 47.6002 16.1C47.6002 17.3 46.6002 18.3 45.4002 18.3C44.2002 18.3 43.2002 17.3 43.2002 16.1C43.2002 14.9 44.2002 13.9 45.4002 13.9Z" fill="#F5F5F7"/>
<path d="M39.2996 13.9C40.4996 13.9 41.4996 14.9 41.4996 16.1C41.4996 17.3 40.4996 18.3 39.2996 18.3C38.0996 18.3 37.0996 17.3 37.0996 16.1C37.0996 14.9 38.0996 13.9 39.2996 13.9Z" fill="#F5F5F7"/>
<path d="M33.1004 13.9C34.3004 13.9 35.3004 14.9 35.3004 16.1C35.3004 17.3 34.3004 18.3 33.1004 18.3C31.9004 18.3 30.9004 17.3 30.9004 16.1C30.9004 14.9 31.9004 13.9 33.1004 13.9Z" fill="#F5F5F7"/>
<path d="M26.9002 13.9C28.1002 13.9 29.1002 14.9 29.1002 16.1C29.1002 17.3 28.1002 18.3 26.9002 18.3C25.7002 18.3 24.7002 17.3 24.7002 16.1C24.7002 14.9 25.7002 13.9 26.9002 13.9Z" fill="#F5F5F7"/>
<path d="M20.7 13.9C21.9 13.9 22.9 14.9 22.9 16.1C22.9 17.3 21.9 18.3 20.7 18.3C19.5 18.3 18.5 17.3 18.5 16.1C18.5 14.9 19.5 13.9 20.7 13.9Z" fill="#CECED6"/>
<path d="M14.6004 13.9C15.8004 13.9 16.8004 14.9 16.8004 16.1C16.8004 17.3 15.8004 18.3 14.6004 18.3C13.4004 18.3 12.4004 17.3 12.4004 16.1C12.4004 14.9 13.4004 13.9 14.6004 13.9Z" fill="#F5F5F7"/>
<path d="M8.4002 13.9C9.6002 13.9 10.6002 14.9 10.6002 16.1C10.6002 17.3 9.6002 18.3 8.4002 18.3C7.2002 18.3 6.2002 17.3 6.2002 16.1C6.2002 14.9 7.2002 13.9 8.4002 13.9Z" fill="#CECED6"/>
<path d="M2.2 13.9C3.4 13.9 4.4 14.9 4.4 16.1C4.4 17.3 3.4 18.3 2.2 18.3C1 18.3 0 17.3 0 16.1C0 14.9 1 13.9 2.2 13.9Z" fill="#F5F5F7"/>
<path d="M57.7996 55.6C58.9996 55.6 59.9996 56.6 59.9996 57.8C59.9996 59 58.9996 60 57.7996 60C56.5996 60 55.5996 59 55.5996 57.8C55.5996 56.6 56.5996 55.6 57.7996 55.6Z" fill="#FF7700"/>
<path d="M51.6004 55.6C52.8004 55.6 53.8004 56.6 53.8004 57.8C53.8004 59 52.8004 60 51.6004 60C50.4004 60 49.4004 59 49.4004 57.8C49.4004 56.6 50.4004 55.6 51.6004 55.6Z" fill="#FF073A"/>
<path d="M45.4002 55.6C46.6002 55.6 47.6002 56.6 47.6002 57.8C47.6002 59 46.6002 60 45.4002 60C44.2002 60 43.2002 59 43.2002 57.8C43.2002 56.6 44.2002 55.6 45.4002 55.6Z" fill="#FF073A"/>
<path d="M39.2996 55.6C40.4996 55.6 41.4996 56.6 41.4996 57.8C41.4996 59 40.4996 60 39.2996 60C38.0996 60 37.0996 59 37.0996 57.8C37.0996 56.6 38.0996 55.6 39.2996 55.6Z" fill="#FF073A"/>
<path d="M33.1004 55.6C34.3004 55.6 35.3004 56.6 35.3004 57.8C35.3004 59 34.3004 60 33.1004 60C31.9004 60 30.9004 59 30.9004 57.8C30.9004 56.6 31.9004 55.6 33.1004 55.6Z" fill="#FF073A"/>
<path d="M26.9002 55.6C28.1002 55.6 29.1002 56.6 29.1002 57.8C29.1002 59 28.1002 60 26.9002 60C25.7002 60 24.7002 59 24.7002 57.8C24.7002 56.6 25.7002 55.6 26.9002 55.6Z" fill="#FF7700"/>
<path d="M20.7 55.6C21.9 55.6 22.9 56.6 22.9 57.8C22.9 59 21.9 60 20.7 60C19.5 60 18.5 59 18.5 57.8C18.5 56.6 19.5 55.6 20.7 55.6Z" fill="#FF7700"/>
<path d="M14.6004 55.6C15.8004 55.6 16.8004 56.6 16.8004 57.8C16.8004 59 15.8004 60 14.6004 60C13.4004 60 12.4004 59 12.4004 57.8C12.4004 56.6 13.4004 55.6 14.6004 55.6Z" fill="#FF7700"/>
<path d="M8.4002 55.6C9.6002 55.6 10.6002 56.6 10.6002 57.8C10.6002 59 9.6002 60 8.4002 60C7.2002 60 6.2002 59 6.2002 57.8C6.2002 56.6 7.2002 55.6 8.4002 55.6Z" fill="#FF7700"/>
<path d="M2.2 55.6C3.4 55.6 4.4 56.6 4.4 57.8C4.4 59 3.4 60 2.2 60C1 60 0 59 0 57.8C0 56.6 1 55.6 2.2 55.6Z" fill="#FF073A"/>
<path d="M57.7996 48.7C58.9996 48.7 59.9996 49.7 59.9996 50.9C59.9996 52.1 58.9996 53.0999 57.7996 53.0999C56.5996 53.0999 55.5996 52.1 55.5996 50.9C55.5996 49.7 56.5996 48.7 57.7996 48.7Z" fill="#FFCC00"/>
<path d="M51.6004 48.7C52.8004 48.7 53.8004 49.7 53.8004 50.9C53.8004 52.1 52.8004 53.0999 51.6004 53.0999C50.4004 53.0999 49.4004 52.1 49.4004 50.9C49.4004 49.7 50.4004 48.7 51.6004 48.7Z" fill="#9C9EAD"/>
<path d="M45.4002 48.7C46.6002 48.7 47.6002 49.7 47.6002 50.9C47.6002 52.1 46.6002 53.0999 45.4002 53.0999C44.2002 53.0999 43.2002 52.1 43.2002 50.9C43.2002 49.7 44.2002 48.7 45.4002 48.7Z" fill="#9C9EAD"/>
<path d="M39.2996 48.7C40.4996 48.7 41.4996 49.7 41.4996 50.9C41.4996 52.1 40.4996 53.0999 39.2996 53.0999C38.0996 53.0999 37.0996 52.1 37.0996 50.9C37.0996 49.7 38.0996 48.7 39.2996 48.7Z" fill="#FFCC00"/>
<path d="M33.1004 48.7C34.3004 48.7 35.3004 49.7 35.3004 50.9C35.3004 52.1 34.3004 53.0999 33.1004 53.0999C31.9004 53.0999 30.9004 52.1 30.9004 50.9C30.9004 49.7 31.9004 48.7 33.1004 48.7Z" fill="#9C9EAD"/>
<path d="M26.9002 48.7C28.1002 48.7 29.1002 49.7 29.1002 50.9C29.1002 52.1 28.1002 53.0999 26.9002 53.0999C25.7002 53.0999 24.7002 52.1 24.7002 50.9C24.7002 49.7 25.7002 48.7 26.9002 48.7Z" fill="#9C9EAD"/>
<path d="M20.7 48.7C21.9 48.7 22.9 49.7 22.9 50.9C22.9 52.1 21.9 53.0999 20.7 53.0999C19.5 53.0999 18.5 52.1 18.5 50.9C18.5 49.7 19.5 48.7 20.7 48.7Z" fill="#393D5A"/>
<path d="M14.6004 48.7C15.8004 48.7 16.8004 49.7 16.8004 50.9C16.8004 52.1 15.8004 53.0999 14.6004 53.0999C13.4004 53.0999 12.4004 52.1 12.4004 50.9C12.4004 49.7 13.4004 48.7 14.6004 48.7Z" fill="#FFCC00"/>
<path d="M8.4002 48.7C9.6002 48.7 10.6002 49.7 10.6002 50.9C10.6002 52.1 9.6002 53.0999 8.4002 53.0999C7.2002 53.0999 6.2002 52.1 6.2002 50.9C6.2002 49.7 7.2002 48.7 8.4002 48.7Z" fill="#9C9EAD"/>
<path d="M2.2 48.7C3.4 48.7 4.4 49.7 4.4 50.9C4.4 52.1 3.4 53.0999 2.2 53.0999C1 53.0999 0 52.1 0 50.9C0 49.7 1 48.7 2.2 48.7Z" fill="#FF7700"/>
<path d="M57.7996 41.7C58.9996 41.7 59.9996 42.7 59.9996 43.9C59.9996 45.1 58.9996 46.0999 57.7996 46.0999C56.5996 46.0999 55.5996 45.1 55.5996 43.9C55.5996 42.7 56.5996 41.7 57.7996 41.7Z" fill="#9C9EAD"/>
<path d="M51.6004 41.7C52.8004 41.7 53.8004 42.7 53.8004 43.9C53.8004 45.1 52.8004 46.0999 51.6004 46.0999C50.4004 46.0999 49.4004 45.1 49.4004 43.9C49.4004 42.7 50.4004 41.7 51.6004 41.7Z" fill="#CECED6"/>
<path d="M45.4002 41.7C46.6002 41.7 47.6002 42.7 47.6002 43.9C47.6002 45.1 46.6002 46.0999 45.4002 46.0999C44.2002 46.0999 43.2002 45.1 43.2002 43.9C43.2002 42.7 44.2002 41.7 45.4002 41.7Z" fill="#9C9EAD"/>
<path d="M39.2996 41.7C40.4996 41.7 41.4996 42.7 41.4996 43.9C41.4996 45.1 40.4996 46.0999 39.2996 46.0999C38.0996 46.0999 37.0996 45.1 37.0996 43.9C37.0996 42.7 38.0996 41.7 39.2996 41.7Z" fill="#9C9EAD"/>
<path d="M33.1004 41.7C34.3004 41.7 35.3004 42.7 35.3004 43.9C35.3004 45.1 34.3004 46.0999 33.1004 46.0999C31.9004 46.0999 30.9004 45.1 30.9004 43.9C30.9004 42.7 31.9004 41.7 33.1004 41.7Z" fill="#9C9EAD"/>
<path d="M26.9002 41.7C28.1002 41.7 29.1002 42.7 29.1002 43.9C29.1002 45.1 28.1002 46.0999 26.9002 46.0999C25.7002 46.0999 24.7002 45.1 24.7002 43.9C24.7002 42.7 25.7002 41.7 26.9002 41.7Z" fill="#FFCC00"/>
<path d="M20.7 41.7C21.9 41.7 22.9 42.7 22.9 43.9C22.9 45.1 21.9 46.0999 20.7 46.0999C19.5 46.0999 18.5 45.1 18.5 43.9C18.5 42.7 19.5 41.7 20.7 41.7Z" fill="#CECED6"/>
<path d="M14.6004 41.7C15.8004 41.7 16.8004 42.7 16.8004 43.9C16.8004 45.1 15.8004 46.0999 14.6004 46.0999C13.4004 46.0999 12.4004 45.1 12.4004 43.9C12.4004 42.7 13.4004 41.7 14.6004 41.7Z" fill="#9C9EAD"/>
<path d="M8.4002 41.7C9.6002 41.7 10.6002 42.7 10.6002 43.9C10.6002 45.1 9.6002 46.0999 8.4002 46.0999C7.2002 46.0999 6.2002 45.1 6.2002 43.9C6.2002 42.7 7.2002 41.7 8.4002 41.7Z" fill="#9C9EAD"/>
<path d="M2.2 41.7C3.4 41.7 4.4 42.7 4.4 43.9C4.4 45.1 3.4 46.0999 2.2 46.0999C1 46.0999 0 45.1 0 43.9C0 42.7 1 41.7 2.2 41.7Z" fill="#9C9EAD"/>
<path d="M57.7996 34.8C58.9996 34.8 59.9996 35.8 59.9996 37C59.9996 38.2 58.9996 39.2001 57.7996 39.2001C56.5996 39.2001 55.5996 38.2 55.5996 37C55.5996 35.8 56.5996 34.8 57.7996 34.8Z" fill="#CECED6"/>
<path d="M51.6004 34.8C52.8004 34.8 53.8004 35.8 53.8004 37C53.8004 38.2 52.8004 39.2001 51.6004 39.2001C50.4004 39.2001 49.4004 38.2 49.4004 37C49.4004 35.8 50.4004 34.8 51.6004 34.8Z" fill="#CECED6"/>
<path d="M45.4002 34.8C46.6002 34.8 47.6002 35.8 47.6002 37C47.6002 38.2 46.6002 39.2001 45.4002 39.2001C44.2002 39.2001 43.2002 38.2 43.2002 37C43.2002 35.8 44.2002 34.8 45.4002 34.8Z" fill="#9C9EAD"/>
<path d="M39.2996 34.8C40.4996 34.8 41.4996 35.8 41.4996 37C41.4996 38.2 40.4996 39.2001 39.2996 39.2001C38.0996 39.2001 37.0996 38.2 37.0996 37C37.0996 35.8 38.0996 34.8 39.2996 34.8Z" fill="#9C9EAD"/>
<path d="M33.1004 34.8C34.3004 34.8 35.3004 35.8 35.3004 37C35.3004 38.2 34.3004 39.2001 33.1004 39.2001C31.9004 39.2001 30.9004 38.2 30.9004 37C30.9004 35.8 31.9004 34.8 33.1004 34.8Z" fill="#9C9EAD"/>
<path d="M26.9002 34.8C28.1002 34.8 29.1002 35.8 29.1002 37C29.1002 38.2 28.1002 39.2001 26.9002 39.2001C25.7002 39.2001 24.7002 38.2 24.7002 37C24.7002 35.8 25.7002 34.8 26.9002 34.8Z" fill="#9C9EAD"/>
<path d="M20.7 34.8C21.9 34.8 22.9 35.8 22.9 37C22.9 38.2 21.9 39.2001 20.7 39.2001C19.5 39.2001 18.5 38.2 18.5 37C18.5 35.8 19.5 34.8 20.7 34.8Z" fill="#CECED6"/>
<path d="M14.6004 34.8C15.8004 34.8 16.8004 35.8 16.8004 37C16.8004 38.2 15.8004 39.2001 14.6004 39.2001C13.4004 39.2001 12.4004 38.2 12.4004 37C12.4004 35.8 13.4004 34.8 14.6004 34.8Z" fill="#9C9EAD"/>
<path d="M8.4002 34.8C9.6002 34.8 10.6002 35.8 10.6002 37C10.6002 38.2 9.6002 39.2001 8.4002 39.2001C7.2002 39.2001 6.2002 38.2 6.2002 37C6.2002 35.8 7.2002 34.8 8.4002 34.8Z" fill="#9C9EAD"/>
<path d="M2.2 34.8C3.4 34.8 4.4 35.8 4.4 37C4.4 38.2 3.4 39.2001 2.2 39.2001C1 39.2001 0 38.2 0 37C0 35.8 1 34.8 2.2 34.8Z" fill="#9C9EAD"/>
<path d="M57.7996 27.8C58.9996 27.8 59.9996 28.8 59.9996 30C59.9996 31.2 58.9996 32.2001 57.7996 32.2001C56.5996 32.2001 55.5996 31.2 55.5996 30C55.5996 28.8 56.5996 27.8 57.7996 27.8Z" fill="#CECED6"/>
<path d="M51.6004 27.8C52.8004 27.8 53.8004 28.8 53.8004 30C53.8004 31.2 52.8004 32.2001 51.6004 32.2001C50.4004 32.2001 49.4004 31.2 49.4004 30C49.4004 28.8 50.4004 27.8 51.6004 27.8Z" fill="#F5F5F7"/>
<path d="M45.4002 27.8C46.6002 27.8 47.6002 28.8 47.6002 30C47.6002 31.2 46.6002 32.2001 45.4002 32.2001C44.2002 32.2001 43.2002 31.2 43.2002 30C43.2002 28.8 44.2002 27.8 45.4002 27.8Z" fill="#9C9EAD"/>
<path d="M39.2996 27.8C40.4996 27.8 41.4996 28.8 41.4996 30C41.4996 31.2 40.4996 32.2001 39.2996 32.2001C38.0996 32.2001 37.0996 31.2 37.0996 30C37.0996 28.8 38.0996 27.8 39.2996 27.8Z" fill="#9C9EAD"/>
<path d="M33.1004 27.8C34.3004 27.8 35.3004 28.8 35.3004 30C35.3004 31.2 34.3004 32.2001 33.1004 32.2001C31.9004 32.2001 30.9004 31.2 30.9004 30C30.9004 28.8 31.9004 27.8 33.1004 27.8Z" fill="#9C9EAD"/>
<path d="M26.9002 27.8C28.1002 27.8 29.1002 28.8 29.1002 30C29.1002 31.2 28.1002 32.2001 26.9002 32.2001C25.7002 32.2001 24.7002 31.2 24.7002 30C24.7002 28.8 25.7002 27.8 26.9002 27.8Z" fill="#9C9EAD"/>
<path d="M20.7 27.8C21.9 27.8 22.9 28.8 22.9 30C22.9 31.2 21.9 32.2001 20.7 32.2001C19.5 32.2001 18.5 31.2 18.5 30C18.5 28.8 19.5 27.8 20.7 27.8Z" fill="#CECED6"/>
<path d="M14.6004 27.8C15.8004 27.8 16.8004 28.8 16.8004 30C16.8004 31.2 15.8004 32.2001 14.6004 32.2001C13.4004 32.2001 12.4004 31.2 12.4004 30C12.4004 28.8 13.4004 27.8 14.6004 27.8Z" fill="#9C9EAD"/>
<path d="M8.4002 27.8C9.6002 27.8 10.6002 28.8 10.6002 30C10.6002 31.2 9.6002 32.2001 8.4002 32.2001C7.2002 32.2001 6.2002 31.2 6.2002 30C6.2002 28.8 7.2002 27.8 8.4002 27.8Z" fill="#CECED6"/>
<path d="M2.2 27.8C3.4 27.8 4.4 28.8 4.4 30C4.4 31.2 3.4 32.2001 2.2 32.2001C1 32.2001 0 31.2 0 30C0 28.8 1 27.8 2.2 27.8Z" fill="#9C9EAD"/>
<path d="M57.7996 20.9C58.9996 20.9 59.9996 21.9 59.9996 23.1C59.9996 24.3 58.9996 25.3 57.7996 25.3C56.5996 25.3 55.5996 24.3 55.5996 23.1C55.5996 21.9 56.5996 20.9 57.7996 20.9Z" fill="#CECED6"/>
<path d="M51.6004 20.9C52.8004 20.9 53.8004 21.9 53.8004 23.1C53.8004 24.3 52.8004 25.3 51.6004 25.3C50.4004 25.3 49.4004 24.3 49.4004 23.1C49.4004 21.9 50.4004 20.9 51.6004 20.9Z" fill="#F5F5F7"/>
<path d="M45.4002 20.9C46.6002 20.9 47.6002 21.9 47.6002 23.1C47.6002 24.3 46.6002 25.3 45.4002 25.3C44.2002 25.3 43.2002 24.3 43.2002 23.1C43.2002 21.9 44.2002 20.9 45.4002 20.9Z" fill="#CECED6"/>
<path d="M39.2996 20.9C40.4996 20.9 41.4996 21.9 41.4996 23.1C41.4996 24.3 40.4996 25.3 39.2996 25.3C38.0996 25.3 37.0996 24.3 37.0996 23.1C37.0996 21.9 38.0996 20.9 39.2996 20.9Z" fill="#F5F5F7"/>
<path d="M33.1004 20.9C34.3004 20.9 35.3004 21.9 35.3004 23.1C35.3004 24.3 34.3004 25.3 33.1004 25.3C31.9004 25.3 30.9004 24.3 30.9004 23.1C30.9004 21.9 31.9004 20.9 33.1004 20.9Z" fill="#F5F5F7"/>
<path d="M26.9002 20.9C28.1002 20.9 29.1002 21.9 29.1002 23.1C29.1002 24.3 28.1002 25.3 26.9002 25.3C25.7002 25.3 24.7002 24.3 24.7002 23.1C24.7002 21.9 25.7002 20.9 26.9002 20.9Z" fill="#CECED6"/>
<path d="M20.7 20.9C21.9 20.9 22.9 21.9 22.9 23.1C22.9 24.3 21.9 25.3 20.7 25.3C19.5 25.3 18.5 24.3 18.5 23.1C18.5 21.9 19.5 20.9 20.7 20.9Z" fill="#CECED6"/>
<path d="M14.6004 20.9C15.8004 20.9 16.8004 21.9 16.8004 23.1C16.8004 24.3 15.8004 25.3 14.6004 25.3C13.4004 25.3 12.4004 24.3 12.4004 23.1C12.4004 21.9 13.4004 20.9 14.6004 20.9Z" fill="#F5F5F7"/>
<path d="M8.4002 20.9C9.6002 20.9 10.6002 21.9 10.6002 23.1C10.6002 24.3 9.6002 25.3 8.4002 25.3C7.2002 25.3 6.2002 24.3 6.2002 23.1C6.2002 21.9 7.2002 20.9 8.4002 20.9Z" fill="#CECED6"/>
<path d="M2.2 20.9C3.4 20.9 4.4 21.9 4.4 23.1C4.4 24.3 3.4 25.3 2.2 25.3C1 25.3 0 24.3 0 23.1C0 21.9 1 20.9 2.2 20.9Z" fill="#CECED6"/>
<path d="M57.7996 7C58.9996 7 59.9996 8 59.9996 9.2C59.9996 10.4 58.9996 11.4 57.7996 11.4C56.5996 11.4 55.5996 10.4 55.5996 9.2C55.5996 8 56.5996 7 57.7996 7Z" fill="#F5F5F7"/>
<path d="M51.6004 7C52.8004 7 53.8004 8 53.8004 9.2C53.8004 10.4 52.8004 11.4 51.6004 11.4C50.4004 11.4 49.4004 10.4 49.4004 9.2C49.4004 8 50.4004 7 51.6004 7Z" fill="#F5F5F7"/>
<path d="M45.4002 7C46.6002 7 47.6002 8 47.6002 9.2C47.6002 10.4 46.6002 11.4 45.4002 11.4C44.2002 11.4 43.2002 10.4 43.2002 9.2C43.2002 8 44.2002 7 45.4002 7Z" fill="#F5F5F7"/>
<path d="M39.2996 7C40.4996 7 41.4996 8 41.4996 9.2C41.4996 10.4 40.4996 11.4 39.2996 11.4C38.0996 11.4 37.0996 10.4 37.0996 9.2C37.0996 8 38.0996 7 39.2996 7Z" fill="#F5F5F7"/>
<path d="M33.1004 7C34.3004 7 35.3004 8 35.3004 9.2C35.3004 10.4 34.3004 11.4 33.1004 11.4C31.9004 11.4 30.9004 10.4 30.9004 9.2C30.9004 8 31.9004 7 33.1004 7Z" fill="#F5F5F7"/>
<path d="M26.9002 7C28.1002 7 29.1002 8 29.1002 9.2C29.1002 10.4 28.1002 11.4 26.9002 11.4C25.7002 11.4 24.7002 10.4 24.7002 9.2C24.7002 8 25.7002 7 26.9002 7Z" fill="#F5F5F7"/>
<path d="M20.7 7C21.9 7 22.9 8 22.9 9.2C22.9 10.4 21.9 11.4 20.7 11.4C19.5 11.4 18.5 10.4 18.5 9.2C18.5 8 19.5 7 20.7 7Z" fill="#F5F5F7"/>
<path d="M14.6004 7C15.8004 7 16.8004 8 16.8004 9.2C16.8004 10.4 15.8004 11.4 14.6004 11.4C13.4004 11.4 12.4004 10.4 12.4004 9.2C12.4004 8 13.4004 7 14.6004 7Z" fill="#F5F5F7"/>
<path d="M8.4002 7C9.6002 7 10.6002 8 10.6002 9.2C10.6002 10.4 9.6002 11.4 8.4002 11.4C7.2002 11.4 6.2002 10.4 6.2002 9.2C6.2002 8 7.2002 7 8.4002 7Z" fill="#F5F5F7"/>
<path d="M2.2 7C3.4 7 4.4 8 4.4 9.2C4.4 10.4 3.4 11.4 2.2 11.4C1 11.4 0 10.4 0 9.2C0 8 1 7 2.2 7Z" fill="#F5F5F7"/>
<path d="M57.7996 0C58.9996 0 59.9996 1 59.9996 2.2C59.9996 3.4 58.9996 4.4 57.7996 4.4C56.5996 4.4 55.5996 3.4 55.5996 2.2C55.5996 1 56.5996 0 57.7996 0Z" fill="#F5F5F7"/>
<path d="M51.6004 0C52.8004 0 53.8004 1 53.8004 2.2C53.8004 3.4 52.8004 4.4 51.6004 4.4C50.4004 4.4 49.4004 3.4 49.4004 2.2C49.4004 1 50.4004 0 51.6004 0Z" fill="#F5F5F7"/>
<path d="M45.4002 0C46.6002 0 47.6002 1 47.6002 2.2C47.6002 3.4 46.6002 4.4 45.4002 4.4C44.2002 4.4 43.2002 3.4 43.2002 2.2C43.2002 1 44.2002 0 45.4002 0Z" fill="#F5F5F7"/>
<path d="M39.2996 0C40.4996 0 41.4996 1 41.4996 2.2C41.4996 3.4 40.4996 4.4 39.2996 4.4C38.0996 4.4 37.0996 3.4 37.0996 2.2C37.0996 1 38.0996 0 39.2996 0Z" fill="#F5F5F7"/>
<path d="M33.1004 0C34.3004 0 35.3004 1 35.3004 2.2C35.3004 3.4 34.3004 4.4 33.1004 4.4C31.9004 4.4 30.9004 3.4 30.9004 2.2C30.9004 1 31.9004 0 33.1004 0Z" fill="#F5F5F7"/>
<path d="M26.9002 0C28.1002 0 29.1002 1 29.1002 2.2C29.1002 3.4 28.1002 4.4 26.9002 4.4C25.7002 4.4 24.7002 3.4 24.7002 2.2C24.7002 1 25.7002 0 26.9002 0Z" fill="#F5F5F7"/>
<path d="M20.7 0C21.9 0 22.9 1 22.9 2.2C22.9 3.4 21.9 4.4 20.7 4.4C19.5 4.4 18.5 3.4 18.5 2.2C18.5 1 19.5 0 20.7 0Z" fill="#F5F5F7"/>
<path d="M14.6004 0C15.8004 0 16.8004 1 16.8004 2.2C16.8004 3.4 15.8004 4.4 14.6004 4.4C13.4004 4.4 12.4004 3.4 12.4004 2.2C12.4004 1 13.4004 0 14.6004 0Z" fill="#F5F5F7"/>
<path d="M8.4002 0C9.6002 0 10.6002 1 10.6002 2.2C10.6002 3.4 9.6002 4.4 8.4002 4.4C7.2002 4.4 6.2002 3.4 6.2002 2.2C6.2002 1 7.2002 0 8.4002 0Z" fill="#F5F5F7"/>
<path d="M2.2 0C3.4 0 4.4 1 4.4 2.2C4.4 3.4 3.4 4.4 2.2 4.4C1 4.4 0 3.4 0 2.2C0 1 1 0 2.2 0Z" fill="#F5F5F7"/>
</g>
<defs>
<clipPath id="clip0_2161_2433">
<rect width="60" height="60" fill="white"/>
</clipPath>
</defs>
</svg>
