<svg width="450" height="405" viewBox="0 0 450 405" fill="none" xmlns="http://www.w3.org/2000/svg">
<g clip-path="url(#clip0_1912_41820)">
<path d="M38.9248 303.9L338.925 130.725" stroke="#D7D2EE" stroke-width="0.75" stroke-miterlimit="10"/>
<path d="M22.875 353.85L442.125 111.825" stroke="#D7D2EE" stroke-width="0.75" stroke-miterlimit="10"/>
<path d="M166.725 311.475L432.375 158.1" stroke="#D7D2EE" stroke-width="0.75" stroke-miterlimit="10"/>
<path d="M86.0996 398.7L344.85 249.375" stroke="#D7D2EE" stroke-width="0.75" stroke-miterlimit="10"/>
<path d="M165.45 393.6L432.375 239.475" stroke="#D7D2EE" stroke-width="0.75" stroke-miterlimit="10"/>
<path d="M244.65 388.575L446.85 271.8" stroke="#D7D2EE" stroke-width="0.75" stroke-miterlimit="10"/>
<path d="M349.8 368.55L446.85 312.525" stroke="#D7D2EE" stroke-width="0.75" stroke-miterlimit="10"/>
<path d="M369.3 160.95L411.45 185.25" stroke="#D7D2EE" stroke-width="0.75" stroke-miterlimit="10"/>
<path d="M336.525 182.775L378.075 206.7" stroke="#D7D2EE" stroke-width="0.75" stroke-miterlimit="10"/>
<path d="M239.175 167.25L438.675 282.45" stroke="#D7D2EE" stroke-width="0.75" stroke-miterlimit="10"/>
<path d="M438.675 323.175L398.25 299.85L363.075 279.525L327.825 259.2L292.575 238.8L257.325 218.475L176.4 171.75" stroke="#D7D2EE" stroke-width="0.75" stroke-miterlimit="10"/>
<path d="M438.675 363.6L398.7 340.275L363.6 319.875L328.575 299.4L293.475 279L258.375 258.6L223.35 238.125L192.75 220.275" stroke="#D7D2EE" stroke-width="0.75" stroke-miterlimit="10"/>
<path d="M183.75 215.1L54.9746 140.025" stroke="#D7D2EE" stroke-width="0.75" stroke-miterlimit="10"/>
<path d="M136.125 229.95L438.675 404.625" stroke="#D7D2EE" stroke-width="0.75" stroke-miterlimit="10"/>
<path d="M362.625 401.4L292.5 360.9L257.25 340.575L222 320.25L186.75 299.925L151.575 279.6L120.825 261.825" stroke="#D7D2EE" stroke-width="0.75" stroke-miterlimit="10"/>
<path d="M85.125 241.2L111.825 256.65" stroke="#D7D2EE" stroke-width="0.75" stroke-miterlimit="10"/>
<path d="M14.5498 241.2L283.65 396.6" stroke="#D7D2EE" stroke-width="0.75" stroke-miterlimit="10"/>
<path d="M50.25 302.55L81 320.325L151.5 360.975L186.675 381.3L200.1 389.025" stroke="#D7D2EE" stroke-width="0.75" stroke-miterlimit="10"/>
<path d="M220.125 73.125V176.775" stroke="#604AB9" stroke-width="1.5" stroke-miterlimit="10"/>
<path d="M220.275 178.725C222.139 178.725 223.65 177.919 223.65 176.925C223.65 175.931 222.139 175.125 220.275 175.125C218.411 175.125 216.9 175.931 216.9 176.925C216.9 177.919 218.411 178.725 220.275 178.725Z" fill="#604AB9" stroke="#604AB9" stroke-width="1.5" stroke-miterlimit="10"/>
<path d="M241.275 65.1753V71.3253C241.275 72.3753 240.6 73.4253 239.175 74.2503V68.1003C240.6 67.2753 241.275 66.2253 241.275 65.1753Z" fill="#604AB9" stroke="#604AB9" stroke-width="1.5" stroke-miterlimit="10"/>
<path d="M239.25 68.0254L239.175 74.1754L225.3 82.2754V76.1254L239.25 68.0254Z" fill="#604AB9" stroke="#604AB9" stroke-width="1.5" stroke-miterlimit="10"/>
<path d="M215.175 76.1251L201.15 68.0251C199.725 67.2001 199.05 66.1501 199.05 65.1001V71.2501C199.05 72.3001 199.725 73.4251 201.15 74.1751L215.175 82.2751C217.95 83.9251 222.525 83.9251 225.3 82.2751V76.1251C222.525 77.7751 218.025 77.7751 215.175 76.1251Z" fill="#FF073A" stroke="#604AB9" stroke-width="1.5" stroke-miterlimit="10"/>
<path d="M239.175 62.1754C241.95 63.8254 242.025 66.4504 239.175 68.0254L225.225 76.1254C222.45 77.7754 217.875 77.7754 215.1 76.1254L201.075 68.0254C198.3 66.3754 198.225 63.7504 201.075 62.1754L215.025 54.0754C217.8 52.4254 222.375 52.4254 225.15 54.0754L239.175 62.1754Z" fill="white" stroke="#604AB9" stroke-width="1.5" stroke-miterlimit="10"/>
<path d="M291.375 81.8999V257.55" stroke="#604AB9" stroke-width="1.5" stroke-miterlimit="10"/>
<path d="M291.525 259.5C293.389 259.5 294.9 258.694 294.9 257.7C294.9 256.706 293.389 255.9 291.525 255.9C289.661 255.9 288.15 256.706 288.15 257.7C288.15 258.694 289.661 259.5 291.525 259.5Z" fill="#604AB9" stroke="#604AB9" stroke-width="1.5" stroke-miterlimit="10"/>
<path d="M312.525 73.875V80.025C312.525 81.075 311.85 82.125 310.425 82.95V76.8C311.85 75.975 312.525 74.925 312.525 73.875Z" fill="#604AB9" stroke="#604AB9" stroke-width="1.5" stroke-miterlimit="10"/>
<path d="M310.425 76.7998V82.8748L296.475 91.0498V84.8998L310.425 76.7998Z" fill="#604AB9" stroke="#604AB9" stroke-width="1.5" stroke-miterlimit="10"/>
<path d="M286.35 84.9L272.325 76.8C270.9 75.975 270.225 74.925 270.225 73.875V80.025C270.225 81.075 270.9 82.2 272.325 82.95L286.35 91.05C289.125 92.7 293.7 92.7 296.475 91.05V84.9C293.7 86.55 289.2 86.55 286.35 84.9Z" fill="#FF073A" stroke="#604AB9" stroke-width="1.5" stroke-miterlimit="10"/>
<path d="M310.425 70.9498C313.2 72.5998 313.275 75.2248 310.425 76.7998L296.475 84.8998C293.7 86.5498 289.125 86.5498 286.35 84.8998L272.325 76.7998C269.55 75.1498 269.475 72.5248 272.325 70.9498L286.275 62.8498C289.05 61.1998 293.625 61.1998 296.4 62.8498L310.425 70.9498Z" fill="white" stroke="#604AB9" stroke-width="1.5" stroke-miterlimit="10"/>
<path d="M114.975 106.65V279.225" stroke="#604AB9" stroke-width="1.5" stroke-miterlimit="10"/>
<path d="M115.05 281.175C116.914 281.175 118.425 280.369 118.425 279.375C118.425 278.381 116.914 277.575 115.05 277.575C113.186 277.575 111.675 278.381 111.675 279.375C111.675 280.369 113.186 281.175 115.05 281.175Z" fill="#604AB9" stroke="#604AB9" stroke-width="1.5" stroke-miterlimit="10"/>
<path d="M134.025 109.5L120.075 117.6V123.75L134.025 115.65C135.375 114.825 136.125 113.775 136.125 112.725V106.575C136.125 107.625 135.45 108.675 134.1 109.5H134.025Z" fill="#604AB9" stroke="#604AB9" stroke-width="1.5" stroke-miterlimit="10"/>
<path d="M109.95 117.6L95.9252 109.5C94.5002 108.675 93.8252 107.625 93.8252 106.575V112.725C93.8252 113.775 94.5002 114.825 95.9252 115.65L109.95 123.75C112.725 125.4 117.3 125.4 120.075 123.75V117.6C117.3 119.25 112.8 119.25 109.95 117.6Z" fill="#FFAD66" stroke="#604AB9" stroke-width="1.5" stroke-miterlimit="10"/>
<path d="M134.025 103.65C136.8 105.3 136.875 107.925 134.025 109.5L120.075 117.6C117.3 119.25 112.725 119.25 109.95 117.6L95.9249 109.5C93.1499 107.85 93.0749 105.225 95.9249 103.65L109.875 95.55C112.65 93.9 117.225 93.9 120 95.55L134.025 103.65Z" fill="white" stroke="#604AB9" stroke-width="1.5" stroke-miterlimit="10"/>
<path d="M362.625 208.275V380.85" stroke="#604AB9" stroke-width="1.5" stroke-miterlimit="10"/>
<path d="M362.7 382.725C364.564 382.725 366.075 381.919 366.075 380.925C366.075 379.93 364.564 379.125 362.7 379.125C360.836 379.125 359.325 379.93 359.325 380.925C359.325 381.919 360.836 382.725 362.7 382.725Z" fill="#604AB9" stroke="#604AB9" stroke-width="1.5" stroke-miterlimit="10"/>
<path d="M381.675 211.05L367.725 219.15V225.3L381.675 217.2C383.025 216.375 383.775 215.325 383.775 214.275V208.125C383.775 209.175 383.1 210.225 381.75 211.05H381.675Z" fill="#604AB9" stroke="#604AB9" stroke-width="1.5" stroke-miterlimit="10"/>
<path d="M357.6 219.225L343.575 211.125C342.15 210.3 341.475 209.25 341.475 208.2V214.35C341.475 215.4 342.15 216.45 343.575 217.275L357.6 225.375C360.375 227.025 364.95 227.025 367.725 225.375V219.225C364.95 220.875 360.45 220.875 357.6 219.225Z" fill="#FFAD66" stroke="#604AB9" stroke-width="1.5" stroke-miterlimit="10"/>
<path d="M381.675 205.2C384.45 206.85 384.525 209.475 381.675 211.05L367.725 219.15C364.95 220.8 360.375 220.8 357.6 219.15L343.575 211.05C340.8 209.4 340.725 206.775 343.575 205.2L357.525 197.1C360.3 195.45 364.875 195.45 367.65 197.1L381.675 205.2Z" fill="white" stroke="#604AB9" stroke-width="1.5" stroke-miterlimit="10"/>
<path d="M186.675 359.4C188.539 359.4 190.05 358.594 190.05 357.6C190.05 356.606 188.539 355.8 186.675 355.8C184.811 355.8 183.3 356.606 183.3 357.6C183.3 358.594 184.811 359.4 186.675 359.4Z" fill="#604AB9" stroke="#604AB9" stroke-width="1.5" stroke-miterlimit="10"/>
<path d="M186.6 223.575V357.45" stroke="#604AB9" stroke-width="1.5" stroke-miterlimit="10"/>
<path d="M205.65 226.425L191.7 234.525V240.675L205.65 232.575C207 231.75 207.75 230.7 207.75 229.65V223.5C207.75 224.55 207.075 225.6 205.725 226.425H205.65Z" fill="#604AB9" stroke="#604AB9" stroke-width="1.5" stroke-miterlimit="10"/>
<path d="M181.575 234.525L167.55 226.425C166.125 225.6 165.45 224.55 165.45 223.5V229.65C165.45 230.7 166.125 231.75 167.55 232.575L181.575 240.675C184.35 242.325 188.925 242.325 191.7 240.675V234.525C188.925 236.175 184.425 236.175 181.575 234.525Z" fill="#FFAD66" stroke="#604AB9" stroke-width="1.5" stroke-miterlimit="10"/>
<path d="M205.65 220.575C208.425 222.225 208.5 224.85 205.65 226.425L191.7 234.525C188.925 236.175 184.35 236.175 181.575 234.525L167.55 226.425C164.775 224.775 164.7 222.15 167.55 220.575L181.5 212.475C184.275 210.825 188.85 210.825 191.625 212.475L205.65 220.575Z" fill="white" stroke="#604AB9" stroke-width="1.5" stroke-miterlimit="10"/>
<path d="M327.15 145.275V318.825" stroke="#604AB9" stroke-width="1.5" stroke-miterlimit="10"/>
<path d="M327.225 320.775C329.089 320.775 330.6 319.969 330.6 318.975C330.6 317.981 329.089 317.175 327.225 317.175C325.361 317.175 323.85 317.981 323.85 318.975C323.85 319.969 325.361 320.775 327.225 320.775Z" fill="#604AB9" stroke="#604AB9" stroke-width="1.5" stroke-miterlimit="10"/>
<path d="M348.375 145.125V151.275C348.375 152.325 347.7 153.375 346.275 154.2V148.05C347.7 147.225 348.375 146.175 348.375 145.125Z" fill="#604AB9" stroke="#604AB9" stroke-width="1.5" stroke-miterlimit="10"/>
<path d="M346.35 148.05L346.275 154.2L332.325 162.3L332.4 156.15L346.35 148.05Z" fill="#604AB9" stroke="#604AB9" stroke-width="1.5" stroke-miterlimit="10"/>
<path d="M322.275 156.15L308.25 148.05C306.825 147.225 306.15 146.175 306.15 145.125V151.275C306.15 152.325 306.825 153.375 308.25 154.2L322.275 162.3C325.05 163.95 329.625 163.95 332.4 162.3V156.15C329.625 157.8 325.125 157.8 322.275 156.15Z" fill="#FFAD66" stroke="#604AB9" stroke-width="1.5" stroke-miterlimit="10"/>
<path d="M346.275 142.2C349.05 143.85 349.125 146.475 346.275 148.05L332.325 156.15C329.55 157.8 324.975 157.8 322.2 156.15L308.175 148.05C305.4 146.4 305.325 143.775 308.175 142.2L322.125 134.1C324.9 132.45 329.475 132.45 332.25 134.1L346.275 142.2Z" fill="white" stroke="#604AB9" stroke-width="1.5" stroke-miterlimit="10"/>
<path d="M151.875 272.175V299.625" stroke="#604AB9" stroke-width="1.5" stroke-miterlimit="10"/>
<path d="M151.95 301.575C153.814 301.575 155.325 300.769 155.325 299.775C155.325 298.781 153.814 297.975 151.95 297.975C150.086 297.975 148.575 298.781 148.575 299.775C148.575 300.769 150.086 301.575 151.95 301.575Z" fill="#604AB9" stroke="#604AB9" stroke-width="1.5" stroke-miterlimit="10"/>
<path d="M173.025 264.225V270.375C173.025 271.425 172.35 272.475 170.925 273.3V267.15C172.35 266.325 173.025 265.275 173.025 264.225Z" fill="#604AB9" stroke="#604AB9" stroke-width="1.5" stroke-miterlimit="10"/>
<path d="M170.925 267.15V273.225L156.975 281.325V275.25L170.925 267.15Z" fill="#604AB9" stroke="#604AB9" stroke-width="1.5" stroke-miterlimit="10"/>
<path d="M146.85 275.25L132.825 267.15C131.4 266.325 130.725 265.275 130.725 264.225V270.375C130.725 271.425 131.4 272.475 132.825 273.3L146.85 281.4C149.625 283.05 154.2 283.05 156.975 281.4V275.25C154.2 276.9 149.7 276.9 146.85 275.25Z" fill="#DCDADF" stroke="#604AB9" stroke-width="1.5" stroke-miterlimit="10"/>
<path d="M170.925 261.225C173.7 262.875 173.775 265.5 170.925 267.075L156.975 275.175C154.2 276.825 149.625 276.825 146.85 275.175L132.825 267.075C130.05 265.425 129.975 262.8 132.825 261.225L146.775 253.125C149.55 251.475 154.125 251.475 156.9 253.125L170.925 261.225Z" fill="white" stroke="#604AB9" stroke-width="1.5" stroke-miterlimit="10"/>
<path d="M114.525 334.8V362.25" stroke="#604AB9" stroke-width="1.5" stroke-miterlimit="10"/>
<path d="M114.6 364.2C116.464 364.2 117.975 363.394 117.975 362.4C117.975 361.406 116.464 360.6 114.6 360.6C112.736 360.6 111.225 361.406 111.225 362.4C111.225 363.394 112.736 364.2 114.6 364.2Z" fill="#604AB9" stroke="#604AB9" stroke-width="1.5" stroke-miterlimit="10"/>
<path d="M135.6 326.85V333C135.6 334.05 134.925 335.1 133.5 335.925V329.775C134.925 328.95 135.6 327.9 135.6 326.85Z" fill="#604AB9" stroke="#604AB9" stroke-width="1.5" stroke-miterlimit="10"/>
<path d="M133.575 329.7V335.85L119.625 343.95V337.8L133.575 329.7Z" fill="#604AB9" stroke="#604AB9" stroke-width="1.5" stroke-miterlimit="10"/>
<path d="M109.5 337.8L95.4755 329.7C94.0505 328.875 93.3755 327.825 93.3755 326.775V332.925C93.3755 333.975 94.0505 335.025 95.4755 335.85L109.5 343.95C112.275 345.6 116.85 345.6 119.625 343.95V337.8C116.85 339.45 112.35 339.45 109.5 337.8Z" fill="#DCDADF" stroke="#604AB9" stroke-width="1.5" stroke-miterlimit="10"/>
<path d="M133.5 323.85C136.275 325.5 136.35 328.125 133.5 329.7L119.55 337.8C116.775 339.45 112.2 339.45 109.425 337.8L95.4005 329.7C92.6255 328.05 92.5505 325.425 95.4005 323.85L109.35 315.75C112.125 314.1 116.7 314.1 119.475 315.75L133.5 323.85Z" fill="white" stroke="#604AB9" stroke-width="1.5" stroke-miterlimit="10"/>
<path d="M151.875 192V215.325" stroke="#604AB9" stroke-width="1.5" stroke-miterlimit="10"/>
<path d="M151.95 217.275C153.814 217.275 155.325 216.469 155.325 215.475C155.325 214.481 153.814 213.675 151.95 213.675C150.086 213.675 148.575 214.481 148.575 215.475C148.575 216.469 150.086 217.275 151.95 217.275Z" fill="#604AB9" stroke="#604AB9" stroke-width="1.5" stroke-miterlimit="10"/>
<path d="M170.925 186.9L156.975 195V201.15L170.925 193.05C172.275 192.225 173.025 191.175 173.025 190.125V183.975C173.025 185.025 172.35 186.075 171 186.9H170.925Z" fill="#604AB9" stroke="#604AB9" stroke-width="1.5" stroke-miterlimit="10"/>
<path d="M146.85 195L132.825 186.9C131.4 186.075 130.725 185.025 130.725 183.975V190.125C130.725 191.175 131.4 192.225 132.825 193.05L146.85 201.15C149.625 202.8 154.2 202.8 156.975 201.15V195C154.2 196.65 149.7 196.65 146.85 195Z" fill="#DCDADF" stroke="#604AB9" stroke-width="1.5" stroke-miterlimit="10"/>
<path d="M170.925 181.05C173.7 182.7 173.775 185.325 170.925 186.9L156.975 195C154.2 196.65 149.625 196.65 146.85 195L132.825 186.9C130.05 185.25 129.975 182.625 132.825 181.05L146.775 172.95C149.55 171.3 154.125 171.3 156.9 172.95L170.925 181.05Z" fill="white" stroke="#604AB9" stroke-width="1.5" stroke-miterlimit="10"/>
<path d="M256.65 173.625V196.95" stroke="#604AB9" stroke-width="1.5" stroke-miterlimit="10"/>
<path d="M256.8 198.825C258.664 198.825 260.175 198.019 260.175 197.025C260.175 196.031 258.664 195.225 256.8 195.225C254.936 195.225 253.425 196.031 253.425 197.025C253.425 198.019 254.936 198.825 256.8 198.825Z" fill="#604AB9" stroke="#604AB9" stroke-width="1.5" stroke-miterlimit="10"/>
<path d="M277.8 165.6V171.75C277.8 172.8 277.125 173.85 275.7 174.675V168.525C277.125 167.7 277.8 166.65 277.8 165.6Z" fill="#604AB9" stroke="#604AB9" stroke-width="1.5" stroke-miterlimit="10"/>
<path d="M275.7 168.525V174.675L261.75 182.775V176.625L275.7 168.525Z" fill="#604AB9" stroke="#604AB9" stroke-width="1.5" stroke-miterlimit="10"/>
<path d="M251.625 176.625L237.6 168.525C236.175 167.7 235.5 166.65 235.5 165.6V171.75C235.5 172.8 236.175 173.85 237.6 174.675L251.625 182.775C254.4 184.425 258.975 184.425 261.75 182.775V176.625C258.975 178.275 254.475 178.275 251.625 176.625Z" fill="#DCDADF" stroke="#604AB9" stroke-width="1.5" stroke-miterlimit="10"/>
<path d="M275.7 162.675C278.475 164.325 278.55 166.95 275.7 168.525L261.75 176.625C258.975 178.275 254.4 178.275 251.625 176.625L237.6 168.525C234.825 166.875 234.75 164.25 237.6 162.675L251.55 154.575C254.325 152.925 258.9 152.925 261.675 154.575L275.7 162.675Z" fill="white" stroke="#604AB9" stroke-width="1.5" stroke-miterlimit="10"/>
<path d="M80.25 281.7V298.275" stroke="#604AB9" stroke-width="1.5" stroke-miterlimit="10"/>
<path d="M80.3252 300.225C82.1892 300.225 83.7002 299.419 83.7002 298.425C83.7002 297.43 82.1892 296.625 80.3252 296.625C78.4612 296.625 76.9502 297.43 76.9502 298.425C76.9502 299.419 78.4612 300.225 80.3252 300.225Z" fill="#604AB9" stroke="#604AB9" stroke-width="1.5" stroke-miterlimit="10"/>
<path d="M101.4 273.75V279.9C101.4 280.95 100.725 282 99.3003 282.825V276.675C100.725 275.85 101.4 274.8 101.4 273.75Z" fill="#604AB9" stroke="#604AB9" stroke-width="1.5" stroke-miterlimit="10"/>
<path d="M99.3001 276.6V282.75L85.3501 290.85V284.7L99.3001 276.6Z" fill="#604AB9" stroke="#604AB9" stroke-width="1.5" stroke-miterlimit="10"/>
<path d="M75.2251 284.7L61.2001 276.6C59.7751 275.775 59.1001 274.725 59.1001 273.675V279.825C59.1001 280.875 59.7751 281.925 61.2001 282.75L75.2251 290.85C78.0001 292.5 82.5751 292.5 85.3501 290.85V284.7C82.5751 286.35 78.0751 286.35 75.2251 284.7Z" fill="#DCDADF" stroke="#604AB9" stroke-width="1.5" stroke-miterlimit="10"/>
<path d="M99.3003 270.75C102.075 272.4 102.15 275.025 99.3003 276.6L85.3503 284.7C82.5753 286.35 78.0003 286.35 75.2253 284.7L61.2003 276.6C58.4253 274.95 58.3503 272.325 61.2003 270.75L75.1503 262.65C77.9253 261 82.5003 261 85.2753 262.65L99.3003 270.75Z" fill="white" stroke="#604AB9" stroke-width="1.5" stroke-miterlimit="10"/>
<path d="M398.55 243.45V279.525" stroke="#604AB9" stroke-width="1.5" stroke-miterlimit="10"/>
<path d="M398.7 281.475C400.564 281.475 402.075 280.669 402.075 279.675C402.075 278.68 400.564 277.875 398.7 277.875C396.836 277.875 395.325 278.68 395.325 279.675C395.325 280.669 396.836 281.475 398.7 281.475Z" fill="#604AB9" stroke="#604AB9" stroke-width="1.5" stroke-miterlimit="10"/>
<path d="M419.7 235.5V241.65C419.7 242.7 419.025 243.75 417.6 244.575V238.425C419.025 237.6 419.7 236.55 419.7 235.5Z" fill="#604AB9" stroke="#604AB9" stroke-width="1.5" stroke-miterlimit="10"/>
<path d="M417.675 238.425L417.6 244.5L403.65 252.6L403.725 246.525L417.675 238.425Z" fill="#604AB9" stroke="#604AB9" stroke-width="1.5" stroke-miterlimit="10"/>
<path d="M393.6 246.525L379.575 238.425C378.15 237.6 377.475 236.55 377.475 235.5V241.65C377.475 242.7 378.15 243.75 379.575 244.575L393.6 252.675C396.375 254.325 400.95 254.325 403.725 252.675V246.525C400.95 248.175 396.45 248.175 393.6 246.525Z" fill="#DCDADF" stroke="#604AB9" stroke-width="1.5" stroke-miterlimit="10"/>
<path d="M417.6 232.5C420.375 234.15 420.45 236.775 417.6 238.35L403.65 246.45C400.875 248.1 396.3 248.1 393.525 246.45L379.5 238.35C376.725 236.7 376.65 234.075 379.5 232.5L393.45 224.4C396.225 222.75 400.8 222.75 403.575 224.4L417.6 232.5Z" fill="white" stroke="#604AB9" stroke-width="1.5" stroke-miterlimit="10"/>
<path d="M397.875 159V195.075" stroke="#604AB9" stroke-width="1.5" stroke-miterlimit="10"/>
<path d="M397.95 197.025C399.814 197.025 401.325 196.219 401.325 195.225C401.325 194.231 399.814 193.425 397.95 193.425C396.086 193.425 394.575 194.231 394.575 195.225C394.575 196.219 396.086 197.025 397.95 197.025Z" fill="#604AB9" stroke="#604AB9" stroke-width="1.5" stroke-miterlimit="10"/>
<path d="M418.95 150.975V157.125C418.95 158.175 418.275 159.225 416.85 160.05V153.9C418.275 153.075 418.95 152.025 418.95 150.975Z" fill="#604AB9" stroke="#604AB9" stroke-width="1.5" stroke-miterlimit="10"/>
<path d="M416.925 153.9V160.05L402.975 168.15V162L416.925 153.9Z" fill="#604AB9" stroke="#604AB9" stroke-width="1.5" stroke-miterlimit="10"/>
<path d="M392.85 162L378.825 153.9C377.4 153.075 376.725 152.025 376.725 150.975V157.125C376.725 158.175 377.4 159.225 378.825 160.05L392.85 168.15C395.625 169.8 400.2 169.8 402.975 168.15V162C400.2 163.65 395.7 163.65 392.85 162Z" fill="#DCDADF" stroke="#604AB9" stroke-width="1.5" stroke-miterlimit="10"/>
<path d="M416.85 148.05C419.625 149.7 419.7 152.325 416.85 153.9L402.9 162C400.125 163.65 395.55 163.65 392.775 162L378.75 153.9C375.975 152.25 375.9 149.625 378.75 148.05L392.7 139.95C395.475 138.3 400.05 138.3 402.825 139.95L416.85 148.05Z" fill="white" stroke="#604AB9" stroke-width="1.5" stroke-miterlimit="10"/>
<path d="M256.65 335.775V359.775" stroke="#604AB9" stroke-width="1.5" stroke-miterlimit="10"/>
<path d="M256.8 361.95C258.871 361.95 260.55 361.044 260.55 359.925C260.55 358.807 258.871 357.9 256.8 357.9C254.729 357.9 253.05 358.807 253.05 359.925C253.05 361.044 254.729 361.95 256.8 361.95Z" fill="#604AB9" stroke="#604AB9" stroke-width="1.5" stroke-miterlimit="10"/>
<path d="M277.8 327.825V333.975C277.8 335.025 277.125 336.075 275.7 336.9V330.75C277.125 329.925 277.8 328.875 277.8 327.825Z" fill="#604AB9" stroke="#604AB9" stroke-width="1.5" stroke-miterlimit="10"/>
<path d="M275.7 330.75V336.825L261.75 344.925V338.85L275.7 330.75Z" fill="#604AB9" stroke="#604AB9" stroke-width="1.5" stroke-miterlimit="10"/>
<path d="M251.625 338.85L237.6 330.75C236.175 329.925 235.5 328.875 235.5 327.825V333.975C235.5 335.025 236.175 336.075 237.6 336.9L251.625 345C254.4 346.65 258.975 346.65 261.75 345V338.85C258.975 340.5 254.475 340.5 251.625 338.85Z" fill="#DCDADF" stroke="#604AB9" stroke-width="1.5" stroke-miterlimit="10"/>
<path d="M275.7 324.9C278.475 326.55 278.55 329.175 275.7 330.75L261.75 338.85C258.975 340.5 254.4 340.5 251.625 338.85L237.6 330.75C234.825 329.1 234.75 326.475 237.6 324.9L251.55 316.8C254.325 315.15 258.9 315.15 261.675 316.8L275.7 324.9Z" fill="white" stroke="#604AB9" stroke-width="1.5" stroke-miterlimit="10"/>
<path d="M256.65 257.325V281.325" stroke="#604AB9" stroke-width="1.5" stroke-miterlimit="10"/>
<path d="M256.8 283.2C258.664 283.2 260.175 282.394 260.175 281.4C260.175 280.406 258.664 279.6 256.8 279.6C254.936 279.6 253.425 280.406 253.425 281.4C253.425 282.394 254.936 283.2 256.8 283.2Z" fill="#604AB9" stroke="#604AB9" stroke-width="1.5" stroke-miterlimit="10"/>
<path d="M277.8 249.375V255.525C277.8 256.575 277.125 257.625 275.7 258.45V252.3C277.125 251.475 277.8 250.425 277.8 249.375Z" fill="#604AB9" stroke="#604AB9" stroke-width="1.5" stroke-miterlimit="10"/>
<path d="M275.7 252.225V258.375L261.75 266.475V260.325L275.7 252.225Z" fill="#604AB9" stroke="#604AB9" stroke-width="1.5" stroke-miterlimit="10"/>
<path d="M251.625 260.325L237.6 252.225C236.175 251.4 235.5 250.35 235.5 249.3V255.45C235.5 256.5 236.175 257.55 237.6 258.375L251.625 266.475C254.4 268.125 258.975 268.125 261.75 266.475V260.325C258.975 261.975 254.475 261.975 251.625 260.325Z" fill="#DCDADF" stroke="#604AB9" stroke-width="1.5" stroke-miterlimit="10"/>
<path d="M275.7 246.375C278.475 248.025 278.55 250.65 275.7 252.225L261.75 260.325C258.975 261.975 254.4 261.975 251.625 260.325L237.6 252.225C234.825 250.575 234.75 247.95 237.6 246.375L251.55 238.275C254.325 236.625 258.9 236.625 261.675 238.275L275.7 246.375Z" fill="white" stroke="#604AB9" stroke-width="1.5" stroke-miterlimit="10"/>
<path d="M186.6 218.55V186.15C186.6 180.825 183.75 175.875 179.1 173.175L114.075 135.675" stroke="#604AB9" stroke-width="1.5" stroke-miterlimit="10"/>
<path d="M220.275 59.6252V20.7002C220.275 14.9252 214.05 11.3252 209.025 14.1752L122.025 64.4253C117.375 67.1253 114.525 72.0752 114.525 77.4002V99.2253" stroke="#604AB9" stroke-width="1.5" stroke-miterlimit="10"/>
<path d="M79.6504 273.75V251.925C79.6504 246.6 82.5004 241.575 87.1504 238.95L114.975 222.9" stroke="#604AB9" stroke-width="1.5" stroke-miterlimit="10"/>
<path d="M219.525 110.25L247.35 126.3C252 129 254.85 133.95 254.85 139.275V161.1" stroke="#604AB9" stroke-width="1.5" stroke-miterlimit="10"/>
<path d="M171.6 53.7L175.2 51.6C175.875 51.225 176.325 50.325 176.325 49.125L172.725 51.225C172.725 52.425 172.275 53.25 171.6 53.7Z" fill="white" stroke="#604AB9" stroke-width="1.5" stroke-miterlimit="10"/>
<path d="M159.225 23.925L155.625 26.025C156.3 25.65 157.275 25.65 158.325 26.325L161.925 24.225C160.875 23.625 159.9 23.55 159.225 23.925Z" fill="white" stroke="#604AB9" stroke-width="1.5" stroke-miterlimit="10"/>
<path d="M172.725 51.2249L176.4 49.1249V36.8999L172.8 38.9999L172.725 51.2249Z" fill="white" stroke="#604AB9" stroke-width="1.5" stroke-miterlimit="10"/>
<path d="M168.975 32.3999L172.575 30.2999L162 24.1499L158.325 26.2499L168.975 32.3999Z" fill="white" stroke="#604AB9" stroke-width="1.5" stroke-miterlimit="10"/>
<path d="M172.8 38.9998L176.4 36.8998C176.4 34.4248 174.675 31.4998 172.575 30.2998L168.975 32.3998C171.075 33.5998 172.8 36.5998 172.8 38.9998Z" fill="white" stroke="#604AB9" stroke-width="1.5" stroke-miterlimit="10"/>
<path d="M158.325 26.2499C156.225 25.0499 154.5 26.0249 154.5 28.4249V40.6499C154.5 43.1249 156.15 46.0499 158.325 47.2499L168.9 53.3999C171 54.5999 172.725 53.6249 172.725 51.2249V38.9999C172.725 36.5249 171.075 33.5999 168.9 32.3999L158.325 26.2499Z" fill="white" stroke="#604AB9" stroke-width="1.5" stroke-miterlimit="10"/>
<path d="M140.175 53.9252L162 41.3252" stroke="#604AB9" stroke-width="1.5" stroke-miterlimit="10"/>
</g>
<defs>
<clipPath id="clip0_1912_41820">
<rect width="450" height="405" fill="white"/>
</clipPath>
</defs>
</svg>
